<svg width="720" height="592" xmlns="http://www.w3.org/2000/svg" xmlns:xlink="http://www.w3.org/1999/xlink" xml:space="preserve" overflow="hidden"><defs><clipPath id="clip0"><rect x="576" y="-752" width="720" height="592"/></clipPath><clipPath id="clip1"><rect x="576" y="-751" width="720" height="591"/></clipPath><clipPath id="clip2"><rect x="576" y="-751" width="720" height="591"/></clipPath><clipPath id="clip3"><rect x="576" y="-751" width="720" height="721"/></clipPath></defs><g clip-path="url(#clip0)" transform="translate(-576 752)"><g clip-path="url(#clip1)"><g clip-path="url(#clip2)"><g clip-path="url(#clip3)"><path d="M111.744 172.224C116.927 178.56 119.808 197.569 120.961 202.752 123.842 221.186 127.297 247.68 127.872 266.114L127.872 270.148C128.446 278.212 130.174 285.701 133.633 293.186 152.641 334.084 190.08 385.348 190.08 385.348L192.383 388.229C194.11 390.531 196.991 391.11 199.293 389.957 202.174 388.229 202.749 384.773 201.596 382.467L151.485 301.25C146.302 292.033 149.182 279.361 158.974 273.603 168.765 267.842 181.438 270.722 187.199 279.94L239.037 346.757C242.492 351.365 248.828 357.122 253.437 360.582 300.092 393.99 306.429 428.548 310.462 445.829 310.462 445.829 311.036 449.863 311.036 455.62 311.036 460.229 311.036 465.986 309.883 471.748L307.002 527.62C307.002 531.654 303.547 535.109 299.513 535.109L211.96 534.535C207.926 534.535 204.471 531.079 204.471 527.046L202.743 480.964 118.653 380.16C106.555 366.913 97.9174 352.513 95.6155 334.658L95.0409 329.475 80.0629 188.931C79.4883 182.021 81.7906 175.106 86.9736 170.497 93.8884 165.314 104.255 163.586 111.744 172.229ZM133.055 182.016C134.783 187.199 135.357 191.807 136.51 196.99 139.391 213.118 142.847 241.918 143.421 256.892L143.421 261.501C145.149 259.773 146.877 258.62 149.183 257.467 151.485 255.739 154.366 254.586 157.247 254.012 157.247 254.012 157.247 253.437 157.821 253.437 156.093 239.037 150.91 211.39 146.876 196.99 143.999 189.501 139.965 184.318 133.054 182.015ZM160.702 202.173C163.004 212.539 168.766 232.126 170.493 242.492L171.647 249.403 171.647 251.131C175.681 251.131 180.285 252.284 184.319 253.433 183.165 244.216 176.829 225.208 174.527 216.569 172.225 209.662 167.616 204.479 160.702 202.173ZM608.254 172.225C603.071 178.561 600.19 197.57 599.037 202.753 596.156 221.187 592.701 247.681 592.126 266.115L592.126 270.149C591.552 278.212 589.824 285.702 586.365 293.186 567.357 334.085 529.918 385.349 529.918 385.349L527.615 388.229C525.888 390.532 523.007 391.11 520.705 389.957 517.824 388.229 517.249 384.774 518.402 382.468L568.513 301.251C573.696 292.034 570.816 279.362 561.024 273.604 551.233 267.842 538.56 270.723 532.799 279.94L480.961 346.757C477.506 351.366 471.17 357.123 466.561 360.582 419.906 393.99 413.569 428.548 409.536 445.829 409.536 445.829 408.962 449.863 408.962 455.621 408.962 460.229 408.962 465.986 410.115 471.749L412.996 527.621C412.996 531.654 416.451 535.11 420.485 535.11L508.038 534.535C512.072 534.535 515.527 531.08 515.527 527.046L517.255 480.965 601.345 380.161C613.443 366.914 622.081 352.514 624.383 334.659L624.957 329.476 639.357 188.356C639.932 181.445 637.629 174.531 632.446 169.922 626.11 165.309 615.744 163.582 608.254 172.224ZM563.326 253.437C566.207 254.591 568.509 255.74 571.39 256.893 573.692 258.046 575.424 259.774 577.151 260.927L577.151 256.318C577.726 241.343 581.185 212.543 584.062 196.416 584.637 191.808 585.79 186.625 587.518 181.441 580.028 183.744 575.999 188.931 574.271 196.416 570.237 210.816 565.054 238.463 563.326 253.438ZM536.254 253.437C540.288 251.71 544.318 251.135 548.926 251.135L548.926 249.408 550.079 242.497C551.232 232.131 557.568 213.122 559.871 202.178 552.96 204.48 548.926 209.667 546.624 216.578 543.743 225.216 537.407 244.225 536.254 253.438ZM478.654 219.454C475.199 235.582 468.862 250.556 460.22 263.807L476.348 279.935C480.382 283.969 480.382 290.301 476.348 294.335L456.765 313.918C452.731 317.952 446.399 317.952 442.365 313.918L426.237 297.79C412.99 306.429 398.012 312.765 381.884 316.225L381.884 339.262C381.884 345.024 377.275 349.628 371.518 349.628L343.871 349.628C338.109 349.628 333.505 345.02 333.505 339.262L333.505 316.225C317.377 312.769 302.403 306.433 289.152 297.79L273.024 313.918C268.99 317.952 262.658 317.952 258.624 313.918L239.041 294.335C235.007 290.302 235.007 283.97 239.041 279.935L255.169 263.807C246.531 250.561 240.194 235.582 236.735 219.454L213.697 219.454C207.935 219.454 203.331 214.846 203.331 209.089L203.331 181.442C203.331 175.68 207.94 171.076 213.697 171.076L236.735 171.076C240.19 154.948 246.526 139.974 255.169 126.723L239.041 110.595C235.007 106.561 235.007 100.229 239.041 96.1946L258.624 76.6116C262.658 72.5777 268.99 72.5777 273.024 76.6116L289.152 92.7396C302.399 84.1012 317.377 77.7646 333.505 74.3055L333.505 51.2676C333.505 45.506 338.114 40.9017 343.871 40.9017L371.518 40.8976C377.28 40.8976 381.884 45.5062 381.884 51.2636L381.884 74.3015C398.012 77.7569 412.986 84.093 426.237 92.7356L442.365 76.6076C446.399 72.5736 452.731 72.5736 456.765 76.6076L476.348 96.1906C480.382 100.225 480.382 106.557 476.348 110.591L460.224 126.719C468.862 139.966 475.199 154.944 478.658 171.072L501.696 171.072C507.458 171.072 512.062 175.68 512.062 181.438L512.062 209.085C512.062 214.846 507.453 219.45 501.696 219.45ZM427.39 195.262C427.39 156.67 396.288 125.564 357.692 125.564 319.1 125.564 287.994 156.666 287.994 195.262 287.994 233.854 319.096 264.961 357.692 264.961 396.287 264.961 427.39 233.854 427.39 195.262ZM357.696 156.67C336.385 156.67 319.679 173.952 319.679 194.687 319.679 215.998 336.96 232.705 357.696 232.705 379.007 232.705 395.713 215.423 395.713 194.687 395.709 173.952 378.432 156.67 357.696 156.67Z" fill="#0078d4"  fill-rule="nonzero" fill-opacity="1" transform="matrix(1 0 0 1.00002 576 -751)"/><path d="M19.3022-1.15714C18.3057-0.642857 17.2651-0.257143 16.1844 0 15.1116 0.265176 13.9866 0.401781 12.8094 0.401781 9.31392 0.401781 6.54562-0.570538 4.50051-2.52327 2.45139-4.48393 1.43085-7.1358 1.43085-10.4787 1.43085-13.8295 2.45138-16.4813 4.50051-18.434 6.54562-20.3947 9.31392-21.3751 12.8094-21.3751 13.9866-21.3751 15.1117-21.2385 16.1844-20.9734 17.2652-20.7162 18.3058-20.3305 19.3022-19.8162L19.3022-15.4769C18.2937-16.1519 17.3013-16.6501 16.329-16.9715 15.3526-17.2929 14.3241-17.4536 13.2433-17.4536 11.3147-17.4536 9.79591-16.8309 8.69503-15.5893 7.59014-14.3559 7.03965-12.6523 7.03965-10.4786 7.03965-8.31293 7.5901-6.6094 8.69503-5.36782 9.79591-4.13435 11.3147-3.51958 13.2433-3.51958 14.3241-3.51958 15.3527-3.67226 16.329-3.98564 17.3013-4.30707 18.2938-4.8093 19.3022-5.49641Z" fill="#0078d4"  fill-rule="nonzero" fill-opacity="1" transform="matrix(1 0 0 1.00002 648 -88.5892)"/><path d="M14.1264-11.4593C13.6764-11.6602 13.2304-11.8129 12.7924-11.9093 12.3625-12.0138 11.9286-12.07 11.4907-12.07 10.1929-12.07 9.19646-11.6522 8.50145-10.8164 7.80234-9.98872 7.45683-8.8075 7.45683-7.26465L7.45683-0.00036 2.4265-0.00036 2.4265-15.7498 7.45683-15.7498 7.45683-13.1624C8.09969-14.1909 8.83903-14.9383 9.67464-15.4124 10.5184-15.8945 11.5269-16.1356 12.6961-16.1356 12.8648-16.1356 13.0496-16.1235 13.2425-16.1034 13.4434-16.0914 13.7327-16.0633 14.1104-16.0231Z" fill="#0078d4"  fill-rule="nonzero" fill-opacity="1" transform="matrix(1 0 0 1.00002 669.138 -88.5892)"/><path d="M18.145-7.92319 18.145-6.47681 6.3648-6.47681C6.49337-5.2956 6.91926-4.41165 7.65052-3.82505 8.37775-3.23443 9.40228-2.94112 10.7202-2.94112 11.7808-2.94112 12.8617-3.0938 13.9666-3.40718 15.0795-3.72861 16.2206-4.20272 17.3897-4.83752L17.3897-0.964327C16.2005-0.514327 15.0112-0.176832 13.8218 0.0481783 12.6326 0.281211 11.4433 0.40175 10.2539 0.40175 7.40129 0.40175 5.18338-0.321459 3.60031-1.76792 2.02536-3.2143 1.23778-5.24336 1.23778-7.85902 1.23778-10.4304 2.01323-12.4474 3.56811-13.9179 5.11899-15.3965 7.25246-16.1357 9.96459-16.1357 12.4395-16.1357 14.4204-15.3844 15.911-13.8857 17.3976-12.3951 18.1449-10.4063 18.1449-7.9232ZM12.9701-9.59462C12.9701-10.5468 12.6888-11.3143 12.1344-11.8929 11.5759-12.4795 10.8487-12.7768 9.94865-12.7768 8.97231-12.7768 8.18074-12.5036 7.57008-11.9571 6.95942-11.4107 6.57767-10.6232 6.42898-9.59462Z" fill="#0078d4"  fill-rule="nonzero" fill-opacity="1" transform="matrix(1 0 0 1.00002 683.341 -88.5892)"/><path d="M9.48219-7.08747C8.42955-7.08747 7.63797-6.91068 7.10362-6.55712 6.57728-6.20355 6.31613-5.67721 6.31613-4.98217 6.31613-4.33932 6.52907-3.83305 6.95899-3.47141 7.38488-3.11784 7.9755-2.94106 8.72689-2.94106 9.67913-2.94106 10.4787-3.27855 11.1215-3.95356 11.7724-4.63659 12.1019-5.4884 12.1019-6.50894L12.1019-7.08752ZM17.1644-8.98395 17.1644 0 12.1019 0 12.1019-2.33033C11.4269-1.37408 10.6635-0.67896 9.81967-0.241097 8.9719 0.184793 7.94335 0.40176 6.73395 0.40176 5.10274 0.40176 3.78082-0.068328 2.76429-1.01253 1.74375-1.96476 1.23747-3.20225 1.23747-4.72505 1.23747-6.56527 1.86828-7.91527 3.13395-8.77505 4.40763-9.64291 6.4045-10.0768 9.12857-10.0768L12.1018-10.0768 12.1018-10.4786C12.1018-11.2701 11.7844-11.8486 11.1535-12.2143 10.5187-12.588 9.53838-12.7768 8.21244-12.7768 7.12761-12.7768 6.12321-12.6683 5.19102-12.4554 4.26691-12.2384 3.41107-11.917 2.61959-11.4911L2.61959-15.3322C3.68838-15.5893 4.76508-15.7862 5.84992-15.9268 6.94278-16.0634 8.03563-16.1358 9.12849-16.1358 11.9651-16.1358 14.0142-15.5733 15.2678-14.4483 16.5295-13.3314 17.1643-11.5112 17.1643-8.984Z" fill="#0078d4"  fill-rule="nonzero" fill-opacity="1" transform="matrix(1 0 0 1.00002 702.872 -88.5892)"/><path d="M7.92319-20.2176 7.92319-15.7497 13.1143-15.7497 13.1143-12.1497 7.92319-12.1497 7.92319-5.46398C7.92319-4.73273 8.06783-4.24255 8.35712-3.98541 8.64642-3.72826 9.21695-3.59969 10.0768-3.59969L12.6643-3.59969 12.6643 0.000308571 8.35712 0.000308571C6.36427 0.000308571 4.94998-0.409515 4.11427-1.23717 3.28658-2.07288 2.87679-3.47914 2.87679-5.46398L2.87679-12.1497 0.385694-12.1497 0.385694-15.7497 2.87679-15.7497 2.87679-20.2176Z" fill="#0078d4"  fill-rule="nonzero" fill-opacity="1" transform="matrix(1 0 0 1.00002 722.306 -88.5892)"/><path d="M18.145-7.92319 18.145-6.47681 6.3648-6.47681C6.49337-5.2956 6.91926-4.41165 7.65052-3.82505 8.37775-3.23443 9.40228-2.94112 10.7202-2.94112 11.7808-2.94112 12.8617-3.0938 13.9666-3.40718 15.0795-3.72861 16.2206-4.20272 17.3897-4.83752L17.3897-0.964327C16.2005-0.514327 15.0112-0.176832 13.8218 0.0481783 12.6326 0.281211 11.4433 0.40175 10.2539 0.40175 7.40129 0.40175 5.18338-0.321459 3.60031-1.76792 2.02536-3.2143 1.23778-5.24336 1.23778-7.85902 1.23778-10.4304 2.01323-12.4474 3.56811-13.9179 5.11899-15.3965 7.25246-16.1357 9.96459-16.1357 12.4395-16.1357 14.4204-15.3844 15.911-13.8857 17.3976-12.3951 18.1449-10.4063 18.1449-7.9232ZM12.9701-9.59462C12.9701-10.5468 12.6888-11.3143 12.1344-11.8929 11.5759-12.4795 10.8487-12.7768 9.94865-12.7768 8.97231-12.7768 8.18074-12.5036 7.57008-11.9571 6.95942-11.4107 6.57767-10.6232 6.42898-9.59462Z" fill="#0078d4"  fill-rule="nonzero" fill-opacity="1" transform="matrix(1 0 0 1.00002 736.075 -88.5892)"/><path d="M13.1307-13.4517 13.1307-21.8891 18.1933-21.8891 18.1933-0.000102857 13.1307-0.000102857 13.1307-2.2823C12.4437-1.35015 11.6844-0.667131 10.8485-0.2412 10.0127 0.184731 9.04053 0.401657 7.93965 0.401657 5.99904 0.401657 4.40794-0.369771 3.16646-1.91263 1.92096-3.45549 1.30217-5.43631 1.30217-7.85901 1.30217-10.2898 1.92092-12.2787 3.16646-13.8215 4.40794-15.3644 5.99904-16.1358 7.93965-16.1358 9.0325-16.1358 9.99679-15.9148 10.8325-15.4769 11.6763-15.0349 12.4437-14.36 13.1307-13.4518ZM9.81998-3.24627C10.8888-3.24627 11.7083-3.63601 12.2789-4.41946 12.8454-5.21098 13.1307-6.35606 13.1307-7.8588 13.1307-9.35743 12.8454-10.4985 12.2789-11.282 11.7083-12.0735 10.8887-12.4712 9.81998-12.4712 8.74718-12.4712 7.92761-12.0735 7.36107-11.282 6.79054-10.4985 6.50929-9.35743 6.50929-7.8588 6.50929-6.35616 6.79055-5.21105 7.36107-4.41946 7.92759-3.63598 8.74728-3.24627 9.81998-3.24627Z" fill="#0078d4"  fill-rule="nonzero" fill-opacity="1" transform="matrix(1 0 0 1.00002 755.606 -88.5892)"/><path d="M10.8-3.24638C11.8808-3.24638 12.7045-3.63611 13.275-4.41957 13.8415-5.21108 14.1267-6.35616 14.1267-7.8589 14.1267-9.35753 13.8415-10.4986 13.275-11.2821 12.7044-12.0736 11.8807-12.4713 10.8-12.4713 9.71517-12.4713 8.88748-12.0736 8.3089-11.2821 7.73836-10.4866 7.45712-9.3455 7.45712-7.8589 7.45712-6.3683 7.73838-5.2272 8.3089-4.43571 8.88748-3.64018 9.71517-3.24648 10.8-3.24648ZM7.45714-13.4518C8.15223-14.3598 8.91967-15.0348 9.75538-15.4768 10.5991-15.9148 11.5714-16.1357 12.6643-16.1357 14.6129-16.1357 16.208-15.3643 17.4535-13.8215 18.695-12.2786 19.3178-10.2897 19.3178-7.85892 19.3178-5.43612 18.695-3.4554 17.4535-1.91255 16.208-0.369689 14.6129 0.401739 12.6643 0.401739 11.5714 0.401739 10.5991 0.184773 9.75538-0.241118 8.91967-0.679063 8.15225-1.35804 7.45714-2.28222L7.45714-2.05714e-05 2.42681-2.05714e-05 2.42681-21.889 7.45714-21.889Z" fill="#0078d4"  fill-rule="nonzero" fill-opacity="1" transform="matrix(1 0 0 1.00002 786.25 -88.5892)"/><path d="M0.353571-15.7495 5.3839-15.7495 9.62676-5.0616 13.2268-15.7495 18.2571-15.7495 11.6357 1.49554C10.9687 3.23928 10.1933 4.46071 9.30533 5.15983 8.41336 5.86697 7.24819 6.22049 5.80181 6.22049L2.87676 6.22049 2.87676 2.90973 4.45171 2.90973C5.30751 2.90973 5.93028 2.7691 6.31599 2.49187 6.70974 2.22267 7.0151 1.74053 7.23206 1.04549L7.3767 0.611558Z" fill="#0078d4"  fill-rule="nonzero" fill-opacity="1" transform="matrix(1 0 0 1.00002 806.866 -88.5892)"/><path d="M21.5198-1.5589C20.1698-0.903991 18.7635-0.409783 17.309-0.0803314 15.8626 0.241097 14.3599 0.401811 12.809 0.401811 9.31351 0.401811 6.54521-0.570507 4.5001-2.52324 2.45098-4.4839 1.43043-7.13577 1.43043-10.4786 1.43043-13.8617 2.46703-16.5255 4.54824-18.4661 6.63748-20.4027 9.49022-21.375 13.1143-21.375 14.5045-21.375 15.8384-21.2384 17.116-20.9732 18.4018-20.7161 19.6112-20.3304 20.7481-19.8161L20.7481-15.4767C19.5669-16.1397 18.4018-16.6339 17.2446-16.9553 16.0875-17.2848 14.9303-17.4535 13.7732-17.4535 11.6075-17.4535 9.94011-16.8468 8.77495-15.6375 7.61781-14.4361 7.03923-12.7165 7.03923-10.4786 7.03923-8.26078 7.60174-6.54512 8.72671-5.33572 9.85176-4.12232 11.4468-3.51968 13.5159-3.51968 14.0704-3.51968 14.5928-3.55182 15.0748-3.61611 15.565-3.68843 15.999-3.80093 16.3766-3.9536L16.3766-8.0358 13.082-8.0358 13.082-11.6518 21.5195-11.6518Z" fill="#0078d4"  fill-rule="nonzero" fill-opacity="1" transform="matrix(1 0 0 1.00002 835.666 -88.5892)"/><path d="M14.1264-11.4593C13.6764-11.6602 13.2304-11.8129 12.7924-11.9093 12.3625-12.0138 11.9286-12.07 11.4907-12.07 10.1929-12.07 9.19646-11.6522 8.50145-10.8164 7.80234-9.98872 7.45683-8.8075 7.45683-7.26465L7.45683-0.00036 2.4265-0.00036 2.4265-15.7498 7.45683-15.7498 7.45683-13.1624C8.09969-14.1909 8.83903-14.9383 9.67464-15.4124 10.5184-15.8945 11.5269-16.1356 12.6961-16.1356 12.8648-16.1356 13.0496-16.1235 13.2425-16.1034 13.4434-16.0914 13.7327-16.0633 14.1104-16.0231Z" fill="#0078d4"  fill-rule="nonzero" fill-opacity="1" transform="matrix(1 0 0 1.00002 859.303 -88.5892)"/><path d="M18.145-7.92319 18.145-6.47681 6.3648-6.47681C6.49337-5.2956 6.91926-4.41165 7.65052-3.82505 8.37775-3.23443 9.40228-2.94112 10.7202-2.94112 11.7808-2.94112 12.8617-3.0938 13.9666-3.40718 15.0795-3.72861 16.2206-4.20272 17.3897-4.83752L17.3897-0.964327C16.2005-0.514327 15.0112-0.176832 13.8218 0.0481783 12.6326 0.281211 11.4433 0.40175 10.2539 0.40175 7.40129 0.40175 5.18338-0.321459 3.60031-1.76792 2.02536-3.2143 1.23778-5.24336 1.23778-7.85902 1.23778-10.4304 2.01323-12.4474 3.56811-13.9179 5.11899-15.3965 7.25246-16.1357 9.96459-16.1357 12.4395-16.1357 14.4204-15.3844 15.911-13.8857 17.3976-12.3951 18.1449-10.4063 18.1449-7.9232ZM12.9701-9.59462C12.9701-10.5468 12.6888-11.3143 12.1344-11.8929 11.5759-12.4795 10.8487-12.7768 9.94865-12.7768 8.97231-12.7768 8.18074-12.5036 7.57008-11.9571 6.95942-11.4107 6.57767-10.6232 6.42898-9.59462Z" fill="#0078d4"  fill-rule="nonzero" fill-opacity="1" transform="matrix(1 0 0 1.00002 873.506 -88.5892)"/><path d="M13.1307-2.66791C12.4437-1.75585 11.6844-1.08082 10.8485-0.642857 10.0128-0.212945 9.04053 2.28389e-16 7.93965 2.28389e-16 6.0191 2.28389e-16 4.43613-0.755362 3.1825-2.26605 1.92888-3.78483 1.30217-5.71341 1.30217-8.05176 1.30217-10.4063 1.92896-12.3348 3.1825-13.8375 4.43613-15.3482 6.0191-16.1035 7.93965-16.1035 9.04053-16.1035 10.0128-15.8825 10.8485-15.4446 11.6843-15.0147 12.4437-14.3397 13.1307-13.4195L13.1307-15.7499 18.1933-15.7499 18.1933-1.59056C18.1933 0.936638 17.3937 2.86922 15.7987 4.2112 14.1995 5.54916 11.8812 6.2201 8.83975 6.2201 7.86341 6.2201 6.91519 6.14376 5.99513 5.9951 5.07102 5.84242 4.14689 5.61341 3.2148 5.30402L3.2148 1.3826C4.10275 1.88483 4.96656 2.25849 5.80227 2.50765 6.64602 2.75274 7.49777 2.8773 8.35766 2.8773 10.005 2.8773 11.2103 2.51569 11.9737 1.80048 12.7451 1.08129 13.1308-0.0477566 13.1308-1.59061ZM9.81998-12.4714C8.77937-12.4714 7.96371-12.0857 7.37712-11.3143 6.79855-10.5509 6.50926-9.46605 6.50926-8.05176 6.50926-6.61341 6.78649-5.52055 7.34498-4.77319 7.91149-4.0339 8.73519-3.66429 9.81993-3.66429 10.8686-3.66429 11.6842-4.04197 12.2628-4.80538 12.8414-5.57681 13.1306-6.65763 13.1306-8.05176 13.1306-9.46605 12.8414-10.5509 12.2628-11.3143 11.6842-12.0857 10.8686-12.4714 9.81993-12.4714Z" fill="#0078d4"  fill-rule="nonzero" fill-opacity="1" transform="matrix(1 0 0 1.00002 893.041 -88.5892)"/><path d="M9.91605-12.5362C8.79912-12.5362 7.94726-12.1344 7.36066-11.3308 6.77004-10.5273 6.47673-9.37018 6.47673-7.85942 6.47673-6.34865 6.77004-5.19151 7.36066-4.38799 7.94727-3.59245 8.79902-3.19875 9.91605-3.19875 11.0089-3.19875 11.8446-3.5925 12.4232-4.38799 13.0098-5.19156 13.3071-6.34865 13.3071-7.85942 13.3071-9.37018 13.0098-10.5273 12.4232-11.3308 11.8446-12.1344 11.0089-12.5362 9.91605-12.5362ZM9.91605-16.1362C12.6241-16.1362 14.7415-15.401 16.2643-13.9345 17.7831-12.476 18.5465-10.451 18.5465-7.85952 18.5465-5.27606 17.7831-3.25101 16.2643-1.78457 14.7415-0.326057 12.6241 0.401143 9.91605 0.401143 7.19198 0.401143 5.06654-0.326088 3.53571-1.78457 2.00088-3.25111 1.23747-5.27606 1.23747-7.85952 1.23747-10.451 2.00087-12.4761 3.53571-13.9345 5.06654-15.401 7.19198-16.1362 9.91605-16.1362Z" fill="#0078d4"  fill-rule="nonzero" fill-opacity="1" transform="matrix(1 0 0 1.00002 913.653 -88.5892)"/><path d="M14.1264-11.4593C13.6764-11.6602 13.2304-11.8129 12.7924-11.9093 12.3625-12.0138 11.9286-12.07 11.4907-12.07 10.1929-12.07 9.19646-11.6522 8.50145-10.8164 7.80234-9.98872 7.45683-8.8075 7.45683-7.26465L7.45683-0.00036 2.4265-0.00036 2.4265-15.7498 7.45683-15.7498 7.45683-13.1624C8.09969-14.1909 8.83903-14.9383 9.67464-15.4124 10.5184-15.8945 11.5269-16.1356 12.6961-16.1356 12.8648-16.1356 13.0496-16.1235 13.2425-16.1034 13.4434-16.0914 13.7327-16.0633 14.1104-16.0231Z" fill="#0078d4"  fill-rule="nonzero" fill-opacity="1" transform="matrix(1 0 0 1.00002 933.441 -88.5892)"/><path d="M19.3022-1.15714C18.3057-0.642857 17.2651-0.257143 16.1844 0 15.1116 0.265176 13.9866 0.401781 12.8094 0.401781 9.31392 0.401781 6.54562-0.570538 4.50051-2.52327 2.45139-4.48393 1.43085-7.1358 1.43085-10.4787 1.43085-13.8295 2.45138-16.4813 4.50051-18.434 6.54562-20.3947 9.31392-21.3751 12.8094-21.3751 13.9866-21.3751 15.1117-21.2385 16.1844-20.9734 17.2652-20.7162 18.3058-20.3305 19.3022-19.8162L19.3022-15.4769C18.2937-16.1519 17.3013-16.6501 16.329-16.9715 15.3526-17.2929 14.3241-17.4536 13.2433-17.4536 11.3147-17.4536 9.79591-16.8309 8.69503-15.5893 7.59014-14.3559 7.03965-12.6523 7.03965-10.4786 7.03965-8.31293 7.5901-6.6094 8.69503-5.36782 9.79591-4.13435 11.3147-3.51958 13.2433-3.51958 14.3241-3.51958 15.3527-3.67226 16.329-3.98564 17.3013-4.30707 18.2938-4.8093 19.3022-5.49641Z" fill="#0078d4"  fill-rule="nonzero" fill-opacity="1" transform="matrix(1 0 0 1.00002 957.672 -88.5892)"/><path d="M14.1264-11.4593C13.6764-11.6602 13.2304-11.8129 12.7924-11.9093 12.3625-12.0138 11.9286-12.07 11.4907-12.07 10.1929-12.07 9.19646-11.6522 8.50145-10.8164 7.80234-9.98872 7.45683-8.8075 7.45683-7.26465L7.45683-0.00036 2.4265-0.00036 2.4265-15.7498 7.45683-15.7498 7.45683-13.1624C8.09969-14.1909 8.83903-14.9383 9.67464-15.4124 10.5184-15.8945 11.5269-16.1356 12.6961-16.1356 12.8648-16.1356 13.0496-16.1235 13.2425-16.1034 13.4434-16.0914 13.7327-16.0633 14.1104-16.0231Z" fill="#0078d4"  fill-rule="nonzero" fill-opacity="1" transform="matrix(1 0 0 1.00002 978.806 -88.5892)"/><path d="M18.145-7.92319 18.145-6.47681 6.3648-6.47681C6.49337-5.2956 6.91926-4.41165 7.65052-3.82505 8.37775-3.23443 9.40228-2.94112 10.7202-2.94112 11.7808-2.94112 12.8617-3.0938 13.9666-3.40718 15.0795-3.72861 16.2206-4.20272 17.3897-4.83752L17.3897-0.964327C16.2005-0.514327 15.0112-0.176832 13.8218 0.0481783 12.6326 0.281211 11.4433 0.40175 10.2539 0.40175 7.40129 0.40175 5.18338-0.321459 3.60031-1.76792 2.02536-3.2143 1.23778-5.24336 1.23778-7.85902 1.23778-10.4304 2.01323-12.4474 3.56811-13.9179 5.11899-15.3965 7.25246-16.1357 9.96459-16.1357 12.4395-16.1357 14.4204-15.3844 15.911-13.8857 17.3976-12.3951 18.1449-10.4063 18.1449-7.9232ZM12.9701-9.59462C12.9701-10.5468 12.6888-11.3143 12.1344-11.8929 11.5759-12.4795 10.8487-12.7768 9.94865-12.7768 8.97231-12.7768 8.18074-12.5036 7.57008-11.9571 6.95942-11.4107 6.57767-10.6232 6.42898-9.59462Z" fill="#0078d4"  fill-rule="nonzero" fill-opacity="1" transform="matrix(1 0 0 1.00002 993.009 -88.5892)"/><path d="M14.7209-15.2517 14.7209-11.4266C13.6481-11.8766 12.6075-12.2141 11.6031-12.4391 10.5946-12.6641 9.64646-12.7766 8.75849-12.7766 7.80224-12.7766 7.09107-12.6561 6.62102-12.423 6.15896-12.186 5.92994-11.8163 5.92994-11.3141 5.92994-10.9164 6.10673-10.611 6.46029-10.3981 6.81386-10.1811 7.44467-10.0204 8.35677-9.91592L9.24071-9.78735C11.8202-9.45387 13.5559-8.91146 14.4479-8.16416 15.3358-7.41282 15.7818-6.2396 15.7818-4.64449 15.7818-2.96103 15.159-1.69537 13.9175-0.851637 12.6841-0.0159223 10.8398 0.401986 8.38895 0.401986 7.33631 0.401986 6.25548 0.321629 5.14257 0.16091 4.03768 0.000195429 2.90059-0.244893 1.73543-0.578376L1.73543-4.40343C2.73186-3.90923 3.75235-3.53959 4.8051-3.29452 5.86576-3.05747 6.94257-2.94095 8.03543-2.94095 9.0198-2.94095 9.75911-3.07355 10.2532-3.34273 10.7434-3.61996 10.9925-4.02577 10.9925-4.56416 10.9925-5.01416 10.8197-5.34362 10.4782-5.56059 10.1327-5.78559 9.45368-5.95434 8.43714-6.07488L7.5532-6.18738C5.31122-6.46461 3.7443-6.98292 2.8443-7.74628 1.9443-8.50566 1.4943-9.65881 1.4943-11.2017 1.4943-12.8731 2.06082-14.1106 3.19782-14.9142 4.34293-15.7258 6.0987-16.1356 8.46925-16.1356 9.38934-16.1356 10.3576-16.0593 11.3781-15.9106 12.4067-15.77 13.5196-15.549 14.721-15.2517Z" fill="#0078d4"  fill-rule="nonzero" fill-opacity="1" transform="matrix(1 0 0 1.00002 1012.54 -88.5892)"/><path d="M18.2571-9.59462 18.2571 0 13.1946 0 13.1946-7.34462C13.1946-8.70264 13.1625-9.64286 13.0982-10.1571 13.0339-10.6714 12.9254-11.0491 12.7768-11.2982 12.5839-11.6197 12.3147-11.8688 11.9732-12.0536 11.6397-12.2344 11.258-12.3268 10.8321-12.3268 9.77945-12.3268 8.95577-11.917 8.35714-11.1054 7.75446-10.3018 7.45714-9.18082 7.45714-7.74648L7.45714-0.000102857 2.42681-0.000102857 2.42681-15.7496 7.45714-15.7496 7.45714-13.4513C8.21652-14.3594 9.02006-15.0344 9.86791-15.4764 10.7237-15.9143 11.6679-16.1353 12.6965-16.1353 14.5165-16.1353 15.8987-15.5728 16.8429-14.4479 17.783-13.3309 18.2571-11.7158 18.2571-9.59423Z" fill="#0078d4"  fill-rule="nonzero" fill-opacity="1" transform="matrix(1 0 0 1.00002 1029.68 -88.5892)"/><path d="M9.48219-7.08747C8.42955-7.08747 7.63797-6.91068 7.10362-6.55712 6.57728-6.20355 6.31613-5.67721 6.31613-4.98217 6.31613-4.33932 6.52907-3.83305 6.95899-3.47141 7.38488-3.11784 7.9755-2.94106 8.72689-2.94106 9.67913-2.94106 10.4787-3.27855 11.1215-3.95356 11.7724-4.63659 12.1019-5.4884 12.1019-6.50894L12.1019-7.08752ZM17.1644-8.98395 17.1644 0 12.1019 0 12.1019-2.33033C11.4269-1.37408 10.6635-0.67896 9.81967-0.241097 8.9719 0.184793 7.94335 0.40176 6.73395 0.40176 5.10274 0.40176 3.78082-0.068328 2.76429-1.01253 1.74375-1.96476 1.23747-3.20225 1.23747-4.72505 1.23747-6.56527 1.86828-7.91527 3.13395-8.77505 4.40763-9.64291 6.4045-10.0768 9.12857-10.0768L12.1018-10.0768 12.1018-10.4786C12.1018-11.2701 11.7844-11.8486 11.1535-12.2143 10.5187-12.588 9.53838-12.7768 8.21244-12.7768 7.12761-12.7768 6.12321-12.6683 5.19102-12.4554 4.26691-12.2384 3.41107-11.917 2.61959-11.4911L2.61959-15.3322C3.68838-15.5893 4.76508-15.7862 5.84992-15.9268 6.94278-16.0634 8.03563-16.1358 9.12849-16.1358 11.9651-16.1358 14.0142-15.5733 15.2678-14.4483 16.5295-13.3314 17.1643-11.5112 17.1643-8.984Z" fill="#0078d4"  fill-rule="nonzero" fill-opacity="1" transform="matrix(1 0 0 1.00002 1050.19 -88.5892)"/><path d="M14.1264-11.4593C13.6764-11.6602 13.2304-11.8129 12.7924-11.9093 12.3625-12.0138 11.9286-12.07 11.4907-12.07 10.1929-12.07 9.19646-11.6522 8.50145-10.8164 7.80234-9.98872 7.45683-8.8075 7.45683-7.26465L7.45683-0.00036 2.4265-0.00036 2.4265-15.7498 7.45683-15.7498 7.45683-13.1624C8.09969-14.1909 8.83903-14.9383 9.67464-15.4124 10.5184-15.8945 11.5269-16.1356 12.6961-16.1356 12.8648-16.1356 13.0496-16.1235 13.2425-16.1034 13.4434-16.0914 13.7327-16.0633 14.1104-16.0231Z" fill="#0078d4"  fill-rule="nonzero" fill-opacity="1" transform="matrix(1 0 0 1.00002 1069.62 -88.5892)"/><path d="M12.7769-21.889 12.7769-18.5783 9.99658-18.5783C9.28944-18.5783 8.7912-18.4497 8.50197-18.1926 8.22071-17.9354 8.08411-17.4854 8.08411-16.8426L8.08411-15.7497 12.3913-15.7497 12.3913-12.1497 8.08411-12.1497 8.08411-0.000205714 3.05378-0.000205714 3.05378-12.1497 0.546634-12.1497 0.546634-15.7497 3.05378-15.7497 3.05378-16.8426C3.05378-18.5542 3.52789-19.8238 4.48411-20.6515 5.43634-21.4751 6.91894-21.8889 8.93587-21.8889Z" fill="#0078d4"  fill-rule="nonzero" fill-opacity="1" transform="matrix(1 0 0 1.00002 648 -59.7888)"/><path d="M14.1264-11.4593C13.6764-11.6602 13.2304-11.8129 12.7924-11.9093 12.3625-12.0138 11.9286-12.07 11.4907-12.07 10.1929-12.07 9.19646-11.6522 8.50145-10.8164 7.80234-9.98872 7.45683-8.8075 7.45683-7.26465L7.45683-0.00036 2.4265-0.00036 2.4265-15.7498 7.45683-15.7498 7.45683-13.1624C8.09969-14.1909 8.83903-14.9383 9.67464-15.4124 10.5184-15.8945 11.5269-16.1356 12.6961-16.1356 12.8648-16.1356 13.0496-16.1235 13.2425-16.1034 13.4434-16.0914 13.7327-16.0633 14.1104-16.0231Z" fill="#0078d4"  fill-rule="nonzero" fill-opacity="1" transform="matrix(1 0 0 1.00002 660.532 -59.7888)"/><path d="M9.91605-12.5362C8.79912-12.5362 7.94726-12.1344 7.36066-11.3308 6.77004-10.5273 6.47673-9.37018 6.47673-7.85942 6.47673-6.34865 6.77004-5.19151 7.36066-4.38799 7.94727-3.59245 8.79902-3.19875 9.91605-3.19875 11.0089-3.19875 11.8446-3.5925 12.4232-4.38799 13.0098-5.19156 13.3071-6.34865 13.3071-7.85942 13.3071-9.37018 13.0098-10.5273 12.4232-11.3308 11.8446-12.1344 11.0089-12.5362 9.91605-12.5362ZM9.91605-16.1362C12.6241-16.1362 14.7415-15.401 16.2643-13.9345 17.7831-12.476 18.5465-10.451 18.5465-7.85952 18.5465-5.27606 17.7831-3.25101 16.2643-1.78457 14.7415-0.326057 12.6241 0.401143 9.91605 0.401143 7.19198 0.401143 5.06654-0.326088 3.53571-1.78457 2.00088-3.25111 1.23747-5.27606 1.23747-7.85952 1.23747-10.451 2.00087-12.4761 3.53571-13.9345 5.06654-15.401 7.19198-16.1362 9.91605-16.1362Z" fill="#0078d4"  fill-rule="nonzero" fill-opacity="1" transform="matrix(1 0 0 1.00002 674.735 -59.7888)"/><path d="M17.0198-13.1307C17.6506-14.1031 18.406-14.8504 19.2858-15.3647 20.1617-15.879 21.126-16.1361 22.1787-16.1361 23.9867-16.1361 25.3649-15.5736 26.309-14.4487 27.2612-13.3317 27.7393-11.7166 27.7393-9.59503L27.7393-0.000411429 22.6768-0.000411429 22.6768-8.21294 22.6768-8.58259C22.6848-8.71919 22.6929-8.91205 22.6929-9.16116 22.6929-10.2741 22.5241-11.0777 22.1947-11.5719 21.8732-12.0742 21.3469-12.3273 20.6197-12.3273 19.6635-12.3273 18.9242-11.9295 18.4019-11.1381 17.8756-10.3546 17.6064-9.2175 17.5983-7.73091L17.5983-0.000576 12.5358-0.000576 12.5358-8.2131C12.5358-9.95684 12.3831-11.0779 12.0858-11.572 11.7845-12.0742 11.2501-12.3274 10.4787-12.3274 9.51438-12.3274 8.76702-11.9296 8.24471-11.1381 7.71837-10.3547 7.45722-9.22561 7.45722-7.74704L7.45722-0.000658286 2.39469-0.000658286 2.39469-15.7501 7.45722-15.7501 7.45722-13.4519C8.07597-14.3398 8.78315-15.0108 9.57865-15.4608 10.3822-15.9108 11.2661-16.1358 12.2304-16.1358 13.3233-16.1358 14.2876-15.8706 15.1233-15.3483 15.959-14.822 16.5898-14.0827 17.0197-13.1305Z" fill="#0078d4"  fill-rule="nonzero" fill-opacity="1" transform="matrix(1 0 0 1.00002 694.519 -59.7888)"/><path d="M7.92319-20.2176 7.92319-15.7497 13.1143-15.7497 13.1143-12.1497 7.92319-12.1497 7.92319-5.46398C7.92319-4.73273 8.06783-4.24255 8.35712-3.98541 8.64642-3.72826 9.21695-3.59969 10.0768-3.59969L12.6643-3.59969 12.6643 0.000308571 8.35712 0.000308571C6.36427 0.000308571 4.94998-0.409515 4.11427-1.23717 3.28658-2.07288 2.87679-3.47914 2.87679-5.46398L2.87679-12.1497 0.385694-12.1497 0.385694-15.7497 2.87679-15.7497 2.87679-20.2176Z" fill="#0078d4"  fill-rule="nonzero" fill-opacity="1" transform="matrix(1 0 0 1.00002 734.557 -59.7888)"/><path d="M18.2571-9.59462 18.2571 0 13.1946 0 13.1946-7.31253C13.1946-8.69472 13.1625-9.64286 13.0982-10.1571 13.0339-10.6714 12.9254-11.0491 12.7768-11.2982 12.5839-11.6197 12.3147-11.8688 11.9732-12.0536 11.6397-12.2344 11.258-12.3268 10.8321-12.3268 9.77945-12.3268 8.95577-11.917 8.35714-11.1054 7.75446-10.3018 7.45714-9.18082 7.45714-7.74648L7.45714-0.000102857 2.42681-0.000102857 2.42681-21.8891 7.45714-21.8891 7.45714-13.4517C8.21652-14.3597 9.02006-15.0347 9.86791-15.4767 10.7237-15.9147 11.6679-16.1356 12.6965-16.1356 14.5165-16.1356 15.8987-15.5731 16.8429-14.4482 17.783-13.3312 18.2571-11.7161 18.2571-9.59454Z" fill="#0078d4"  fill-rule="nonzero" fill-opacity="1" transform="matrix(1 0 0 1.00002 748.322 -59.7888)"/><path d="M18.145-7.92319 18.145-6.47681 6.3648-6.47681C6.49337-5.2956 6.91926-4.41165 7.65052-3.82505 8.37775-3.23443 9.40228-2.94112 10.7202-2.94112 11.7808-2.94112 12.8617-3.0938 13.9666-3.40718 15.0795-3.72861 16.2206-4.20272 17.3897-4.83752L17.3897-0.964327C16.2005-0.514327 15.0112-0.176832 13.8218 0.0481783 12.6326 0.281211 11.4433 0.40175 10.2539 0.40175 7.40129 0.40175 5.18338-0.321459 3.60031-1.76792 2.02536-3.2143 1.23778-5.24336 1.23778-7.85902 1.23778-10.4304 2.01323-12.4474 3.56811-13.9179 5.11899-15.3965 7.25246-16.1357 9.96459-16.1357 12.4395-16.1357 14.4204-15.3844 15.911-13.8857 17.3976-12.3951 18.1449-10.4063 18.1449-7.9232ZM12.9701-9.59462C12.9701-10.5468 12.6888-11.3143 12.1344-11.8929 11.5759-12.4795 10.8487-12.7768 9.94865-12.7768 8.97231-12.7768 8.18074-12.5036 7.57008-11.9571 6.95942-11.4107 6.57767-10.6232 6.42898-9.59462Z" fill="#0078d4"  fill-rule="nonzero" fill-opacity="1" transform="matrix(1 0 0 1.00002 768.825 -59.7888)"/><path d="M2.65176-20.989 8.69462-20.989 16.3286-6.58903 16.3286-20.989 21.4554-20.989 21.4554 0 15.4125 0 7.77857-14.4 7.77857 0 2.65176 0Z" fill="#0078d4"  fill-rule="nonzero" fill-opacity="1" transform="matrix(1 0 0 1.00002 798.384 -59.7888)"/><path d="M9.91605-12.5362C8.79912-12.5362 7.94726-12.1344 7.36066-11.3308 6.77004-10.5273 6.47673-9.37018 6.47673-7.85942 6.47673-6.34865 6.77004-5.19151 7.36066-4.38799 7.94727-3.59245 8.79902-3.19875 9.91605-3.19875 11.0089-3.19875 11.8446-3.5925 12.4232-4.38799 13.0098-5.19156 13.3071-6.34865 13.3071-7.85942 13.3071-9.37018 13.0098-10.5273 12.4232-11.3308 11.8446-12.1344 11.0089-12.5362 9.91605-12.5362ZM9.91605-16.1362C12.6241-16.1362 14.7415-15.401 16.2643-13.9345 17.7831-12.476 18.5465-10.451 18.5465-7.85952 18.5465-5.27606 17.7831-3.25101 16.2643-1.78457 14.7415-0.326057 12.6241 0.401143 9.91605 0.401143 7.19198 0.401143 5.06654-0.326088 3.53571-1.78457 2.00088-3.25111 1.23747-5.27606 1.23747-7.85952 1.23747-10.451 2.00087-12.4761 3.53571-13.9345 5.06654-15.401 7.19198-16.1362 9.91605-16.1362Z" fill="#0078d4"  fill-rule="nonzero" fill-opacity="1" transform="matrix(1 0 0 1.00002 822.487 -59.7888)"/><path d="M2.25-6.13934 2.25-15.7501 7.31253-15.7501 7.31253-14.1752C7.31253-13.3153 7.30449-12.2466 7.29645-10.9609 7.2844-9.67515 7.28038-8.81537 7.28038-8.38944 7.28038-7.11175 7.31253-6.1957 7.37681-5.6412 7.44913-5.08272 7.56164-4.68094 7.71431-4.43582 7.92725-4.10233 8.20047-3.84519 8.53395-3.66439 8.86342-3.49162 9.24512-3.40725 9.67505-3.40725 10.7237-3.40725 11.5474-3.80903 12.15-4.61263 12.7487-5.4162 13.05-6.53318 13.05-7.97153L13.05-15.7501 18.0803-15.7501 18.0803-0.000617143 13.05-0.000617143 13.05-2.28281C12.2866-1.3587 11.4831-0.67968 10.6392-0.241714 9.79147 0.184176 8.85528 0.401143 7.82671 0.401143 6.01467 0.401143 4.63248-0.153319 3.68033-1.27029 2.72408-2.3832 2.25-4.00649 2.25-6.13995Z" fill="#0078d4"  fill-rule="nonzero" fill-opacity="1" transform="matrix(1 0 0 1.00002 842.275 -59.7888)"/><path d="M18.2571-9.59462 18.2571 0 13.1946 0 13.1946-7.34462C13.1946-8.70264 13.1625-9.64286 13.0982-10.1571 13.0339-10.6714 12.9254-11.0491 12.7768-11.2982 12.5839-11.6197 12.3147-11.8688 11.9732-12.0536 11.6397-12.2344 11.258-12.3268 10.8321-12.3268 9.77945-12.3268 8.95577-11.917 8.35714-11.1054 7.75446-10.3018 7.45714-9.18082 7.45714-7.74648L7.45714-0.000102857 2.42681-0.000102857 2.42681-15.7496 7.45714-15.7496 7.45714-13.4513C8.21652-14.3594 9.02006-15.0344 9.86791-15.4764 10.7237-15.9143 11.6679-16.1353 12.6965-16.1353 14.5165-16.1353 15.8987-15.5728 16.8429-14.4479 17.783-13.3309 18.2571-11.7158 18.2571-9.59423Z" fill="#0078d4"  fill-rule="nonzero" fill-opacity="1" transform="matrix(1 0 0 1.00002 862.779 -59.7888)"/><path d="M2.65176-20.989 11.6357-20.989C14.3036-20.989 16.3486-20.3944 17.7751-19.2051 19.2094-18.0239 19.9287-16.3363 19.9287-14.1425 19.9287-11.9448 19.2095-10.2533 17.7751-9.06398 16.3487-7.87474 14.3036-7.28002 11.6357-7.28002L8.05176-7.28002 8.05176 0.000308571 2.65176 0.000308571ZM8.05176-17.0676 8.05176-11.2016 11.0571-11.2016C12.1058-11.2016 12.9134-11.4587 13.484-11.973 14.0625-12.4873 14.3518-13.2105 14.3518-14.1427 14.3518-15.0828 14.0625-15.8061 13.484-16.3123 12.9134-16.8146 12.1059-17.0677 11.0571-17.0677Z" fill="#0078d4"  fill-rule="nonzero" fill-opacity="1" transform="matrix(1 0 0 1.00002 893.306 -59.7888)"/><path d="M14.1264-11.4593C13.6764-11.6602 13.2304-11.8129 12.7924-11.9093 12.3625-12.0138 11.9286-12.07 11.4907-12.07 10.1929-12.07 9.19646-11.6522 8.50145-10.8164 7.80234-9.98872 7.45683-8.8075 7.45683-7.26465L7.45683-0.00036 2.4265-0.00036 2.4265-15.7498 7.45683-15.7498 7.45683-13.1624C8.09969-14.1909 8.83903-14.9383 9.67464-15.4124 10.5184-15.8945 11.5269-16.1356 12.6961-16.1356 12.8648-16.1356 13.0496-16.1235 13.2425-16.1034 13.4434-16.0914 13.7327-16.0633 14.1104-16.0231Z" fill="#0078d4"  fill-rule="nonzero" fill-opacity="1" transform="matrix(1 0 0 1.00002 914.416 -59.7888)"/><path d="M9.91605-12.5362C8.79912-12.5362 7.94726-12.1344 7.36066-11.3308 6.77004-10.5273 6.47673-9.37018 6.47673-7.85942 6.47673-6.34865 6.77004-5.19151 7.36066-4.38799 7.94727-3.59245 8.79902-3.19875 9.91605-3.19875 11.0089-3.19875 11.8446-3.5925 12.4232-4.38799 13.0098-5.19156 13.3071-6.34865 13.3071-7.85942 13.3071-9.37018 13.0098-10.5273 12.4232-11.3308 11.8446-12.1344 11.0089-12.5362 9.91605-12.5362ZM9.91605-16.1362C12.6241-16.1362 14.7415-15.401 16.2643-13.9345 17.7831-12.476 18.5465-10.451 18.5465-7.85952 18.5465-5.27606 17.7831-3.25101 16.2643-1.78457 14.7415-0.326057 12.6241 0.401143 9.91605 0.401143 7.19198 0.401143 5.06654-0.326088 3.53571-1.78457 2.00088-3.25111 1.23747-5.27606 1.23747-7.85952 1.23747-10.451 2.00087-12.4761 3.53571-13.9345 5.06654-15.401 7.19198-16.1362 9.91605-16.1362Z" fill="#0078d4"  fill-rule="nonzero" fill-opacity="1" transform="matrix(1 0 0 1.00002 928.615 -59.7888)"/><path d="M2.42681-15.7495 7.45714-15.7495 7.45714-0.289029C7.45714 1.82037 6.94688 3.43152 5.93033 4.54845 4.92185 5.66136 3.45538 6.21987 1.52681 6.21987L-0.964286 6.21987-0.964286 2.90911-0.080352 2.90911C0.871879 2.90911 1.52679 2.69214 1.88031 2.26625 2.24192 1.83634 2.42674 0.984549 2.42674-0.289131ZM2.42681-21.8888 7.45714-21.8888 7.45714-17.7745 2.42681-17.7745Z" fill="#0078d4"  fill-rule="nonzero" fill-opacity="1" transform="matrix(1 0 0 1.00002 948.403 -59.7888)"/><path d="M18.145-7.92319 18.145-6.47681 6.3648-6.47681C6.49337-5.2956 6.91926-4.41165 7.65052-3.82505 8.37775-3.23443 9.40228-2.94112 10.7202-2.94112 11.7808-2.94112 12.8617-3.0938 13.9666-3.40718 15.0795-3.72861 16.2206-4.20272 17.3897-4.83752L17.3897-0.964327C16.2005-0.514327 15.0112-0.176832 13.8218 0.0481783 12.6326 0.281211 11.4433 0.40175 10.2539 0.40175 7.40129 0.40175 5.18338-0.321459 3.60031-1.76792 2.02536-3.2143 1.23778-5.24336 1.23778-7.85902 1.23778-10.4304 2.01323-12.4474 3.56811-13.9179 5.11899-15.3965 7.25246-16.1357 9.96459-16.1357 12.4395-16.1357 14.4204-15.3844 15.911-13.8857 17.3976-12.3951 18.1449-10.4063 18.1449-7.9232ZM12.9701-9.59462C12.9701-10.5468 12.6888-11.3143 12.1344-11.8929 11.5759-12.4795 10.8487-12.7768 9.94865-12.7768 8.97231-12.7768 8.18074-12.5036 7.57008-11.9571 6.95942-11.4107 6.57767-10.6232 6.42898-9.59462Z" fill="#0078d4"  fill-rule="nonzero" fill-opacity="1" transform="matrix(1 0 0 1.00002 958.275 -59.7888)"/><path d="M15.1395-15.2517 15.1395-11.1534C14.4645-11.6235 13.7775-11.9731 13.0824-12.198 12.3953-12.423 11.6842-12.5355 10.9449-12.5355 9.53866-12.5355 8.4418-12.1217 7.65031-11.2981 6.86683-10.4824 6.47712-9.33739 6.47712-7.85872 6.47712-6.38817 6.86686-5.24306 7.65031-4.41938 8.44182-3.60375 9.53866-3.19795 10.9449-3.19795 11.7244-3.19795 12.4717-3.31046 13.1789-3.53545 13.886-3.76848 14.5369-4.11804 15.1395-4.58006L15.1395-0.465778C14.3561-0.176493 13.5565 0.0364526 12.7449 0.177079 11.9414 0.325738 11.1257 0.402079 10.3021 0.402079 7.46146 0.402079 5.23954-0.325152 3.6324-1.78364 2.03328-3.23814 1.23778-5.26309 1.23778-7.85858 1.23778-10.4621 2.03332-12.4912 3.6324-13.9497 5.23954-15.4042 7.46146-16.1354 10.3021-16.1354 11.1257-16.1354 11.9414-16.0591 12.7449-15.9104 13.5485-15.7698 14.344-15.5488 15.1395-15.2515Z" fill="#0078d4"  fill-rule="nonzero" fill-opacity="1" transform="matrix(1 0 0 1.00002 977.81 -59.7888)"/><path d="M7.92319-20.2176 7.92319-15.7497 13.1143-15.7497 13.1143-12.1497 7.92319-12.1497 7.92319-5.46398C7.92319-4.73273 8.06783-4.24255 8.35712-3.98541 8.64642-3.72826 9.21695-3.59969 10.0768-3.59969L12.6643-3.59969 12.6643 0.000308571 8.35712 0.000308571C6.36427 0.000308571 4.94998-0.409515 4.11427-1.23717 3.28658-2.07288 2.87679-3.47914 2.87679-5.46398L2.87679-12.1497 0.385694-12.1497 0.385694-15.7497 2.87679-15.7497 2.87679-20.2176Z" fill="#0078d4"  fill-rule="nonzero" fill-opacity="1" transform="matrix(1 0 0 1.00002 994.878 -59.7888)"/></g></g></g></g></svg>