<svg width="688" height="574" xmlns="http://www.w3.org/2000/svg" xmlns:xlink="http://www.w3.org/1999/xlink" xml:space="preserve" overflow="hidden"><defs><clipPath id="clip0"><rect x="-564" y="0" width="688" height="574"/></clipPath><clipPath id="clip1"><rect x="-563" y="0" width="686" height="574"/></clipPath><clipPath id="clip2"><rect x="-563" y="0" width="687" height="574"/></clipPath></defs><g clip-path="url(#clip0)" transform="translate(564 0)"><g clip-path="url(#clip1)"><g clip-path="url(#clip2)"><path d="M561.97 166.434C520.734 103.875 443.534 61.8449 369.867 61.8449 301.572 61.8449 238.364 93.0141 196.452 147.359L169.74 126.758C192.887 96.7498 222.919 71.9163 256.603 54.9501 291.953 37.1409 330.061 28.1139 369.869 28.1139 454.402 28.1139 542.923 76.2411 590.14 147.866Z" fill="#000000" fill-rule="nonzero" fill-opacity="1" transform="matrix(1.00131 0 0 1 -597.392 -4.38422e-14)"/><path d="M576.054 174.011 529.762 174.011 529.762 140.28 563.027 140.28 571.52 107.737 604.159 116.254 592.377 161.407C590.434 168.828 583.728 174.012 576.054 174.012Z" fill="#000000" fill-rule="nonzero" fill-opacity="1" transform="matrix(1.00131 0 0 1 -597.392 -4.38422e-14)"/><path d="M435.731 525.826 425.656 493.632C520.405 463.977 589.17 375.134 589.17 282.387 589.17 258.936 585.532 235.858 578.36 213.796L610.437 203.367C618.709 228.806 622.901 255.389 622.901 282.386 622.901 337.168 603.767 390.029 567.57 435.251 533.622 477.673 486.8 509.834 435.728 525.82Z" fill="#000000" fill-rule="nonzero" fill-opacity="1" transform="matrix(1.00131 0 0 1 -597.392 -4.38422e-14)"/><path d="M470.015 546.067 423.731 525.085C415.824 521.499 411.93 512.5 414.732 504.285L430.449 458.165 462.378 469.048 451.596 500.687 483.947 515.352Z" fill="#000000" fill-rule="nonzero" fill-opacity="1" transform="matrix(1.00131 0 0 1 -597.392 -4.38422e-14)"/><path d="M369.867 536.661C302.259 536.661 238.703 510.202 190.901 462.154 143.126 414.131 116.817 350.286 116.817 282.376 116.817 250.609 131.341 212.733 141.942 185.073L143.348 181.403 174.854 193.45 173.436 197.148C163.775 222.347 150.543 256.857 150.543 282.376 150.543 403.99 248.926 502.925 369.858 502.925 372.877 502.925 375.933 502.861 378.937 502.74L380.318 536.444C376.861 536.588 373.339 536.66 369.862 536.66Z" fill="#000000" fill-rule="nonzero" fill-opacity="1" transform="matrix(1.00131 0 0 1 -597.392 -4.38422e-14)"/><path d="M166.671 238.621 151.021 208.467 119.482 220.285 107.648 188.698 153.185 171.635C161.176 168.643 170.143 172.089 174.07 179.658L196.606 223.083Z" fill="#000000" fill-rule="nonzero" fill-opacity="1" transform="matrix(1.00131 0 0 1 -597.392 -4.38422e-14)"/><path d="M376.477 446.145C373.979 446.145 371.473 445.591 369.152 444.47L232.828 378.738C226.993 375.927 223.287 370.02 223.287 363.548L223.291 212.112C223.291 206.149 226.443 200.627 231.575 197.591 236.711 194.559 243.068 194.459 248.293 197.338L384.648 272.431 368.376 301.978 257.023 240.655 257.023 352.955 359.623 402.428 359.635 374.503 393.366 374.515 393.346 429.284C393.342 435.087 390.362 440.48 385.447 443.56 382.712 445.275 379.596 446.142 376.472 446.142Z" fill="#000000" fill-rule="nonzero" fill-opacity="1" transform="matrix(1.00131 0 0 1 -597.392 -4.38422e-14)"/><path d="M359.638 324.552 393.369 324.552 393.369 355.272 359.638 355.272Z" fill="#000000" fill-rule="nonzero" fill-opacity="1" transform="matrix(1.00131 0 0 1 -597.392 -4.38422e-14)"/><path d="M384.331 444.469 369.682 414.086 496.455 352.952 496.455 240.652 385.102 301.975 368.83 272.428 505.185 197.335C510.41 194.456 516.767 194.552 521.903 197.588 527.039 200.624 530.187 206.146 530.187 212.109L530.187 363.544C530.187 370.022 526.48 375.925 520.646 378.735Z" fill="#000000" fill-rule="nonzero" fill-opacity="1" transform="matrix(1.00131 0 0 1 -597.392 -4.38422e-14)"/><path d="M376.508 304.074C373.705 304.074 370.906 303.375 368.372 301.982L232.017 226.889C226.487 223.845 223.122 217.966 223.291 211.658 223.464 205.35 227.142 199.663 232.828 196.925L369.183 131.221C373.801 128.996 379.186 128.992 383.804 131.209L520.622 196.913C526.32 199.651 530.006 205.342 530.179 211.658 530.352 217.975 526.974 223.862 521.433 226.902L384.615 301.995C382.098 303.38 379.303 304.075 376.508 304.075ZM276.936 213.116 376.524 267.962 476.449 213.116 376.524 165.125Z" fill="#000000" fill-rule="nonzero" fill-opacity="1" transform="matrix(1.00131 0 0 1 -597.392 -4.38422e-14)"/><path d="M3.7586-0.224877C3.56585-0.128501 3.36105-0.0522022 3.14822 0 2.94342 0.0522032 2.73059 0.080313 2.50572 0.080313 1.81904 0.080313 1.27293-0.10441 0.867278-0.481883 0.469727-0.867386 0.272967-1.38541 0.272967-2.03993 0.272967-2.70251 0.469737-3.22049 0.867278-3.59798 1.27286-3.98348 1.81899-4.17623 2.50572-4.17623 2.73059-4.17623 2.94342-4.14812 3.14822-4.09592 3.36105-4.0397 3.56585-3.96742 3.7586-3.87104L3.7586-3.01973C3.56585-3.14823 3.3731-3.24461 3.18034-3.30886 2.99562-3.37311 2.79886-3.40523 2.58603-3.40523 2.20856-3.40523 1.9114-3.28075 1.68653-3.03579 1.46968-2.79886 1.36528-2.46556 1.36528-2.03991 1.36528-1.62228 1.46968-1.28898 1.68653-1.04402 1.9114-0.807099 2.20856-0.690646 2.58603-0.690646 2.79886-0.690646 2.99563-0.714739 3.18034-0.770959 3.3731-0.835209 3.56585-0.935605 3.7586-1.07615Z" fill="#000000" fill-rule="nonzero" fill-opacity="1" transform="matrix(1.00131 0 0 1 -525.337 592.55)"/><path d="M2.76277-2.23273C2.67442-2.27289 2.59009-2.30501 2.50577-2.3291 2.41742-2.34918 2.33309-2.36123 2.24877-2.36123 1.99176-2.36123 1.79098-2.27289 1.65445-2.10423 1.52595-1.9436 1.4617-1.7107 1.4617-1.41353L1.4617-2.05601e-05 0.465821-2.05601e-05 0.465821-3.068 1.4617-3.068 1.4617-2.57006C1.57816-2.77084 1.7187-2.91541 1.87933-3.00375 2.04799-3.10013 2.24878-3.14831 2.47364-3.14831L2.58609-3.14831C2.62624-3.14831 2.68246-3.14028 2.74671-3.13225Z" fill="#000000" fill-rule="nonzero" fill-opacity="1" transform="matrix(1.00131 0 0 1 -521.207 592.55)"/><path d="M3.53377-1.54201 3.53377-1.26895 1.2368-1.26895C1.26892-1.03203 1.35325-0.855343 1.4938-0.73889 1.63033-0.630466 1.83111-0.578264 2.08811-0.578264 2.30094-0.578264 2.51376-0.602359 2.73061-0.658577 2.94344-0.722828 3.16431-0.819203 3.38917-0.947704L3.38917-0.192756C3.1643-0.0963808 2.93139-0.0241016 2.69848 0.0160523 2.46155 0.0562083 2.23267 0.0803028 2.00778 0.0803028 1.4496 0.0803028 1.01592-0.0562268 0.706734-0.337325 0.393511-0.626452 0.240924-1.02802 0.240924-1.54205 0.240924-2.03195 0.389502-2.42549 0.690677-2.71459 0.999881-3.00372 1.41751-3.14829 1.94361-3.14829 2.42549-3.14829 2.81099-3.00373 3.10012-2.71459 3.38925-2.42545 3.53381-2.03193 3.53381-1.54205ZM2.53789-1.87932C2.53789-2.06002 2.47766-2.20459 2.3612-2.31302 2.25277-2.42947 2.11223-2.48971 1.94357-2.48971 1.75082-2.48971 1.59421-2.43349 1.47776-2.32908 1.35729-2.22066 1.28501-2.07208 1.25288-1.87933Z" fill="#000000" fill-rule="nonzero" fill-opacity="1" transform="matrix(1.00131 0 0 1 -518.429 592.55)"/><path d="M1.84723-1.38144C1.64243-1.38144 1.48582-1.34128 1.38142-1.26899 1.28504-1.20474 1.23686-1.10034 1.23686-0.963798 1.23686-0.843325 1.273-0.74695 1.3493-0.674671 1.43363-0.61042 1.55008-0.578295 1.70268-0.578295 1.88338-0.578295 2.03999-0.642545 2.16849-0.771046 2.29699-0.899547 2.36124-1.06419 2.36124-1.26899L2.36124-1.38144ZM3.35716-1.75088 3.35716-8.22405e-05 2.36128-8.22405e-05 2.36128-0.449835C2.23278-0.265113 2.08018-0.132603 1.91153-0.0482752 1.7509 0.0360532 1.55012 0.0802257 1.31722 0.0802257 0.995964 0.0802257 0.730933-0.0081192 0.530153-0.192834 0.337402-0.385585 0.241026-0.626529 0.241026-0.915646 0.241026-1.27705 0.361499-1.5461 0.610472-1.71878 0.855425-1.88743 1.24495-1.97578 1.78302-1.97578L2.36127-1.97578 2.36127-2.04003C2.36127-2.20065 2.29702-2.31309 2.16852-2.37734 2.04805-2.44962 1.86332-2.48978 1.60632-2.48978 1.38947-2.48978 1.19271-2.46569 1.01201-2.42553 0.827289-2.38136 0.662653-2.32113 0.514065-2.24884L0.514065-2.98772C0.714845-3.03992 0.923664-3.07606 1.14051-3.10016 1.35334-3.13229 1.56617-3.14835 1.78302-3.14835 2.33717-3.14835 2.73874-3.0359 2.98774-2.81104 3.23269-2.59419 3.35718-2.24081 3.35718-1.75096Z" fill="#000000" fill-rule="nonzero" fill-opacity="1" transform="matrix(1.00131 0 0 1 -514.613 592.55)"/><path d="M1.54201-3.95145 1.54201-3.068 2.55396-3.068 2.55396-2.37731 1.54201-2.37731 1.54201-1.06022C1.54201-0.919676 1.5661-0.8233 1.62232-0.771098 1.68657-0.726925 1.80303-0.706847 1.9757-0.706847L2.47365-0.706847 2.47365-9.25206e-05 1.63839-9.25206e-05C1.24084-9.25206e-05 0.963762-0.0804056 0.803136-0.241037 0.642509-0.401668 0.562191-0.674732 0.562191-1.06023L0.562191-2.37732 0.080313-2.37732 0.080313-3.06801 0.562191-3.06801 0.562191-3.95146Z" fill="#000000" fill-rule="nonzero" fill-opacity="1" transform="matrix(1.00131 0 0 1 -510.813 592.55)"/><path d="M3.53377-1.54201 3.53377-1.26895 1.2368-1.26895C1.26892-1.03203 1.35325-0.855343 1.4938-0.73889 1.63033-0.630466 1.83111-0.578264 2.08811-0.578264 2.30094-0.578264 2.51376-0.602359 2.73061-0.658577 2.94344-0.722828 3.16431-0.819203 3.38917-0.947704L3.38917-0.192756C3.1643-0.0963808 2.93139-0.0241016 2.69848 0.0160523 2.46155 0.0562083 2.23267 0.0803028 2.00778 0.0803028 1.4496 0.0803028 1.01592-0.0562268 0.706734-0.337325 0.393511-0.626452 0.240924-1.02802 0.240924-1.54205 0.240924-2.03195 0.389502-2.42549 0.690677-2.71459 0.999881-3.00372 1.41751-3.14829 1.94361-3.14829 2.42549-3.14829 2.81099-3.00373 3.10012-2.71459 3.38925-2.42545 3.53381-2.03193 3.53381-1.54205ZM2.53789-1.87932C2.53789-2.06002 2.47766-2.20459 2.3612-2.31302 2.25277-2.42947 2.11223-2.48971 1.94357-2.48971 1.75082-2.48971 1.59421-2.43349 1.47776-2.32908 1.35729-2.22066 1.28501-2.07208 1.25288-1.87933Z" fill="#000000" fill-rule="nonzero" fill-opacity="1" transform="matrix(1.00131 0 0 1 -508.123 592.55)"/><path d="M2.57002-2.61823 2.57002-4.27271 3.54983-4.27271 3.54983-0.000102801 2.57002-0.000102801 2.57002-0.449856C2.42947-0.265133 2.28089-0.132623 2.12026-0.0482958 1.95964 0.0360327 1.77091 0.0802051 1.55807 0.0802051 1.17257 0.0802051 0.855333-0.0683727 0.610369-0.369548 0.373444-0.666704 0.256991-1.06025 0.256991-1.54209 0.256991-2.01192 0.373444-2.39743 0.610369-2.6986 0.855322-2.99576 1.17257-3.14835 1.55807-3.14835 1.75885-3.14835 1.94357-3.10418 2.1042-3.01985 2.27285-2.93151 2.42947-2.799 2.57001-2.61829ZM1.91146-0.626467C2.12428-0.626467 2.28491-0.69875 2.39333-0.851344 2.50979-1.01197 2.57003-1.24087 2.57003-1.54204 2.57003-1.83117 2.50979-2.04802 2.39333-2.2006 2.28491-2.36123 2.12428-2.44155 1.91146-2.44155 1.70666-2.44155 1.54603-2.36123 1.42958-2.2006 1.32115-2.04801 1.26895-1.83116 1.26895-1.54204 1.26895-1.24087 1.32115-1.01198 1.42958-0.851344 1.54603-0.698747 1.70666-0.626467 1.91146-0.626467Z" fill="#000000" fill-rule="nonzero" fill-opacity="1" transform="matrix(1.00131 0 0 1 -504.303 592.55)"/><path d="M2.10423-0.626447C2.31706-0.626447 2.47768-0.698729 2.58611-0.851323 2.70256-1.01195 2.7628-1.24085 2.7628-1.54202 2.7628-1.83115 2.70256-2.048 2.58611-2.20058 2.47768-2.36121 2.31706-2.44153 2.10423-2.44153 1.89943-2.44153 1.7388-2.36121 1.62235-2.20058 1.51393-2.04799 1.46172-1.83114 1.46172-1.54202 1.46172-1.24085 1.51393-1.01196 1.62235-0.851323 1.7388-0.698726 1.89943-0.626447 2.10423-0.626447ZM1.46172-2.61821C1.59022-2.79891 1.73478-2.93143 1.89542-3.01977 2.06407-3.1041 2.25682-3.14827 2.47367-3.14827 2.84713-3.14827 3.15633-2.99567 3.4053-2.69852 3.65026-2.39734 3.77475-2.01184 3.77475-1.54201 3.77475-1.06013 3.65027-0.666601 3.4053-0.369466 3.15633-0.0682905 2.84713 0.0802873 2.47367 0.0802873 2.25682 0.0802873 2.06407 0.0361149 1.89542-0.0482135 1.73479-0.132542 1.59022-0.265061 1.46172-0.449774L1.46172-2.05601e-05 0.465841-2.05601e-05 0.465841-4.27262 1.46172-4.27262Z" fill="#000000" fill-rule="nonzero" fill-opacity="1" transform="matrix(1.00131 0 0 1 -498.316 592.55)"/><path d="M0.0642504-3.06798 1.04406-3.06798 1.87932-0.995933 2.58607-3.06798 3.56589-3.06798 2.26484 0.289076C2.13634 0.630405 1.98374 0.871349 1.81509 1.01189 1.64242 1.14842 1.41353 1.2207 1.12439 1.2207L0.562196 1.2207 0.562196 0.562135 0.867391 0.562135C1.03605 0.562135 1.16054 0.534025 1.23684 0.481822 1.30912 0.425602 1.36936 0.337263 1.41353 0.208763L1.44566 0.112387Z" fill="#000000" fill-rule="nonzero" fill-opacity="1" transform="matrix(1.00131 0 0 1 -494.283 592.55)"/><path d="M3.3731-3.96749 3.3731-3.10011C3.14822-3.20451 2.92736-3.28081 2.71453-3.32499 2.49769-3.37719 2.29691-3.4053 2.10416-3.4053 1.84715-3.4053 1.65842-3.36514 1.54196-3.29286 1.42149-3.2286 1.36527-3.12018 1.36527-2.9716 1.36527-2.86318 1.40141-2.77885 1.47771-2.7146 1.56204-2.65838 1.71061-2.6102 1.92746-2.57004L2.37721-2.47367C2.835-2.37729 3.15625-2.23674 3.34097-2.05604 3.53372-1.87132 3.6301-1.60629 3.6301-1.25291 3.6301-0.803156 3.49357-0.465846 3.22854-0.24096 2.95949-0.0241119 2.55391 0.0802925 2.00778 0.0802925 1.75078 0.0802925 1.48575 0.0521827 1.22072-2.05601e-05 0.963715-0.0401766 0.698685-0.112464 0.433654-0.208829L0.433654-1.10834C0.698685-0.967786 0.951677-0.859362 1.1886-0.787083 1.43356-0.722833 1.6745-0.690708 1.91141-0.690708 2.13629-0.690708 2.30495-0.726848 2.42542-0.803151 2.55392-0.875432 2.61817-0.983854 2.61817-1.1244 2.61817-1.2529 2.574-1.34928 2.48967-1.41353 2.40132-1.48581 2.23669-1.55006 1.99172-1.60628L1.59016-1.70266C1.17253-1.78699 0.86735-1.92753 0.674599-2.12028 0.489876-2.31304 0.40154-2.57406 0.40154-2.90735 0.40154-3.31293 0.53004-3.62213 0.787042-3.83898 1.05207-4.06386 1.43357-4.17629 1.92751-4.17629 2.16042-4.17629 2.39734-4.15219 2.63427-4.11204 2.86717-4.07991 3.11615-4.03172 3.37315-3.96748Z" fill="#000000" fill-rule="nonzero" fill-opacity="1" transform="matrix(1.00131 0 0 1 -488.654 592.55)"/><path d="M3.56595-1.8793 3.56595 0 2.57007 0 2.57007-1.42955C2.57007-1.69458 2.56204-1.8793 2.55401-1.97568 2.54196-2.08008 2.52188-2.15638 2.48976-2.20055 2.45763-2.2648 2.40141-2.31299 2.32913-2.34511 2.26488-2.38527 2.1926-2.40936 2.12032-2.40936 1.90347-2.40936 1.73884-2.32905 1.62237-2.16842 1.51395-2.00779 1.46175-1.78693 1.46175-1.50985L1.46175 8.22405e-05 0.465867 8.22405e-05 0.465867-4.27252 1.46175-4.27252 1.46175-2.61805C1.59828-2.79875 1.7549-2.93127 1.92756-3.01961 2.09621-3.10393 2.28094-3.14811 2.47369-3.14811 2.82707-3.14811 3.0921-3.03566 3.27682-2.8108 3.46957-2.59395 3.56595-2.28475 3.56595-1.87917Z" fill="#000000" fill-rule="nonzero" fill-opacity="1" transform="matrix(1.00131 0 0 1 -484.601 592.55)"/><path d="M1.92751-2.44152C1.71067-2.44152 1.54603-2.3612 1.42957-2.20057 1.32114-2.04797 1.26894-1.83113 1.26894-1.54201 1.26894-1.24084 1.32114-1.01195 1.42957-0.851313 1.54602-0.698716 1.71067-0.626437 1.92751-0.626437 2.14034-0.626437 2.30499-0.698719 2.42546-0.851313 2.54191-1.01194 2.60215-1.24084 2.60215-1.54201 2.60215-1.83114 2.54192-2.04799 2.42546-2.20057 2.30499-2.3612 2.14035-2.44152 1.92751-2.44152ZM1.92751-3.14827C2.46159-3.14827 2.87521-3.00371 3.16431-2.71458 3.46146-2.43348 3.61406-2.04397 3.61406-1.54203 3.61406-1.02803 3.46146-0.626467 3.16431-0.33731 2.87518-0.0562114 2.46157 0.0803182 1.92751 0.0803182 1.40146 0.0803182 0.987853-0.0562114 0.690718-0.33731 0.389543-0.626437 0.240965-1.02801 0.240965-1.54203 0.240965-2.04399 0.389543-2.43351 0.690718-2.71458 0.987873-3.0037 1.40149-3.14827 1.92751-3.14827Z" fill="#000000" fill-rule="nonzero" fill-opacity="1" transform="matrix(1.00131 0 0 1 -480.592 592.55)"/><path d="M2.95552-2.97156 2.95552-2.18449C2.82702-2.26882 2.69049-2.33307 2.55396-2.37725 2.41341-2.4174 2.27286-2.4415 2.13633-2.4415 1.85523-2.4415 1.64241-2.36118 1.49383-2.20055 1.34123-2.03993 1.26895-1.81907 1.26895-1.54199 1.26895-1.25286 1.34123-1.02799 1.49383-0.86736 1.64241-0.706734 1.85523-0.626416 2.13633-0.626416 2.28491-0.626416 2.42948-0.646494 2.57003-0.690666 2.70656-0.730823 2.83506-0.80311 2.95553-0.899475L2.95553-0.0963448C2.80293-0.0320944 2.65034 0.00805957 2.48972 0.0321561 2.32909 0.0642813 2.16847 0.0803439 2.00784 0.0803439 1.44966 0.0803439 1.01598-0.0561857 0.706796-0.337284 0.393572-0.626411 0.240985-1.02798 0.240985-1.54201 0.240985-2.04396 0.393583-2.43348 0.706796-2.71455 1.016-3.00368 1.4497-3.14825 2.00784-3.14825 2.16847-3.14825 2.32909-3.13218 2.48972-3.10006 2.65035-3.07596 2.80294-3.03581 2.95553-2.97156Z" fill="#000000" fill-rule="nonzero" fill-opacity="1" transform="matrix(1.00131 0 0 1 -476.728 592.55)"/><path d="M3.56595-1.8793 3.56595 0 2.57007 0 2.57007-1.42955C2.57007-1.69458 2.56204-1.8793 2.55401-1.97568 2.54196-2.08008 2.52188-2.15638 2.48976-2.20055 2.45763-2.2648 2.40141-2.31299 2.32913-2.34511 2.26488-2.38527 2.1926-2.40936 2.12032-2.40936 1.90347-2.40936 1.73884-2.32905 1.62237-2.16842 1.51395-2.00779 1.46175-1.78693 1.46175-1.50985L1.46175 8.22405e-05 0.465867 8.22405e-05 0.465867-4.27252 1.46175-4.27252 1.46175-2.61805C1.59828-2.79875 1.7549-2.93127 1.92756-3.01961 2.09621-3.10393 2.28094-3.14811 2.47369-3.14811 2.82707-3.14811 3.0921-3.03566 3.27682-2.8108 3.46957-2.59395 3.56595-2.28475 3.56595-1.87917Z" fill="#000000" fill-rule="nonzero" fill-opacity="1" transform="matrix(1.00131 0 0 1 -473.39 592.55)"/><path d="M1.92751-2.44152C1.71067-2.44152 1.54603-2.3612 1.42957-2.20057 1.32114-2.04797 1.26894-1.83113 1.26894-1.54201 1.26894-1.24084 1.32114-1.01195 1.42957-0.851313 1.54602-0.698716 1.71067-0.626437 1.92751-0.626437 2.14034-0.626437 2.30499-0.698719 2.42546-0.851313 2.54191-1.01194 2.60215-1.24084 2.60215-1.54201 2.60215-1.83114 2.54192-2.04799 2.42546-2.20057 2.30499-2.3612 2.14035-2.44152 1.92751-2.44152ZM1.92751-3.14827C2.46159-3.14827 2.87521-3.00371 3.16431-2.71458 3.46146-2.43348 3.61406-2.04397 3.61406-1.54203 3.61406-1.02803 3.46146-0.626467 3.16431-0.33731 2.87518-0.0562114 2.46157 0.0803182 1.92751 0.0803182 1.40146 0.0803182 0.987853-0.0562114 0.690718-0.33731 0.389543-0.626437 0.240965-1.02801 0.240965-1.54203 0.240965-2.04399 0.389543-2.43351 0.690718-2.71458 0.987873-3.0037 1.40149-3.14827 1.92751-3.14827Z" fill="#000000" fill-rule="nonzero" fill-opacity="1" transform="matrix(1.00131 0 0 1 -469.382 592.55)"/><path d="M2.48973-4.2726 2.48973-3.6301 1.95967-3.6301C1.81912-3.6301 1.71872-3.60199 1.65447-3.54978 1.59826-3.49357 1.57416-3.40924 1.57416-3.29278L1.57416-3.06791 2.42547-3.06791 2.42547-2.37721 1.57416-2.37721 1.57416 5.65404e-05 0.594347 5.65404e-05 0.594347-2.37721 0.112469-2.37721 0.112469-3.06791 0.594347-3.06791 0.594347-3.29278C0.594347-3.62206 0.682691-3.87104 0.867406-4.03166 1.06016-4.19229 1.3533-4.27261 1.75086-4.27261Z" fill="#000000" fill-rule="nonzero" fill-opacity="1" transform="matrix(1.00131 0 0 1 -525.337 598.172)"/><path d="M2.76277-2.23273C2.67442-2.27289 2.59009-2.30501 2.50577-2.3291 2.41742-2.34918 2.33309-2.36123 2.24877-2.36123 1.99176-2.36123 1.79098-2.27289 1.65445-2.10423 1.52595-1.9436 1.4617-1.7107 1.4617-1.41353L1.4617-2.05601e-05 0.465821-2.05601e-05 0.465821-3.068 1.4617-3.068 1.4617-2.57006C1.57816-2.77084 1.7187-2.91541 1.87933-3.00375 2.04799-3.10013 2.24878-3.14831 2.47364-3.14831L2.58609-3.14831C2.62624-3.14831 2.68246-3.14028 2.74671-3.13225Z" fill="#000000" fill-rule="nonzero" fill-opacity="1" transform="matrix(1.00131 0 0 1 -522.888 598.172)"/><path d="M1.92751-2.44152C1.71067-2.44152 1.54603-2.3612 1.42957-2.20057 1.32114-2.04797 1.26894-1.83113 1.26894-1.54201 1.26894-1.24084 1.32114-1.01195 1.42957-0.851313 1.54602-0.698716 1.71067-0.626437 1.92751-0.626437 2.14034-0.626437 2.30499-0.698719 2.42546-0.851313 2.54191-1.01194 2.60215-1.24084 2.60215-1.54201 2.60215-1.83114 2.54192-2.04799 2.42546-2.20057 2.30499-2.3612 2.14035-2.44152 1.92751-2.44152ZM1.92751-3.14827C2.46159-3.14827 2.87521-3.00371 3.16431-2.71458 3.46146-2.43348 3.61406-2.04397 3.61406-1.54203 3.61406-1.02803 3.46146-0.626467 3.16431-0.33731 2.87518-0.0562114 2.46157 0.0803182 1.92751 0.0803182 1.40146 0.0803182 0.987853-0.0562114 0.690718-0.33731 0.389543-0.626437 0.240965-1.02801 0.240965-1.54203 0.240965-2.04399 0.389543-2.43351 0.690718-2.71458 0.987873-3.0037 1.40149-3.14827 1.92751-3.14827Z" fill="#000000" fill-rule="nonzero" fill-opacity="1" transform="matrix(1.00131 0 0 1 -520.11 598.172)"/><path d="M3.32499-2.57002C3.44144-2.75072 3.58601-2.89127 3.75868-2.98765 3.92734-3.09205 4.12009-3.14827 4.33694-3.14827 4.67826-3.14827 4.93929-3.03583 5.124-2.81096 5.31675-2.59411 5.41312-2.28491 5.41312-1.87933L5.41312-3.08402e-05 4.41724-3.08402e-05 4.41724-1.60629C4.42527-1.62637 4.43331-1.64645 4.43331-1.67054L4.43331-1.78299C4.43331-2.00786 4.40118-2.16849 4.33693-2.26486 4.27268-2.36124 4.16828-2.40942 4.03174-2.40942 3.83898-2.40942 3.68639-2.32911 3.58198-2.16848 3.48561-2.01588 3.43742-1.79903 3.43742-1.50992L3.43742 2.05601e-05 2.44154 2.05601e-05 2.44154-1.60624C2.44154-1.94757 2.40942-2.16844 2.34517-2.2648 2.28895-2.36118 2.18856-2.40936 2.03997-2.40936 1.85525-2.40936 1.71069-2.32905 1.60628-2.16842 1.5099-2.01582 1.46172-1.79897 1.46172-1.50985L1.46172 8.22405e-05 0.465836 8.22405e-05 0.465836-3.0679 1.46172-3.0679 1.46172-2.61815C1.57817-2.79885 1.71069-2.93137 1.86328-3.01971 2.0239-3.10404 2.20059-3.14821 2.39334-3.14821 2.60617-3.14821 2.7949-3.09199 2.95554-2.98758 3.11616-2.89121 3.23663-2.75066 3.32498-2.56996Z" fill="#000000" fill-rule="nonzero" fill-opacity="1" transform="matrix(1.00131 0 0 1 -516.245 598.172)"/><path d="M1.54201-3.95145 1.54201-3.068 2.55396-3.068 2.55396-2.37731 1.54201-2.37731 1.54201-1.06022C1.54201-0.919676 1.5661-0.8233 1.62232-0.771098 1.68657-0.726925 1.80303-0.706847 1.9757-0.706847L2.47365-0.706847 2.47365-9.25206e-05 1.63839-9.25206e-05C1.24084-9.25206e-05 0.963762-0.0804056 0.803136-0.241037 0.642509-0.401668 0.562191-0.674732 0.562191-1.06023L0.562191-2.37732 0.080313-2.37732 0.080313-3.06801 0.562191-3.06801 0.562191-3.95146Z" fill="#000000" fill-rule="nonzero" fill-opacity="1" transform="matrix(1.00131 0 0 1 -508.417 598.172)"/><path d="M3.56595-1.8793 3.56595 0 2.57007 0 2.57007-1.42955C2.57007-1.69458 2.56204-1.8793 2.55401-1.97568 2.54196-2.08008 2.52188-2.15638 2.48976-2.20055 2.45763-2.2648 2.40141-2.31299 2.32913-2.34511 2.26488-2.38527 2.1926-2.40936 2.12032-2.40936 1.90347-2.40936 1.73884-2.32905 1.62237-2.16842 1.51395-2.00779 1.46175-1.78693 1.46175-1.50985L1.46175 8.22405e-05 0.465867 8.22405e-05 0.465867-4.27252 1.46175-4.27252 1.46175-2.61805C1.59828-2.79875 1.7549-2.93127 1.92756-3.01961 2.09621-3.10393 2.28094-3.14811 2.47369-3.14811 2.82707-3.14811 3.0921-3.03566 3.27682-2.8108 3.46957-2.59395 3.56595-2.28475 3.56595-1.87917Z" fill="#000000" fill-rule="nonzero" fill-opacity="1" transform="matrix(1.00131 0 0 1 -505.727 598.172)"/><path d="M3.53377-1.54201 3.53377-1.26895 1.2368-1.26895C1.26892-1.03203 1.35325-0.855343 1.4938-0.73889 1.63033-0.630466 1.83111-0.578264 2.08811-0.578264 2.30094-0.578264 2.51376-0.602359 2.73061-0.658577 2.94344-0.722828 3.16431-0.819203 3.38917-0.947704L3.38917-0.192756C3.1643-0.0963808 2.93139-0.0241016 2.69848 0.0160523 2.46155 0.0562083 2.23267 0.0803028 2.00778 0.0803028 1.4496 0.0803028 1.01592-0.0562268 0.706734-0.337325 0.393511-0.626452 0.240924-1.02802 0.240924-1.54205 0.240924-2.03195 0.389502-2.42549 0.690677-2.71459 0.999881-3.00372 1.41751-3.14829 1.94361-3.14829 2.42549-3.14829 2.81099-3.00373 3.10012-2.71459 3.38925-2.42545 3.53381-2.03193 3.53381-1.54205ZM2.53789-1.87932C2.53789-2.06002 2.47766-2.20459 2.3612-2.31302 2.25277-2.42947 2.11223-2.48971 1.94357-2.48971 1.75082-2.48971 1.59421-2.43349 1.47776-2.32908 1.35729-2.22066 1.28501-2.07208 1.25288-1.87933Z" fill="#000000" fill-rule="nonzero" fill-opacity="1" transform="matrix(1.00131 0 0 1 -501.722 598.172)"/><path d="M0.514003-4.09599 1.70259-4.09599 3.18034-1.28501 3.18034-4.09599 4.19229-4.09599 4.19229 0 3.00371 0 1.52595-2.81098 1.52595 0 0.514003 0Z" fill="#000000" fill-rule="nonzero" fill-opacity="1" transform="matrix(1.00131 0 0 1 -495.944 598.172)"/><path d="M1.92751-2.44152C1.71067-2.44152 1.54603-2.3612 1.42957-2.20057 1.32114-2.04797 1.26894-1.83113 1.26894-1.54201 1.26894-1.24084 1.32114-1.01195 1.42957-0.851313 1.54602-0.698716 1.71067-0.626437 1.92751-0.626437 2.14034-0.626437 2.30499-0.698719 2.42546-0.851313 2.54191-1.01194 2.60215-1.24084 2.60215-1.54201 2.60215-1.83114 2.54192-2.04799 2.42546-2.20057 2.30499-2.3612 2.14035-2.44152 1.92751-2.44152ZM1.92751-3.14827C2.46159-3.14827 2.87521-3.00371 3.16431-2.71458 3.46146-2.43348 3.61406-2.04397 3.61406-1.54203 3.61406-1.02803 3.46146-0.626467 3.16431-0.33731 2.87518-0.0562114 2.46157 0.0803182 1.92751 0.0803182 1.40146 0.0803182 0.987853-0.0562114 0.690718-0.33731 0.389543-0.626437 0.240965-1.02801 0.240965-1.54203 0.240965-2.04399 0.389543-2.43351 0.690718-2.71458 0.987873-3.0037 1.40149-3.14827 1.92751-3.14827Z" fill="#000000" fill-rule="nonzero" fill-opacity="1" transform="matrix(1.00131 0 0 1 -491.231 598.172)"/><path d="M0.433696-1.20472 0.433696-3.06798 1.42958-3.06798 1.42958-2.76279 1.42958-2.13634 1.42958-1.6384C1.42958-1.38942 1.43359-1.20872 1.44564-1.09227 1.45367-0.983844 1.47777-0.907545 1.50989-0.867391 1.55005-0.803141 1.60627-0.746919 1.67052-0.706765 1.73477-0.67464 1.80705-0.658577 1.89539-0.658577 2.09617-0.658577 2.2568-0.73889 2.37727-0.899521 2.49372-1.06015 2.55396-1.277 2.55396-1.55808L2.55396-3.06802 3.53378-3.06802 3.53378-3.59802e-05 2.55396-3.59802e-05 2.55396-0.449789C2.40137-0.265066 2.24074-0.132556 2.07209-0.0482289 1.91146 0.0360995 1.72674 0.0802719 1.52596 0.0802719 1.17258 0.0802719 0.899511-0.0241325 0.70676-0.24098 0.522037-0.465857 0.433701-0.787109 0.433701-1.20474Z" fill="#000000" fill-rule="nonzero" fill-opacity="1" transform="matrix(1.00131 0 0 1 -487.363 598.172)"/><path d="M3.56595-1.8793 3.56595 0 2.57007 0 2.57007-1.42955C2.57007-1.69458 2.56204-1.8793 2.55401-1.97568 2.54196-2.08008 2.52188-2.15638 2.48976-2.20055 2.45763-2.2648 2.40141-2.31299 2.32913-2.34511 2.26488-2.38527 2.1926-2.40936 2.12032-2.40936 1.90347-2.40936 1.73884-2.32905 1.62237-2.16842 1.51395-2.00779 1.46175-1.78693 1.46175-1.50985L1.46175 8.22405e-05 0.465867 8.22405e-05 0.465867-3.0679 1.46175-3.0679 1.46175-2.61815C1.59828-2.79885 1.7549-2.93137 1.92756-3.01971 2.09621-3.10404 2.28094-3.14821 2.47369-3.14821 2.82707-3.14821 3.0921-3.03577 3.27682-2.8109 3.46957-2.59405 3.56595-2.28485 3.56595-1.87927Z" fill="#000000" fill-rule="nonzero" fill-opacity="1" transform="matrix(1.00131 0 0 1 -483.354 598.172)"/><path d="M0.514003-4.09599 2.2648-4.09599C2.78683-4.09599 3.1884-3.97552 3.46952-3.74261 3.7466-3.51774 3.88715-3.18846 3.88715-2.7628 3.88715-2.33312 3.7466-1.99982 3.46952-1.76692 3.18843-1.54204 2.78686-1.42961 2.2648-1.42961L1.5741-1.42961 1.5741-6.16804e-05 0.514024-6.16804e-05ZM1.57408-3.32499 1.57408-2.18451 2.15234-2.18451C2.35312-2.18451 2.50973-2.2327 2.61815-2.32907 2.7346-2.43348 2.79484-2.57805 2.79484-2.76277 2.79484-2.94347 2.73461-3.08402 2.61815-3.1804 2.50972-3.27677 2.35312-3.32495 2.15234-3.32495Z" fill="#000000" fill-rule="nonzero" fill-opacity="1" transform="matrix(1.00131 0 0 1 -477.387 598.172)"/><path d="M2.76277-2.23273C2.67442-2.27289 2.59009-2.30501 2.50577-2.3291 2.41742-2.34918 2.33309-2.36123 2.24877-2.36123 1.99176-2.36123 1.79098-2.27289 1.65445-2.10423 1.52595-1.9436 1.4617-1.7107 1.4617-1.41353L1.4617-2.05601e-05 0.465821-2.05601e-05 0.465821-3.068 1.4617-3.068 1.4617-2.57006C1.57816-2.77084 1.7187-2.91541 1.87933-3.00375 2.04799-3.10013 2.24878-3.14831 2.47364-3.14831L2.58609-3.14831C2.62624-3.14831 2.68246-3.14028 2.74671-3.13225Z" fill="#000000" fill-rule="nonzero" fill-opacity="1" transform="matrix(1.00131 0 0 1 -473.262 598.172)"/><path d="M1.92751-2.44152C1.71067-2.44152 1.54603-2.3612 1.42957-2.20057 1.32114-2.04797 1.26894-1.83113 1.26894-1.54201 1.26894-1.24084 1.32114-1.01195 1.42957-0.851313 1.54602-0.698716 1.71067-0.626437 1.92751-0.626437 2.14034-0.626437 2.30499-0.698719 2.42546-0.851313 2.54191-1.01194 2.60215-1.24084 2.60215-1.54201 2.60215-1.83114 2.54192-2.04799 2.42546-2.20057 2.30499-2.3612 2.14035-2.44152 1.92751-2.44152ZM1.92751-3.14827C2.46159-3.14827 2.87521-3.00371 3.16431-2.71458 3.46146-2.43348 3.61406-2.04397 3.61406-1.54203 3.61406-1.02803 3.46146-0.626467 3.16431-0.33731 2.87518-0.0562114 2.46157 0.0803182 1.92751 0.0803182 1.40146 0.0803182 0.987853-0.0562114 0.690718-0.33731 0.389543-0.626437 0.240965-1.02801 0.240965-1.54203 0.240965-2.04399 0.389543-2.43351 0.690718-2.71458 0.987873-3.0037 1.40149-3.14827 1.92751-3.14827Z" fill="#000000" fill-rule="nonzero" fill-opacity="1" transform="matrix(1.00131 0 0 1 -470.487 598.172)"/><path d="M0.46581-3.06798 1.46169-3.06798 1.46169-0.0482135C1.46169 0.357366 1.35729 0.66657 1.1565 0.883418 0.963746 1.10829 0.678639 1.22073 0.305184 1.22073L-0.192762 1.22073-0.192762 0.562166-0.0160677 0.562166C0.164635 0.562166 0.289127 0.517993 0.353377 0.433665 0.425659 0.357367 0.465821 0.19674 0.465821-0.0482135ZM0.46581-4.27271 1.46169-4.27271 1.46169-3.46957 0.46581-3.46957Z" fill="#000000" fill-rule="nonzero" fill-opacity="1" transform="matrix(1.00131 0 0 1 -466.619 598.172)"/><path d="M3.53377-1.54201 3.53377-1.26895 1.2368-1.26895C1.26892-1.03203 1.35325-0.855343 1.4938-0.73889 1.63033-0.630466 1.83111-0.578264 2.08811-0.578264 2.30094-0.578264 2.51376-0.602359 2.73061-0.658577 2.94344-0.722828 3.16431-0.819203 3.38917-0.947704L3.38917-0.192756C3.1643-0.0963808 2.93139-0.0241016 2.69848 0.0160523 2.46155 0.0562083 2.23267 0.0803028 2.00778 0.0803028 1.4496 0.0803028 1.01592-0.0562268 0.706734-0.337325 0.393511-0.626452 0.240924-1.02802 0.240924-1.54205 0.240924-2.03195 0.389502-2.42549 0.690677-2.71459 0.999881-3.00372 1.41751-3.14829 1.94361-3.14829 2.42549-3.14829 2.81099-3.00373 3.10012-2.71459 3.38925-2.42545 3.53381-2.03193 3.53381-1.54205ZM2.53789-1.87932C2.53789-2.06002 2.47766-2.20459 2.3612-2.31302 2.25277-2.42947 2.11223-2.48971 1.94357-2.48971 1.75082-2.48971 1.59421-2.43349 1.47776-2.32908 1.35729-2.22066 1.28501-2.07208 1.25288-1.87933Z" fill="#000000" fill-rule="nonzero" fill-opacity="1" transform="matrix(1.00131 0 0 1 -464.689 598.172)"/><path d="M2.95552-2.97156 2.95552-2.18449C2.82702-2.26882 2.69049-2.33307 2.55396-2.37725 2.41341-2.4174 2.27286-2.4415 2.13633-2.4415 1.85523-2.4415 1.64241-2.36118 1.49383-2.20055 1.34123-2.03993 1.26895-1.81907 1.26895-1.54199 1.26895-1.25286 1.34123-1.02799 1.49383-0.86736 1.64241-0.706734 1.85523-0.626416 2.13633-0.626416 2.28491-0.626416 2.42948-0.646494 2.57003-0.690666 2.70656-0.730823 2.83506-0.80311 2.95553-0.899475L2.95553-0.0963448C2.80293-0.0320944 2.65034 0.00805957 2.48972 0.0321561 2.32909 0.0642813 2.16847 0.0803439 2.00784 0.0803439 1.44966 0.0803439 1.01598-0.0561857 0.706796-0.337284 0.393572-0.626411 0.240985-1.02798 0.240985-1.54201 0.240985-2.04396 0.393583-2.43348 0.706796-2.71455 1.016-3.00368 1.4497-3.14825 2.00784-3.14825 2.16847-3.14825 2.32909-3.13218 2.48972-3.10006 2.65035-3.07596 2.80294-3.03581 2.95553-2.97156Z" fill="#000000" fill-rule="nonzero" fill-opacity="1" transform="matrix(1.00131 0 0 1 -460.873 598.172)"/><path d="M1.54201-3.95145 1.54201-3.068 2.55396-3.068 2.55396-2.37731 1.54201-2.37731 1.54201-1.06022C1.54201-0.919676 1.5661-0.8233 1.62232-0.771098 1.68657-0.726925 1.80303-0.706847 1.9757-0.706847L2.47365-0.706847 2.47365-9.25206e-05 1.63839-9.25206e-05C1.24084-9.25206e-05 0.963762-0.0804056 0.803136-0.241037 0.642509-0.401668 0.562191-0.674732 0.562191-1.06023L0.562191-2.37732 0.080313-2.37732 0.080313-3.06801 0.562191-3.06801 0.562191-3.95146Z" fill="#000000" fill-rule="nonzero" fill-opacity="1" transform="matrix(1.00131 0 0 1 -457.536 598.172)"/></g></g></g></svg>