<svg width="721" height="616" xmlns="http://www.w3.org/2000/svg" xmlns:xlink="http://www.w3.org/1999/xlink" xml:space="preserve" overflow="hidden"><defs><clipPath id="clip0"><rect x="-165" y="-781" width="721" height="616"/></clipPath><clipPath id="clip1"><rect x="-165" y="-781" width="720" height="615"/></clipPath><clipPath id="clip2"><rect x="-165" y="-781" width="720" height="615"/></clipPath><clipPath id="clip3"><rect x="-165" y="-781" width="720" height="721"/></clipPath></defs><g clip-path="url(#clip0)" transform="translate(165 781)"><g clip-path="url(#clip1)"><g clip-path="url(#clip2)"><g clip-path="url(#clip3)"><path d="M648 232.251C648 164.952 600.043 108.658 536.513 95.6983L536.513 46.4431C536.513 20.8296 515.676-0.0072 490.063-0.0072L118.45-0.0072C92.8368-0.0072 72 20.8296 72 46.4431L72 213.668C72 239.282 92.8368 260.119 118.45 260.119L188.928 260.119 218.817 290.015C223.518 294.696 229.75 297.279 236.375 297.279 247.794 297.279 257.706 289.541 260.474 278.468L265.063 260.118 372.106 260.118C380.254 300.104 405.627 333.838 440.064 353.413 426.954 354.341 414.274 359.042 403.971 367.275L383.135 383.941C378.116 376.507 369.622 371.602 360 371.602L71.9999 371.602 71.9999 520.251 360 520.251C369.623 520.251 378.116 515.345 383.122 507.912L403.959 524.578C415.454 533.771 429.87 538.833 444.579 538.833L462.194 538.833 462.194 548.122C462.194 563.487 474.697 575.995 490.066 575.995L527.227 575.995C542.592 575.995 555.099 563.491 555.099 548.122L555.099 538.833 564.389 538.833C579.753 538.833 592.261 526.33 592.261 510.961 592.261 503.797 589.464 497.324 585.013 492.379 589.472 487.437 592.261 480.96 592.261 473.797 592.261 466.634 589.464 460.16 585.013 455.214 589.472 450.272 592.261 443.795 592.261 436.632 592.261 429.468 589.464 422.995 585.013 418.05 589.472 413.108 592.261 406.631 592.261 399.468 592.261 384.103 579.758 371.596 564.389 371.596 564.389 367.759 563.219 364.191 561.211 361.217 612.057 340.441 648 290.495 648 232.255ZM250.55 241.545 242.438 273.968C241.341 278.352 235.145 280.064 231.939 276.877L196.622 241.544 118.451 241.544C103.086 241.544 90.5784 229.041 90.5784 213.672L90.5824 46.4465C90.5824 31.0817 103.086 18.5743 118.455 18.5743L490.067 18.5743C505.432 18.5743 517.939 31.0776 517.939 46.4465L517.939 93.3709C514.854 93.1701 511.788 92.9008 508.646 92.9008 431.805 92.9008 369.295 155.414 369.295 232.252 369.295 235.394 369.564 238.459 369.769 241.541ZM369.288 492.383C369.288 497.509 365.117 501.672 359.999 501.672L90.5851 501.672 90.5851 390.185 359.999 390.185C365.118 390.185 369.288 394.347 369.288 399.474ZM536.513 548.122C536.513 553.249 532.343 557.411 527.224 557.411L490.063 557.411C484.944 557.411 480.773 553.249 480.773 548.122L480.769 408.771 501.06 408.771C502.298 412.246 504.174 415.376 506.597 418.06 502.137 423.002 499.348 429.479 499.348 436.642 499.348 443.805 502.145 450.279 506.597 455.225 502.137 460.167 499.348 466.644 499.348 473.807 499.348 480.971 502.145 487.444 506.597 492.389 502.137 497.331 499.348 503.808 499.348 510.971 499.348 526.336 511.852 538.843 527.221 538.843L536.51 538.843ZM573.674 436.635C573.674 441.762 569.504 445.924 564.385 445.924L527.224 445.924C522.105 445.924 517.935 441.762 517.935 436.635 517.935 431.508 522.105 427.346 527.224 427.346L564.385 427.346C569.504 427.346 573.674 431.508 573.674 436.635ZM573.674 473.796C573.674 478.923 569.504 483.085 564.385 483.085L527.224 483.085C522.105 483.085 517.935 478.923 517.935 473.796 517.935 468.67 522.105 464.507 527.224 464.507L564.385 464.507C569.504 464.507 573.674 468.67 573.674 473.796ZM564.385 520.247 527.224 520.247C522.105 520.247 517.935 516.084 517.935 510.957 517.935 505.83 522.105 501.668 527.224 501.668L564.385 501.668C569.504 501.668 573.674 505.831 573.674 510.957 573.674 516.088 569.504 520.247 564.385 520.247ZM564.385 390.184C569.504 390.184 573.674 394.346 573.674 399.473 573.674 404.6 569.504 408.762 564.385 408.762L527.224 408.762C540.916 408.762 552.774 401.237 559.218 390.18ZM545.803 371.602C545.803 381.847 537.47 390.184 527.221 390.184L466.507 390.184 463.747 394.318C453.847 409.18 437.266 418.055 419.411 418.055L415.742 418.055 415.742 436.638 419.411 436.638C435.092 436.638 449.987 431.471 462.193 422.394L462.193 520.245 444.579 520.245C434.08 520.245 423.771 516.633 415.557 510.064L387.87 487.905 387.87 403.94 415.566 381.781C423.778 375.216 434.08 371.6 444.579 371.6ZM508.642 353.023C442.05 353.023 387.867 298.842 387.867 232.249 387.867 165.657 442.048 111.474 508.642 111.474 575.236 111.474 629.417 165.655 629.417 232.249 629.417 298.84 575.236 353.023 508.642 353.023Z" fill="#000000" fill-rule="nonzero" fill-opacity="1" transform="matrix(1 0 0 1.00071 -165 -781)"/><path d="M508.649 130.063C452.303 130.063 406.455 175.91 406.455 232.257 406.455 288.603 452.303 334.45 508.649 334.45 564.995 334.45 610.843 288.603 610.843 232.257 610.843 175.91 564.995 130.063 508.649 130.063ZM508.649 315.864C462.553 315.864 425.038 278.357 425.038 232.252 425.038 186.144 462.553 148.641 508.649 148.641 554.746 148.641 592.261 186.148 592.261 232.252 592.261 278.357 554.75 315.864 508.649 315.864Z" fill="#000000" fill-rule="nonzero" fill-opacity="1" transform="matrix(1 0 0 1.00071 -165 -781)"/><path d="M306.977 37.1613 301.553 37.1613C277.434 37.1613 257.811 56.7843 257.811 80.8992L257.811 83.6112 276.393 83.6112 276.393 80.8992C276.393 67.0299 287.68 55.7434 301.549 55.7434L306.973 55.7434C320.846 55.7434 332.133 67.0299 332.133 80.8992 332.133 90.4858 326.801 99.1162 318.227 103.412L294.972 115.031 294.972 148.645 313.554 148.645 313.554 126.514 326.544 120.029C341.45 112.56 350.715 97.5655 350.715 80.8995 350.715 56.7847 331.092 37.1616 306.977 37.1616Z" fill="#000000" fill-rule="nonzero" fill-opacity="1" transform="matrix(1 0 0 1.00071 -165 -781)"/><path d="M304.251 167.225C288.887 167.225 276.379 179.728 276.379 195.097 276.379 210.462 288.883 222.97 304.251 222.97 319.616 222.97 332.124 210.466 332.124 195.097 332.124 179.729 319.62 167.225 304.251 167.225ZM304.251 204.386C299.133 204.386 294.962 200.224 294.962 195.097 294.962 189.97 299.133 185.808 304.251 185.808 309.37 185.808 313.541 189.97 313.541 195.097 313.545 200.224 309.374 204.386 304.251 204.386Z" fill="#000000" fill-rule="nonzero" fill-opacity="1" transform="matrix(1 0 0 1.00071 -165 -781)"/><path d="M517.937 288C517.937 293.131 513.779 297.289 508.648 297.289 503.517 297.289 499.359 293.131 499.359 288 499.359 282.869 503.517 278.711 508.648 278.711 513.779 278.711 517.937 282.869 517.937 288" fill="#000000" fill-rule="nonzero" fill-opacity="1" transform="matrix(1 0 0 1.00071 -165 -781)"/><path d="M508.649 167.225C488.154 167.225 471.488 183.891 471.488 204.386L490.07 204.386C490.07 194.141 498.403 185.804 508.652 185.804 518.898 185.804 527.234 194.137 527.234 204.386L527.234 208.055C527.234 214.278 524.141 220.056 518.958 223.515L499.358 236.577 499.358 260.126 517.94 260.126 517.94 246.518 529.267 238.965C539.621 232.062 545.808 220.494 545.808 208.055L545.808 204.387C545.808 183.891 529.143 167.225 508.647 167.225Z" fill="#000000" fill-rule="nonzero" fill-opacity="1" transform="matrix(1 0 0 1.00071 -165 -781)"/><path d="M248.513 315.874 267.095 315.874 267.095 334.456 248.513 334.456Z" fill="#000000" fill-rule="nonzero" fill-opacity="1" transform="matrix(1 0 0 1.00071 -165 -781)"/><path d="M285.675 315.874 304.258 315.874 304.258 334.456 285.675 334.456Z" fill="#000000" fill-rule="nonzero" fill-opacity="1" transform="matrix(1 0 0 1.00071 -165 -781)"/><path d="M211.351 315.874 229.933 315.874 229.933 334.456 211.351 334.456Z" fill="#000000" fill-rule="nonzero" fill-opacity="1" transform="matrix(1 0 0 1.00071 -165 -781)"/><path d="M174.199 315.874 192.781 315.874 192.781 334.456 174.199 334.456Z" fill="#000000" fill-rule="nonzero" fill-opacity="1" transform="matrix(1 0 0 1.00071 -165 -781)"/><path d="M31.1143-1.86429C29.5071-1.02857 27.8357-0.40176 26.1 0.0160457 24.3643 0.441936 22.5523 0.658903 20.6679 0.658903 15.0188 0.658903 10.547-0.916046 7.24814-4.06615 3.95753-7.22417 2.31418-11.4992 2.31418-16.8914 2.31418-22.2994 3.95753-26.5825 7.24814-29.7321 10.5468-32.8901 15.0187-34.4732 20.6679-34.4732 22.5523-34.4732 24.3644-34.2562 26.1-33.8303 27.8357-33.4125 29.5071-32.7857 31.1143-31.95L31.1143-24.9429C29.4951-26.0437 27.9-26.8554 26.3251-27.3697 24.7581-27.884 23.1027-28.1411 21.359-28.1411 18.2492-28.1411 15.8024-27.1447 14.0144-25.1519 12.2344-23.159 11.3465-20.4027 11.3465-16.8912 11.3465-13.3957 12.2344-10.6555 14.0144-8.66263 15.8024-6.66977 18.2492-5.67339 21.359-5.67339 23.1027-5.67339 24.7581-5.93054 26.3251-6.44482 27.9-6.95911 29.4951-7.76674 31.1143-8.87164Z" fill="#000000" fill-rule="nonzero" fill-opacity="1" transform="matrix(1 0 0 1.00071 -93 -65.1362)"/><path d="M22.7736-18.4824C22.0544-18.8119 21.3433-19.061 20.6361-19.2217 19.937-19.3824 19.2379-19.4628 18.5307-19.4628 16.4415-19.4628 14.8343-18.7918 13.7093-17.4539 12.5843-16.1119 12.0218-14.1953 12.0218-11.7002L12.0218-0.000236571 3.90579-0.000236571 3.90579-25.3936 12.0218-25.3936 12.0218-21.2311C13.0584-22.8905 14.2558-24.0999 15.6058-24.8632 16.9638-25.6346 18.587-26.0203 20.4755-26.0203 20.7527-26.0203 21.046-26.0042 21.3594-25.9721 21.6808-25.948 22.1389-25.8998 22.7416-25.8275Z" fill="#000000" fill-rule="nonzero" fill-opacity="1" transform="matrix(1 0 0 1.00071 -58.9085 -65.1362)"/><path d="M29.2505-12.7605 29.2505-10.4622 10.2703-10.4622C10.4712-8.5537 11.1623-7.12337 12.3435-6.17112 13.5207-5.21487 15.164-4.74079 17.2774-4.74079 18.9891-4.74079 20.7408-4.9899 22.5328-5.49615 24.3208-5.99838 26.1649-6.76582 28.0614-7.79439L28.0614-1.54263C26.1328-0.811378 24.2083-0.264939 22.2917 0.0967063 20.3712 0.470366 18.4546 0.659211 16.5381 0.659211 11.9416 0.659211 8.36578-0.505954 5.81832-2.84431 3.26695-5.17865 1.99327-8.45722 1.99327-12.68 1.99327-16.8144 3.23877-20.0729 5.73789-22.4515 8.24503-24.83 11.6884-26.0194 16.0719-26.0194 20.0657-26.0194 23.2599-24.814 25.6505-22.4033 28.0491-20.0007 29.2505-16.7864 29.2505-12.7605ZM20.9094-15.4605C20.9094-17.0033 20.4594-18.2448 19.5594-19.189 18.6594-20.1413 17.4862-20.6194 16.0397-20.6194 14.4648-20.6194 13.1831-20.1734 12.1987-19.2854 11.2103-18.4055 10.5995-17.1318 10.3666-15.4604Z" fill="#000000" fill-rule="nonzero" fill-opacity="1" transform="matrix(1 0 0 1.00071 -36.0027 -65.1362)"/><path d="M15.2835-11.4264C13.588-11.4264 12.3144-11.1371 11.4585-10.5585 10.6107-9.988 10.1888-9.14827 10.1888-8.03535 10.1888-7.00678 10.5303-6.19514 11.2174-5.60854 11.9004-5.02997 12.8567-4.74069 14.0781-4.74069 15.6089-4.74069 16.8946-5.28711 17.9352-6.38002 18.9838-7.4809 19.5102-8.85497 19.5102-10.4943L19.5102-11.4265ZM27.6902-14.4961 27.6902 0.000617143 19.5098 0.000617143 19.5098-3.76005C18.417-2.21719 17.1875-1.09214 15.8295-0.385097 14.4675 0.309991 12.8121 0.65952 10.8635 0.65952 8.22775 0.65952 6.09027-0.103875 4.45094-1.63872 2.8116-3.18158 1.99203-5.17443 1.99203-7.61729 1.99203-10.5945 3.01257-12.7802 5.0617-14.1744 7.11885-15.5647 10.3371-16.2637 14.7206-16.2637L19.5098-16.2637 19.5098-16.8905C19.5098-18.1762 18.9996-19.1164 17.983-19.719 16.9625-20.3177 15.3835-20.619 13.2419-20.619 11.5062-20.619 9.88704-20.4422 8.38831-20.0887 6.88567-19.7431 5.49545-19.2248 4.20974-18.5298L4.20974-24.7173C5.95347-25.1431 7.70122-25.4646 9.44907-25.6815 11.2048-25.9065 12.9607-26.019 14.7205-26.019 19.2928-26.019 22.5996-25.111 24.6365-23.303 26.6696-21.491 27.6902-18.5539 27.6902-14.4958Z" fill="#000000" fill-rule="nonzero" fill-opacity="1" transform="matrix(1 0 0 1.00071 -4.49866 -65.1362)"/><path d="M12.7605-32.6088 12.7605-25.3928 21.1336-25.3928 21.1336-19.591 12.7605-19.591 12.7605-8.82288C12.7605-7.64167 12.9935-6.84607 13.4676-6.42826 13.9377-6.01041 14.8699-5.80147 16.2641-5.80147L20.4266-5.80147 20.4266 0.000288 13.4677 0.000288C10.2614 0.000288 7.99138-0.666679 6.65342-2.00862 5.31144-3.34658 4.64451-5.61664 4.64451-8.8229L4.64451-19.591 0.61056-19.591 0.61056-25.3928 4.64451-25.3928 4.64451-32.6088Z" fill="#000000" fill-rule="nonzero" fill-opacity="1" transform="matrix(1 0 0 1.00071 26.8487 -65.1362)"/><path d="M29.2505-12.7605 29.2505-10.4622 10.2703-10.4622C10.4712-8.5537 11.1623-7.12337 12.3435-6.17112 13.5207-5.21487 15.164-4.74079 17.2774-4.74079 18.9891-4.74079 20.7408-4.9899 22.5328-5.49615 24.3208-5.99838 26.1649-6.76582 28.0614-7.79439L28.0614-1.54263C26.1328-0.811378 24.2083-0.264939 22.2917 0.0967063 20.3712 0.470366 18.4546 0.659211 16.5381 0.659211 11.9416 0.659211 8.36578-0.505954 5.81832-2.84431 3.26695-5.17865 1.99327-8.45722 1.99327-12.68 1.99327-16.8144 3.23877-20.0729 5.73789-22.4515 8.24503-24.83 11.6884-26.0194 16.0719-26.0194 20.0657-26.0194 23.2599-24.814 25.6505-22.4033 28.0491-20.0007 29.2505-16.7864 29.2505-12.7605ZM20.9094-15.4605C20.9094-17.0033 20.4594-18.2448 19.5594-19.189 18.6594-20.1413 17.4862-20.6194 16.0397-20.6194 14.4648-20.6194 13.1831-20.1734 12.1987-19.2854 11.2103-18.4055 10.5995-17.1318 10.3666-15.4604Z" fill="#000000" fill-rule="nonzero" fill-opacity="1" transform="matrix(1 0 0 1.00071 49.0554 -65.1362)"/><path d="M21.1824-21.6802 21.1824-35.2923 29.3467-35.2923 29.3467 0 21.1824 0 21.1824-3.68033C20.0655-2.17769 18.836-1.08082 17.4859-0.385714 16.1358 0.309394 14.577 0.658903 12.8091 0.658903 9.67917 0.658903 7.10774-0.582583 5.09482-3.06967 3.08993-5.55274 2.08944-8.7589 2.08944-12.6804 2.08944-16.5898 3.08989-19.7881 5.09482-22.2751 7.10774-24.7702 9.67917-26.0197 12.8091-26.0197 14.5649-26.0197 16.1199-25.6661 17.4698-24.959 18.8278-24.2519 20.0653-23.159 21.1823-21.6804ZM15.8306-5.23954C17.5664-5.23954 18.8883-5.87035 19.8003-7.13602 20.7204-8.4097 21.1825-10.2579 21.1825-12.6806 21.1825-15.0994 20.7204-16.9436 19.8003-18.2092 18.8883-19.4829 17.5664-20.1217 15.8306-20.1217 14.1029-20.1217 12.7811-19.4829 11.861-18.2092 10.9489-16.9436 10.4949-15.0994 10.4949-12.6806 10.4949-10.2578 10.9489-8.4097 11.861-7.13602 12.7811-5.87037 14.1029-5.23954 15.8306-5.23954Z" fill="#000000" fill-rule="nonzero" fill-opacity="1" transform="matrix(1 0 0 1.00071 80.5594 -65.1362)"/><path d="M17.4219-5.23934C19.1577-5.23934 20.4796-5.87014 21.3916-7.13582 22.3117-8.4095 22.7738-10.2577 22.7738-12.6804 22.7738-15.0992 22.3118-16.9433 21.3916-18.209 20.4796-19.4827 19.1577-20.1215 17.4219-20.1215 15.6742-20.1215 14.3362-19.4787 13.4041-18.193 12.48-16.9153 12.0219-15.0792 12.0219-12.6804 12.0219-10.2697 12.48-8.42554 13.4041-7.15186 14.3363-5.87417 15.6742-5.23934 17.4219-5.23934ZM12.0219-21.68C13.1349-23.1586 14.3724-24.2515 15.7345-24.9586 17.0925-25.6657 18.6595-26.0193 20.4273-26.0193 23.5653-26.0193 26.1367-24.7697 28.1416-22.2746 30.1545-19.7876 31.163-16.5894 31.163-12.68 31.163-8.75859 30.1546-5.55233 28.1416-3.06926 26.1367-0.582171 23.5653 0.659314 20.4273 0.659314 18.6594 0.659314 17.0925 0.309765 15.7345-0.385303 14.3724-1.09245 13.135-2.18931 12.0219-3.67992L12.0219 0.000411429 3.9059 0.000411429 3.9059-35.2919 12.0219-35.2919Z" fill="#000000" fill-rule="nonzero" fill-opacity="1" transform="matrix(1 0 0 1.00071 129.983 -65.1362)"/><path d="M0.562505-25.3934 8.67855-25.3934 15.5089-8.1648 21.3106-25.3934 29.4427-25.3934 18.7548 2.40994C17.682 5.22648 16.4285 7.19918 14.9942 8.32423 13.5679 9.4573 11.6834 10.0277 9.33704 10.0277L4.64419 10.0277 4.64419 4.69203 7.18352 4.69203C8.56572 4.69203 9.56611 4.47106 10.1889 4.03311 10.8197 3.59114 11.3058 2.80366 11.6514 1.67059L11.8764 0.979509Z" fill="#000000" fill-rule="nonzero" fill-opacity="1" transform="matrix(1 0 0 1.00071 163.231 -65.1362)"/><path d="M4.2589-33.8626 27.8194-33.8626 27.8194-27.2572 13.0018-27.2572 13.0018-20.9572 26.9358-20.9572 26.9358-14.3519 13.0018-14.3519 13.0018-6.60549 28.3336-6.60549 28.3336-0.000102857 4.2589-0.000102857Z" fill="#000000" fill-rule="nonzero" fill-opacity="1" transform="matrix(1 0 0 1.00071 209.685 -65.1362)"/><path d="M3.63209-9.88396 3.63209-25.3928 11.7964-25.3928 11.7964-22.8534C11.7964-21.4793 11.7843-19.7557 11.7642-17.6785 11.7522-15.5973 11.7482-14.2111 11.7482-13.5159 11.7482-11.4789 11.8004-10.0124 11.9089-9.11242 12.0133-8.21242 12.1982-7.55753 12.4553-7.15176 12.7848-6.61336 13.2187-6.20354 13.7571-5.91429 14.2914-5.625 14.9062-5.48035 15.6053-5.48035 17.2968-5.48035 18.6267-6.12723 19.591-7.42497 20.5633-8.73074 21.0535-10.5428 21.0535-12.8571L21.0535-25.3933 29.1696-25.3933 29.1696 8.22857e-05 21.0535 8.22857e-05 21.0535-3.68025C19.8201-2.18964 18.5183-1.09277 17.1482-0.385632 15.7861 0.309456 14.2794 0.658985 12.6321 0.658985 9.69503 0.658985 7.46118-0.241015 5.93036-2.04101 4.39552-3.84102 3.63212-6.45266 3.63212-9.88387Z" fill="#000000" fill-rule="nonzero" fill-opacity="1" transform="matrix(1 0 0 1.00071 241.414 -65.1362)"/><path d="M24.4286-24.6055 24.4286-17.9841C23.3237-18.7434 22.2148-19.3019 21.1018-19.6555 19.9848-20.0171 18.8357-20.2019 17.6464-20.2019 15.3723-20.2019 13.6044-19.5349 12.3429-18.2091 11.0892-16.8913 10.4625-15.047 10.4625-12.6805 10.4625-10.3019 11.0893-8.44565 12.3429-7.11982 13.6045-5.80202 15.3723-5.14301 17.6464-5.14301 18.908-5.14301 20.1093-5.32784 21.2464-5.70552 22.3915-6.09123 23.4521-6.65374 24.4286-7.39299L24.4286-0.755517C23.1509-0.281407 21.8612 0.0681429 20.5554 0.305146 19.2456 0.538179 17.9357 0.658718 16.6179 0.658718 12.0416 0.658718 8.45763-0.514471 5.86625-2.86095 3.28279-5.21545 1.99306-8.49001 1.99306-12.6806 1.99306-16.8672 3.28279-20.1378 5.86625-22.4841 8.45774-24.8386 12.0417-26.0199 16.6179-26.0199 17.9559-26.0199 19.2697-25.8993 20.5554-25.6663 21.8491-25.4292 23.1429-25.0757 24.4286-24.6056Z" fill="#000000" fill-rule="nonzero" fill-opacity="1" transform="matrix(1 0 0 1.00071 274.485 -65.1362)"/><path d="M15.2835-11.4264C13.588-11.4264 12.3144-11.1371 11.4585-10.5585 10.6107-9.988 10.1888-9.14827 10.1888-8.03535 10.1888-7.00678 10.5303-6.19514 11.2174-5.60854 11.9004-5.02997 12.8567-4.74069 14.0781-4.74069 15.6089-4.74069 16.8946-5.28711 17.9352-6.38002 18.9838-7.4809 19.5102-8.85497 19.5102-10.4943L19.5102-11.4265ZM27.6902-14.4961 27.6902 0.000617143 19.5098 0.000617143 19.5098-3.76005C18.417-2.21719 17.1875-1.09214 15.8295-0.385097 14.4675 0.309991 12.8121 0.65952 10.8635 0.65952 8.22775 0.65952 6.09027-0.103875 4.45094-1.63872 2.8116-3.18158 1.99203-5.17443 1.99203-7.61729 1.99203-10.5945 3.01257-12.7802 5.0617-14.1744 7.11885-15.5647 10.3371-16.2637 14.7206-16.2637L19.5098-16.2637 19.5098-16.8905C19.5098-18.1762 18.9996-19.1164 17.983-19.719 16.9625-20.3177 15.3835-20.619 13.2419-20.619 11.5062-20.619 9.88704-20.4422 8.38831-20.0887 6.88567-19.7431 5.49545-19.2248 4.20974-18.5298L4.20974-24.7173C5.95347-25.1431 7.70122-25.4646 9.44907-25.6815 11.2048-25.9065 12.9607-26.019 14.7205-26.019 19.2928-26.019 22.5996-25.111 24.6365-23.303 26.6696-21.491 27.6902-18.5539 27.6902-14.4958Z" fill="#000000" fill-rule="nonzero" fill-opacity="1" transform="matrix(1 0 0 1.00071 302.02 -65.1362)"/><path d="M3.90538-35.2923 12.0214-35.2923 12.0214 0 3.90538 0Z" fill="#000000" fill-rule="nonzero" fill-opacity="1" transform="matrix(1 0 0 1.00071 333.367 -65.1362)"/><path d="M0.562505-25.3934 8.67855-25.3934 15.5089-8.1648 21.3106-25.3934 29.4427-25.3934 18.7548 2.40994C17.682 5.22648 16.4285 7.19918 14.9942 8.32423 13.5679 9.4573 11.6834 10.0277 9.33704 10.0277L4.64419 10.0277 4.64419 4.69203 7.18352 4.69203C8.56572 4.69203 9.56611 4.47106 10.1889 4.03311 10.8197 3.59114 11.3058 2.80366 11.6514 1.67059L11.8764 0.979509Z" fill="#000000" fill-rule="nonzero" fill-opacity="1" transform="matrix(1 0 0 1.00071 349.29 -65.1362)"/><path d="M12.0219-3.68033 12.0219 9.65921 3.9059 9.65921 3.9059-25.3924 12.0219-25.3924 12.0219-21.6799C13.1349-23.1585 14.3724-24.2514 15.7345-24.9585 17.0925-25.6656 18.6595-26.0192 20.4273-26.0192 23.5653-26.0192 26.1367-24.7696 28.1416-22.2745 30.1545-19.7875 31.163-16.5893 31.163-12.6799 31.163-8.75849 30.1546-5.55223 28.1416-3.06915 26.1367-0.582069 23.5653 0.659417 20.4273 0.659417 18.6594 0.659417 17.0925 0.309867 15.7345-0.3852 14.3724-1.09234 13.135-2.18921 12.0219-3.67982ZM17.4219-20.121C15.6742-20.121 14.3362-19.4782 13.4041-18.1924 12.48-16.9148 12.0219-15.0787 12.0219-12.6799 12.0219-10.2692 12.48-8.42503 13.4041-7.15135 14.3363-5.87366 15.6742-5.23882 17.4219-5.23882 19.1577-5.23882 20.4796-5.86963 21.3916-7.1353 22.3117-8.40898 22.7738-10.2572 22.7738-12.6799 22.7738-15.0987 22.3118-16.9428 21.3916-18.2085 20.4796-19.4822 19.1577-20.121 17.4219-20.121Z" fill="#000000" fill-rule="nonzero" fill-opacity="1" transform="matrix(1 0 0 1.00071 379.568 -65.1362)"/></g></g></g></g></svg>