<svg width="721" height="614" xmlns="http://www.w3.org/2000/svg" xmlns:xlink="http://www.w3.org/1999/xlink" xml:space="preserve" overflow="hidden"><defs><clipPath id="clip0"><rect x="-40" y="864" width="721" height="614"/></clipPath><clipPath id="clip1"><rect x="-39" y="864" width="720" height="614"/></clipPath><clipPath id="clip2"><rect x="-39" y="864" width="720" height="614"/></clipPath><clipPath id="clip3"><rect x="-39" y="864" width="720" height="720"/></clipPath></defs><g clip-path="url(#clip0)" transform="translate(40 -864)"><g clip-path="url(#clip1)"><g clip-path="url(#clip2)"><g clip-path="url(#clip3)"><path d="M177.441 67.137C177.441 45.9422 160.272 28.7736 139.077 28.7736 117.878 28.7736 100.71 45.9422 100.71 67.137 100.71 88.3319 117.878 105.5 139.073 105.5 160.272 105.504 177.441 88.336 177.441 67.137ZM139.073 86.3208C128.523 86.3208 119.893 77.6904 119.893 67.137 119.893 56.5874 128.524 47.9533 139.077 47.9533 149.627 47.9533 158.261 56.5837 158.261 67.137 158.257 77.6908 149.627 86.3208 139.073 86.3208Z" fill="#0078d4" fill-rule="nonzero" fill-opacity="1" transform="matrix(1.00092 0 0 1 -39 864)"/><path d="M225.39 105.507C246.585 105.507 263.753 88.3381 263.753 67.1432 263.753 45.9484 246.585 28.7798 225.39 28.7798 204.195 28.7798 187.026 45.9484 187.026 67.1432 187.026 88.3381 204.195 105.507 225.39 105.507ZM225.39 47.9594C235.939 47.9594 244.574 56.5899 244.574 67.1432 244.574 77.6928 235.943 86.327 225.39 86.327 214.84 86.327 206.206 77.6965 206.206 67.1432 206.21 56.5895 214.84 47.9594 225.39 47.9594Z" fill="#0078d4" fill-rule="nonzero" fill-opacity="1" transform="matrix(1.00092 0 0 1 -39 864)"/><path d="M311.711 105.507C332.905 105.507 350.074 88.3381 350.074 67.1432 350.074 45.9484 332.905 28.7798 311.711 28.7798 290.516 28.7798 273.347 45.9484 273.347 67.1432 273.347 88.3381 290.516 105.507 311.711 105.507ZM311.711 47.9594C322.26 47.9594 330.894 56.5899 330.894 67.1432 330.894 77.6928 322.264 86.327 311.711 86.327 301.161 86.327 292.527 77.6965 292.527 67.1432 292.531 56.5895 301.161 47.9594 311.711 47.9594Z" fill="#0078d4" fill-rule="nonzero" fill-opacity="1" transform="matrix(1.00092 0 0 1 -39 864)"/><path d="M71.934 0 71.934 575.472 647.406 575.472 647.406 0ZM91.1178 19.1838 628.229 19.1838 628.229 115.094 91.1178 115.094ZM91.1178 556.284 91.1178 134.278 139.075 134.278 139.075 556.294ZM628.218 556.284 158.253 556.284 158.253 134.278 628.218 134.278Z" fill="#0078d4" fill-rule="nonzero" fill-opacity="1" transform="matrix(1.00092 0 0 1 -39 864)"/><path d="M119.893 163.054 110.3 163.054C105.025 163.054 100.71 167.369 100.71 172.644 100.71 177.918 105.025 182.234 110.3 182.234L119.889 182.234C125.164 182.234 129.479 177.918 129.479 172.644 129.483 167.369 125.168 163.054 119.893 163.054Z" fill="#0078d4" fill-rule="nonzero" fill-opacity="1" transform="matrix(1.00092 0 0 1 -39 864)"/><path d="M119.893 201.415 110.3 201.415C105.025 201.415 100.71 205.73 100.71 211.005 100.71 216.28 105.025 220.595 110.3 220.595L119.889 220.595C125.164 220.595 129.479 216.28 129.479 211.005 129.483 205.73 125.168 201.415 119.893 201.415Z" fill="#0078d4" fill-rule="nonzero" fill-opacity="1" transform="matrix(1.00092 0 0 1 -39 864)"/><path d="M119.893 239.777 110.3 239.777C105.025 239.777 100.71 244.092 100.71 249.366 100.71 254.641 105.025 258.956 110.3 258.956L119.889 258.956C125.164 258.956 129.479 254.641 129.479 249.366 129.483 244.096 125.168 239.777 119.893 239.777Z" fill="#0078d4" fill-rule="nonzero" fill-opacity="1" transform="matrix(1.00092 0 0 1 -39 864)"/><path d="M119.893 278.148 110.3 278.148C105.025 278.148 100.71 282.464 100.71 287.738 100.71 293.013 105.025 297.328 110.3 297.328L119.889 297.328C125.164 297.328 129.479 293.013 129.479 287.738 129.483 282.464 125.168 278.148 119.893 278.148Z" fill="#0078d4" fill-rule="nonzero" fill-opacity="1" transform="matrix(1.00092 0 0 1 -39 864)"/><path d="M119.893 316.51 110.3 316.51C105.025 316.51 100.71 320.825 100.71 326.099 100.71 331.374 105.025 335.689 110.3 335.689L119.889 335.689C125.164 335.689 129.479 331.374 129.479 326.099 129.483 320.825 125.168 316.51 119.893 316.51Z" fill="#0078d4" fill-rule="nonzero" fill-opacity="1" transform="matrix(1.00092 0 0 1 -39 864)"/><path d="M119.893 354.871 110.3 354.871C105.025 354.871 100.71 359.186 100.71 364.461 100.71 369.736 105.025 374.051 110.3 374.051L119.889 374.051C125.164 374.051 129.479 369.736 129.479 364.461 129.483 359.19 125.168 354.871 119.893 354.871Z" fill="#0078d4" fill-rule="nonzero" fill-opacity="1" transform="matrix(1.00092 0 0 1 -39 864)"/><path d="M119.893 393.243 110.3 393.243C105.025 393.243 100.71 397.558 100.71 402.833 100.71 408.107 105.025 412.422 110.3 412.422L119.889 412.422C125.164 412.422 129.479 408.107 129.479 402.833 129.483 397.558 125.168 393.243 119.893 393.243Z" fill="#0078d4" fill-rule="nonzero" fill-opacity="1" transform="matrix(1.00092 0 0 1 -39 864)"/><path d="M119.893 431.604 110.3 431.604C105.025 431.604 100.71 435.919 100.71 441.194 100.71 446.469 105.025 450.784 110.3 450.784L119.889 450.784C125.164 450.784 129.479 446.469 129.479 441.194 129.483 435.919 125.168 431.604 119.893 431.604Z" fill="#0078d4" fill-rule="nonzero" fill-opacity="1" transform="matrix(1.00092 0 0 1 -39 864)"/><path d="M119.893 469.965 110.3 469.965C105.025 469.965 100.71 474.281 100.71 479.555 100.71 484.83 105.025 489.145 110.3 489.145L119.889 489.145C125.164 489.145 129.479 484.83 129.479 479.555 129.483 474.285 125.168 469.965 119.893 469.965Z" fill="#0078d4" fill-rule="nonzero" fill-opacity="1" transform="matrix(1.00092 0 0 1 -39 864)"/><path d="M119.893 508.337 110.3 508.337C105.025 508.337 100.71 512.652 100.71 517.927 100.71 523.202 105.025 527.517 110.3 527.517L119.889 527.517C125.164 527.517 129.479 523.202 129.479 517.927 129.483 512.652 125.168 508.337 119.893 508.337Z" fill="#0078d4" fill-rule="nonzero" fill-opacity="1" transform="matrix(1.00092 0 0 1 -39 864)"/><path d="M196.616 182.229 321.298 182.229C326.573 182.229 330.888 177.914 330.888 172.64 330.888 167.365 326.573 163.05 321.298 163.05L196.616 163.05C191.342 163.05 187.026 167.365 187.026 172.64 187.026 177.914 191.342 182.229 196.616 182.229Z" fill="#0078d4" fill-rule="nonzero" fill-opacity="1" transform="matrix(1.00092 0 0 1 -39 864)"/><path d="M359.67 182.229 455.581 182.229C460.855 182.229 465.171 177.914 465.171 172.64 465.171 167.365 460.855 163.05 455.581 163.05L359.67 163.05C354.395 163.05 350.08 167.365 350.08 172.64 350.08 177.914 354.395 182.229 359.67 182.229Z" fill="#0078d4" fill-rule="nonzero" fill-opacity="1" transform="matrix(1.00092 0 0 1 -39 864)"/><path d="M493.95 182.229 513.134 182.229C518.409 182.229 522.724 177.914 522.724 172.64 522.724 167.365 518.409 163.05 513.134 163.05L493.95 163.05C488.676 163.05 484.361 167.365 484.361 172.64 484.357 177.914 488.676 182.229 493.95 182.229Z" fill="#0078d4" fill-rule="nonzero" fill-opacity="1" transform="matrix(1.00092 0 0 1 -39 864)"/><path d="M407.63 211.003C407.63 216.278 411.945 220.593 417.219 220.593L561.087 220.593C566.362 220.593 570.677 216.278 570.677 211.003 570.677 205.728 566.362 201.413 561.087 201.413L417.219 201.413C411.945 201.413 407.63 205.728 407.63 211.003Z" fill="#0078d4" fill-rule="nonzero" fill-opacity="1" transform="matrix(1.00092 0 0 1 -39 864)"/><path d="M378.856 201.415 244.576 201.415C239.301 201.415 234.986 205.73 234.986 211.005 234.986 216.28 239.301 220.595 244.576 220.595L378.856 220.595C384.131 220.595 388.446 216.28 388.446 211.005 388.446 205.73 384.131 201.415 378.856 201.415Z" fill="#0078d4" fill-rule="nonzero" fill-opacity="1" transform="matrix(1.00092 0 0 1 -39 864)"/><path d="M196.616 220.601 206.206 220.601C211.481 220.601 215.796 216.286 215.796 211.011 215.796 205.737 211.481 201.421 206.206 201.421L196.616 201.421C191.342 201.421 187.026 205.737 187.026 211.011 187.026 216.282 191.342 220.601 196.616 220.601Z" fill="#0078d4" fill-rule="nonzero" fill-opacity="1" transform="matrix(1.00092 0 0 1 -39 864)"/><path d="M196.616 258.962 282.937 258.962C288.212 258.962 292.527 254.647 292.527 249.373 292.527 244.098 288.212 239.783 282.937 239.783L196.616 239.783C191.342 239.783 187.026 244.098 187.026 249.373 187.026 254.647 191.342 258.962 196.616 258.962Z" fill="#0078d4" fill-rule="nonzero" fill-opacity="1" transform="matrix(1.00092 0 0 1 -39 864)"/><path d="M321.309 258.962 340.492 258.962C345.767 258.962 350.082 254.647 350.082 249.373 350.082 244.098 345.767 239.783 340.492 239.783L321.309 239.783C316.034 239.783 311.719 244.098 311.719 249.373 311.715 254.647 316.034 258.962 321.309 258.962Z" fill="#0078d4" fill-rule="nonzero" fill-opacity="1" transform="matrix(1.00092 0 0 1 -39 864)"/><path d="M513.126 239.777 378.856 239.777C373.581 239.777 369.266 244.092 369.266 249.366 369.266 254.641 373.581 258.956 378.856 258.956L513.136 258.956C518.411 258.956 522.726 254.641 522.726 249.366 522.726 244.096 518.407 239.777 513.132 239.777Z" fill="#0078d4" fill-rule="nonzero" fill-opacity="1" transform="matrix(1.00092 0 0 1 -39 864)"/><path d="M196.616 297.324 321.298 297.324C326.573 297.324 330.888 293.009 330.888 287.734 330.888 282.459 326.573 278.144 321.298 278.144L196.616 278.144C191.342 278.144 187.026 282.459 187.026 287.734 187.026 293.009 191.342 297.324 196.616 297.324Z" fill="#0078d4" fill-rule="nonzero" fill-opacity="1" transform="matrix(1.00092 0 0 1 -39 864)"/><path d="M465.177 287.736C465.177 282.461 460.861 278.146 455.587 278.146L359.672 278.146C354.398 278.146 350.082 282.461 350.082 287.736 350.082 293.011 354.398 297.326 359.672 297.326L455.583 297.326C460.857 297.326 465.177 293.011 465.177 287.736Z" fill="#0078d4" fill-rule="nonzero" fill-opacity="1" transform="matrix(1.00092 0 0 1 -39 864)"/><path d="M417.217 335.695 493.948 335.695C499.223 335.695 503.538 331.38 503.538 326.106 503.538 320.831 499.223 316.516 493.948 316.516L417.217 316.516C411.943 316.516 407.627 320.831 407.627 326.106 407.627 331.376 411.943 335.695 417.217 335.695Z" fill="#0078d4" fill-rule="nonzero" fill-opacity="1" transform="matrix(1.00092 0 0 1 -39 864)"/><path d="M234.988 326.097C234.988 331.372 239.303 335.687 244.578 335.687L378.858 335.687C384.133 335.687 388.448 331.372 388.448 326.097 388.448 320.823 384.133 316.508 378.858 316.508L244.578 316.508C239.303 316.508 234.988 320.823 234.988 326.097Z" fill="#0078d4" fill-rule="nonzero" fill-opacity="1" transform="matrix(1.00092 0 0 1 -39 864)"/><path d="M196.616 335.695 206.206 335.695C211.481 335.695 215.796 331.38 215.796 326.106 215.796 320.831 211.481 316.516 206.206 316.516L196.616 316.516C191.342 316.516 187.026 320.831 187.026 326.106 187.026 331.376 191.342 335.695 196.616 335.695Z" fill="#0078d4" fill-rule="nonzero" fill-opacity="1" transform="matrix(1.00092 0 0 1 -39 864)"/><path d="M196.616 374.057 282.937 374.057C288.212 374.057 292.527 369.742 292.527 364.467 292.527 359.192 288.212 354.877 282.937 354.877L196.616 354.877C191.342 354.877 187.026 359.192 187.026 364.467 187.026 369.742 191.342 374.057 196.616 374.057Z" fill="#0078d4" fill-rule="nonzero" fill-opacity="1" transform="matrix(1.00092 0 0 1 -39 864)"/><path d="M321.309 374.057 340.492 374.057C345.767 374.057 350.082 369.742 350.082 364.467 350.082 359.192 345.767 354.877 340.492 354.877L321.309 354.877C316.034 354.877 311.719 359.192 311.719 364.467 311.715 369.742 316.034 374.057 321.309 374.057Z" fill="#0078d4" fill-rule="nonzero" fill-opacity="1" transform="matrix(1.00092 0 0 1 -39 864)"/><path d="M369.258 364.469C369.258 369.744 373.573 374.059 378.848 374.059L522.716 374.059C527.99 374.059 532.306 369.744 532.306 364.469 532.306 359.194 527.99 354.879 522.716 354.879L378.848 354.875C373.573 354.875 369.254 359.194 369.254 364.469Z" fill="#0078d4" fill-rule="nonzero" fill-opacity="1" transform="matrix(1.00092 0 0 1 -39 864)"/><path d="M196.616 412.418 321.298 412.418C326.573 412.418 330.888 408.103 330.888 402.828 330.888 397.554 326.573 393.239 321.298 393.239L196.616 393.239C191.342 393.239 187.026 397.554 187.026 402.828 187.026 408.103 191.342 412.418 196.616 412.418Z" fill="#0078d4" fill-rule="nonzero" fill-opacity="1" transform="matrix(1.00092 0 0 1 -39 864)"/><path d="M455.579 393.243 359.668 393.243C354.393 393.243 350.078 397.558 350.078 402.833 350.078 408.107 354.393 412.422 359.668 412.422L455.579 412.422C460.853 412.422 465.168 408.107 465.168 402.833 465.172 397.558 460.853 393.243 455.579 393.243Z" fill="#0078d4" fill-rule="nonzero" fill-opacity="1" transform="matrix(1.00092 0 0 1 -39 864)"/><path d="M561.085 393.243 493.948 393.243C488.674 393.243 484.358 397.558 484.358 402.833 484.358 408.107 488.674 412.422 493.948 412.422L561.085 412.422C566.36 412.422 570.675 408.107 570.675 402.833 570.675 397.558 566.36 393.243 561.085 393.243Z" fill="#0078d4" fill-rule="nonzero" fill-opacity="1" transform="matrix(1.00092 0 0 1 -39 864)"/><path d="M455.579 431.604 417.215 431.604C411.941 431.604 407.625 435.919 407.625 441.194 407.625 446.469 411.941 450.784 417.215 450.784L455.579 450.784C460.853 450.784 465.168 446.469 465.168 441.194 465.172 435.919 460.853 431.604 455.579 431.604Z" fill="#0078d4" fill-rule="nonzero" fill-opacity="1" transform="matrix(1.00092 0 0 1 -39 864)"/><path d="M234.988 441.192C234.988 446.466 239.303 450.782 244.578 450.782L378.858 450.782C384.133 450.782 388.448 446.466 388.448 441.192 388.448 435.917 384.133 431.602 378.858 431.602L244.578 431.602C239.303 431.602 234.988 435.917 234.988 441.192Z" fill="#0078d4" fill-rule="nonzero" fill-opacity="1" transform="matrix(1.00092 0 0 1 -39 864)"/><path d="M196.616 450.79 206.206 450.79C211.481 450.79 215.796 446.475 215.796 441.2 215.796 435.925 211.481 431.61 206.206 431.61L196.616 431.61C191.342 431.61 187.026 435.925 187.026 441.2 187.026 446.471 191.342 450.79 196.616 450.79Z" fill="#0078d4" fill-rule="nonzero" fill-opacity="1" transform="matrix(1.00092 0 0 1 -39 864)"/><path d="M282.937 469.965 196.616 469.965C191.342 469.965 187.026 474.281 187.026 479.555 187.026 484.83 191.342 489.145 196.616 489.145L282.937 489.145C288.212 489.145 292.527 484.83 292.527 479.555 292.531 474.285 288.212 469.965 282.937 469.965Z" fill="#0078d4" fill-rule="nonzero" fill-opacity="1" transform="matrix(1.00092 0 0 1 -39 864)"/><path d="M340.484 469.965 321.3 469.965C316.026 469.965 311.711 474.281 311.711 479.555 311.711 484.83 316.026 489.145 321.3 489.145L340.484 489.145C345.759 489.145 350.074 484.83 350.074 479.555 350.078 474.285 345.759 469.965 340.484 469.965Z" fill="#0078d4" fill-rule="nonzero" fill-opacity="1" transform="matrix(1.00092 0 0 1 -39 864)"/><path d="M445.991 469.965 378.854 469.965C373.579 469.965 369.264 474.281 369.264 479.555 369.264 484.83 373.579 489.145 378.854 489.145L445.991 489.145C451.266 489.145 455.581 484.83 455.581 479.555 455.581 474.285 451.266 469.965 445.991 469.965Z" fill="#0078d4" fill-rule="nonzero" fill-opacity="1" transform="matrix(1.00092 0 0 1 -39 864)"/><path d="M493.95 469.965 484.361 469.965C479.086 469.965 474.771 474.281 474.771 479.555 474.771 484.83 479.086 489.145 484.361 489.145L493.95 489.145C499.225 489.145 503.54 484.83 503.54 479.555 503.54 474.285 499.225 469.965 493.95 469.965Z" fill="#0078d4" fill-rule="nonzero" fill-opacity="1" transform="matrix(1.00092 0 0 1 -39 864)"/><path d="M32.1298-1.9268C30.468-1.05974 28.7419-0.409407 26.9435 0.016031 25.1532 0.453575 23.2866 0.674351 21.3397 0.674351 15.5151 0.674351 10.9031-0.951358 7.49861-4.20689 4.09459-7.45841 2.39253-11.8739 2.39253-17.454 2.39253-23.0418 4.09448-27.4614 7.49861-30.7166 10.9026-33.9681 15.5149-35.5979 21.3397-35.5979 23.2866-35.5979 25.1532-35.3771 26.9435-34.9395 28.7419-34.498 30.468-33.8517 32.1298-32.9967L32.1298-25.7551C30.4599-26.8992 28.8101-27.7341 27.1844-28.26 25.5667-28.7938 23.8606-29.0628 22.0623-29.0628 18.8389-29.0628 16.3059-28.0271 14.4675-25.9639 12.6249-23.9086 11.7057-21.0706 11.7057-17.4539 11.7057-13.8451 12.625-11.0071 14.4675-8.94387 16.306-6.88862 18.8389-5.86099 22.0623-5.86099 23.8606-5.86099 25.5667-6.12191 27.1844-6.64776 28.8101-7.18165 30.4599-8.01656 32.1298-9.15261Z" fill="#0078d4" fill-rule="nonzero" fill-opacity="1" transform="matrix(1.00092 0 0 1 33 1583.34)"/><path d="M23.507-19.0913C22.7764-19.4325 22.0498-19.6854 21.3233-19.846 20.5927-20.0065 19.8661-20.0868 19.1396-20.0868 16.9759-20.0868 15.31-19.3964 14.1459-18.0155 12.9898-16.6346 12.4118-14.6597 12.4118-12.0906L12.4118 0.000452157 4.03026 0.000452157 4.03026-26.2359 12.4118-26.2359 12.4118-21.9167C13.4916-23.6388 14.728-24.8912 16.1209-25.6739 17.5219-26.4647 19.1958-26.8621 21.1466-26.8621 21.4236-26.8621 21.7287-26.85 22.0619-26.83 22.391-26.8059 22.8687-26.7537 23.4909-26.6694Z" fill="#0078d4" fill-rule="nonzero" fill-opacity="1" transform="matrix(1.00092 0 0 1 68.2286 1583.34)"/><path d="M30.203-13.1824 30.203-10.79 10.6144-10.79C10.8151-8.83113 11.5216-7.35792 12.7339-6.37438 13.9542-5.38689 15.6562-4.89716 17.8399-4.89716 19.6062-4.89716 21.4126-5.15809 23.2671-5.68394 25.1176-6.20578 27.0163-7.00054 28.9672-8.06033L28.9672-1.58945C26.9842-0.838802 25.0012-0.276864 23.0102 0.0964738 21.0271 0.481835 19.0481 0.674515 17.0692 0.674515 12.3245 0.674515 8.63948-0.529763 6.00577-2.93822 3.37206-5.34667 2.05577-8.72664 2.05577-13.0861 2.05577-17.3652 3.34432-20.733 5.92541-23.1857 8.51452-25.6343 12.0752-26.8626 16.6035-26.8626 20.722-26.8626 24.0217-25.6183 26.4944-23.1375 28.9671-20.6527 30.2036-17.333 30.2036-13.1823ZM21.5966-15.9763C21.5966-17.558 21.131-18.8385 20.1997-19.8139 19.2684-20.7974 18.0521-21.2911 16.5548-21.2911 14.9251-21.2911 13.6044-20.8295 12.5888-19.9102 11.5812-18.999 10.955-17.6863 10.7102-15.9763Z" fill="#0078d4" fill-rule="nonzero" fill-opacity="1" transform="matrix(1.00092 0 0 1 91.8978 1583.34)"/><path d="M15.7834-11.8013C14.0372-11.8013 12.7205-11.5002 11.8334-10.9021 10.9542-10.312 10.5168-9.44093 10.5168-8.28485 10.5168-7.22516 10.87-6.39421 11.5764-5.79603 12.291-5.1939 13.2825-4.89686 14.5469-4.89686 16.1204-4.89686 17.4411-5.45885 18.5129-6.58278 19.5928-7.71482 20.1346-9.13583 20.1346-10.8378L20.1346-11.8012ZM28.5969-14.9644 28.5969-0.000102763 20.1349-0.000102763 20.1349-3.88577C19.0109-2.28812 17.7465-1.12803 16.3456-0.401495 14.9406 0.313026 13.2346 0.67433 11.2235 0.67433 8.50188 0.67433 6.29402-0.116461 4.59206-1.70206 2.89812-3.28368 2.05505-5.33894 2.05505-7.86783 2.05505-10.9387 3.11474-13.1906 5.23433-14.6277 7.35381-16.0727 10.6776-16.7954 15.2055-16.7954L20.1349-16.7954 20.1349-17.4537C20.1349-18.7784 19.6091-19.7498 18.5614-20.3599 17.5218-20.9781 15.896-21.2912 13.6802-21.2912 11.8819-21.2912 10.2039-21.1066 8.65448-20.7453 7.11304-20.392 5.676-19.8541 4.35129-19.1396L4.35129-25.5302C6.14964-25.9678 7.952-26.3009 9.76237-26.5257 11.5687-26.7505 13.3831-26.8629 15.2056-26.8629 19.9263-26.8629 23.3344-25.9236 25.4337-24.053 27.5412-22.1904 28.5969-19.1597 28.5969-14.9648Z" fill="#0078d4" fill-rule="nonzero" fill-opacity="1" transform="matrix(1.00092 0 0 1 124.454 1583.34)"/><path d="M13.1824-33.6713 13.1824-26.237 21.8209-26.237 21.8209-20.2317 13.1824-20.2317 13.1824-9.10459C13.1824-7.89229 13.4233-7.06937 13.905-6.63191 14.3947-6.20239 15.3581-5.98964 16.7952-5.98964L21.0984-5.98964 21.0984-0.000513814 13.905-0.000513814C10.5972-0.000513814 8.25301-0.690957 6.87208-2.0718 5.49116-3.45265 4.80079-5.79696 4.80079-9.10469L4.80079-20.2319 0.626052-20.2319 0.626052-26.2371 4.80079-26.2371 4.80079-33.6714Z" fill="#0078d4" fill-rule="nonzero" fill-opacity="1" transform="matrix(1.00092 0 0 1 156.842 1583.34)"/><path d="M30.203-13.1824 30.203-10.79 10.6144-10.79C10.8151-8.83113 11.5216-7.35792 12.7339-6.37438 13.9542-5.38689 15.6562-4.89716 17.8399-4.89716 19.6062-4.89716 21.4126-5.15809 23.2671-5.68394 25.1176-6.20578 27.0163-7.00054 28.9672-8.06033L28.9672-1.58945C26.9842-0.838802 25.0012-0.276864 23.0102 0.0964738 21.0271 0.481835 19.0481 0.674515 17.0692 0.674515 12.3245 0.674515 8.63948-0.529763 6.00577-2.93822 3.37206-5.34667 2.05577-8.72664 2.05577-13.0861 2.05577-17.3652 3.34432-20.733 5.92541-23.1857 8.51452-25.6343 12.0752-26.8626 16.6035-26.8626 20.722-26.8626 24.0217-25.6183 26.4944-23.1375 28.9671-20.6527 30.2036-17.333 30.2036-13.1823ZM21.5966-15.9763C21.5966-17.558 21.131-18.8385 20.1997-19.8139 19.2684-20.7974 18.0521-21.2911 16.5548-21.2911 14.9251-21.2911 13.6044-20.8295 12.5888-19.9102 11.5812-18.999 10.955-17.6863 10.7102-15.9763Z" fill="#0078d4" fill-rule="nonzero" fill-opacity="1" transform="matrix(1.00092 0 0 1 179.788 1583.34)"/><path d="M21.869-22.3828 21.869-36.4325 30.2987-36.4325 30.2987 0 21.869 0 21.869-3.78938C20.7129-2.24794 19.4364-1.1159 18.0474-0.401392 16.6665 0.313129 15.0609 0.674433 13.2304 0.674433 9.99503 0.674433 7.34159-0.610103 5.26629-3.17918 3.18699-5.74825 2.15134-9.04786 2.15134-13.0861 2.15134-17.1324 3.18699-20.4401 5.26629-23.0091 7.34159-25.5782 9.99503-26.8627 13.2304-26.8627 15.0368-26.8627 16.6384-26.4974 18.0314-25.7709 19.4324-25.0403 20.7129-23.9123 21.869-22.3829ZM16.3455-5.41047C18.1438-5.41047 19.5126-6.06076 20.456-7.36933 21.3953-8.68593 21.869-10.5887 21.869-13.0855 21.869-15.5904 21.3953-17.4931 20.456-18.8017 19.5126-20.1183 18.1438-20.7767 16.3455-20.7767 14.5672-20.7767 13.2024-20.1184 12.251-18.8017 11.3076-17.4931 10.838-15.5904 10.838-13.0855 10.838-10.5887 11.3076-8.68603 12.251-7.36933 13.2023-6.06075 14.5672-5.41047 16.3455-5.41047Z" fill="#0078d4" fill-rule="nonzero" fill-opacity="1" transform="matrix(1.00092 0 0 1 212.345 1583.34)"/><path d="M17.9835-5.41108C19.7819-5.41108 21.1507-6.06138 22.094-7.36995 23.0333-8.68655 23.507-10.5893 23.507-13.0861 23.507-15.591 23.0333-17.4937 22.094-18.8023 21.1507-20.1189 19.7819-20.7773 17.9835-20.7773 16.1852-20.7773 14.8042-20.111 13.8409-18.7863 12.8856-17.4697 12.4119-15.5669 12.4119-13.0861 12.4119-10.6013 12.8856-8.70268 13.8409-7.38598 14.8043-6.06938 16.1852-5.41098 17.9835-5.41098ZM12.4118-22.3834C13.5679-23.9128 14.8444-25.0407 16.2494-25.7714 17.6503-26.498 19.268-26.8632 21.0986-26.8632 24.3299-26.8632 26.9834-25.5787 29.0627-23.0096 31.138-20.4406 32.1776-17.1328 32.1776-13.0866 32.1776-9.04837 31.138-5.74876 29.0627-3.17969 26.9834-0.610617 24.3299 0.673919 21.0986 0.673919 19.2681 0.673919 17.6503 0.312646 16.2494-0.401906 14.8444-1.12847 13.5679-2.25647 12.4118-3.78989L12.4118-0.000513814 4.03026-0.000513814 4.03026-36.433 12.4118-36.433Z" fill="#0078d4" fill-rule="nonzero" fill-opacity="1" transform="matrix(1.00092 0 0 1 263.416 1583.34)"/><path d="M0.578041-26.2364 8.97572-26.2364 16.0246-8.42964 22.0138-26.2364 30.3953-26.2364 19.3647 2.48892C18.2609 5.39916 16.9723 7.43839 15.4951 8.60649 14.0179 9.77059 12.067 10.3566 9.65046 10.3566L4.80129 10.3566 4.80129 4.84917 7.41855 4.84917C8.83956 4.84917 9.8752 4.61635 10.5175 4.15873 11.1678 3.70914 11.6776 2.89824 12.0429 1.73414L12.2677 1.0116Z" fill="#0078d4" fill-rule="nonzero" fill-opacity="1" transform="matrix(1.00092 0 0 1 297.773 1583.34)"/><path d="M28.7417-33.8634 28.7417-26.4613C26.8149-27.3164 24.9363-27.9626 23.1058-28.4042 21.2834-28.8417 19.5613-29.0625 17.9356-29.0625 15.784-29.0625 14.1864-28.7614 13.1508-28.1633 12.1231-27.5732 11.6093-26.6539 11.6093-25.4016 11.6093-24.4703 11.9545-23.7397 12.653-23.2179 13.3474-22.692 14.6119-22.2424 16.4424-21.8691L20.2799-21.0984C24.1656-20.3156 26.9275-19.1274 28.5652-17.5337 30.2111-15.9481 31.0379-13.6841 31.0379-10.7417 31.0379-6.88811 29.8898-4.01795 27.6017-2.13533 25.3096-0.26073 21.8133 0.674618 17.1168 0.674618 14.901 0.674618 12.6731 0.465886 10.4372 0.0484013 8.20932-0.369073 5.97751-0.995259 3.7416-1.83021L3.7416-9.44103C5.97751-8.25289 8.13307-7.35772 10.2125-6.75954 12.2998-6.15741 14.311-5.86036 16.2498-5.86036 18.2168-5.86036 19.722-6.18551 20.7617-6.83982 21.8094-7.49011 22.3352-8.42945 22.3352-9.64976 22.3352-10.7416 21.982-11.5806 21.2755-12.1706 20.569-12.7688 19.148-13.3027 17.0205-13.7763L13.5362-14.547C10.0359-15.2937 7.47487-16.4899 5.86108-18.1277 4.24339-19.7655 3.43649-21.9733 3.43649-24.7591 3.43649-28.2354 4.56051-30.9128 6.80835-32.7874 9.05629-34.658 12.2877-35.5974 16.5066-35.5974 18.4334-35.5974 20.4084-35.4529 22.4315-35.1639 24.4627-34.8748 26.5661-34.4413 28.7417-33.8633Z" fill="#0078d4" fill-rule="nonzero" fill-opacity="1" transform="matrix(1.00092 0 0 1 345.774 1583.34)"/><path d="M28.3399-21.869C29.3996-23.4947 30.6561-24.7311 32.1133-25.5781 33.5785-26.4331 35.1842-26.8626 36.9303-26.8626 39.949-26.8626 42.2451-25.9313 43.8186-24.0687 45.3921-22.2141 46.179-19.5166 46.179-15.9761L46.179 0.000411052 37.7492 0.000411052 37.7492-13.6794C37.7693-13.8801 37.7813-14.0888 37.7813-14.3056 37.7894-14.5304 37.7974-14.8395 37.7974-15.2369 37.7974-17.0995 37.5244-18.4482 36.9785-19.2832 36.4326-20.1181 35.5495-20.5357 34.3292-20.5357 32.7315-20.5357 31.5032-19.8773 30.6361-18.5607 29.769-17.2521 29.3235-15.3573 29.3033-12.8766L29.3033 0.000585748 20.8736 0.000585748 20.8736-13.6792C20.8736-16.5774 20.6207-18.448 20.1189-19.283 19.6131-20.1179 18.726-20.5354 17.4535-20.5354 15.8358-20.5354 14.5873-19.8771 13.7123-18.5604 12.8452-17.2438 12.4117-15.3571 12.4117-12.9085L12.4117 0.000585748 3.98197 0.000585748 3.98197-26.2358 12.4117-26.2358 12.4117-22.3822C13.4393-23.8674 14.6195-24.9874 15.9602-25.738 17.297-26.4847 18.7702-26.862 20.3758-26.862 22.1822-26.862 23.7839-26.4205 25.1768-25.5454 26.5658-24.6784 27.6214-23.45 28.34-21.8685Z" fill="#0078d4" fill-rule="nonzero" fill-opacity="1" transform="matrix(1.00092 0 0 1 380.344 1583.34)"/><path d="M15.7834-11.8013C14.0372-11.8013 12.7205-11.5002 11.8334-10.9021 10.9542-10.312 10.5168-9.44093 10.5168-8.28485 10.5168-7.22516 10.87-6.39421 11.5764-5.79603 12.291-5.1939 13.2825-4.89686 14.5469-4.89686 16.1204-4.89686 17.4411-5.45885 18.5129-6.58278 19.5928-7.71482 20.1346-9.13583 20.1346-10.8378L20.1346-11.8012ZM28.5969-14.9644 28.5969-0.000102763 20.1349-0.000102763 20.1349-3.88577C19.0109-2.28812 17.7465-1.12803 16.3456-0.401495 14.9406 0.313026 13.2346 0.67433 11.2235 0.67433 8.50188 0.67433 6.29402-0.116461 4.59206-1.70206 2.89812-3.28368 2.05505-5.33894 2.05505-7.86783 2.05505-10.9387 3.11474-13.1906 5.23433-14.6277 7.35381-16.0727 10.6776-16.7954 15.2055-16.7954L20.1349-16.7954 20.1349-17.4537C20.1349-18.7784 19.6091-19.7498 18.5614-20.3599 17.5218-20.9781 15.896-21.2912 13.6802-21.2912 11.8819-21.2912 10.2039-21.1066 8.65448-20.7453 7.11304-20.392 5.676-19.8541 4.35129-19.1396L4.35129-25.5302C6.14964-25.9678 7.952-26.3009 9.76237-26.5257 11.5687-26.7505 13.3831-26.8629 15.2056-26.8629 19.9263-26.8629 23.3344-25.9236 25.4337-24.053 27.5412-22.1904 28.5969-19.1597 28.5969-14.9648Z" fill="#0078d4" fill-rule="nonzero" fill-opacity="1" transform="matrix(1.00092 0 0 1 430.358 1583.34)"/><path d="M24.5182-25.402 24.5182-19.0435C22.7198-19.7901 20.9857-20.3521 19.3158-20.7294 17.6459-21.1027 16.0724-21.2914 14.5951-21.2914 12.9974-21.2914 11.8093-21.0867 11.0305-20.6813 10.2597-20.2839 9.87438-19.6737 9.87438-18.8509 9.87438-18.1765 10.1674-17.6546 10.7575-17.2934 11.3436-16.9401 12.3953-16.6752 13.9046-16.5066L15.3818-16.2979C19.673-15.7519 22.5592-14.8528 24.0364-13.6003 25.5217-12.356 26.2683-10.397 26.2683-7.72355 26.2683-4.92963 25.2327-2.83028 23.1694-1.42932 21.1142-0.0243445 18.0393 0.674135 13.9528 0.674135 12.2187 0.674135 10.4243 0.533637 8.57379 0.256661 6.73126-0.00827241 4.83261-0.417721 2.87364-0.963649L2.87364-7.33813C4.54354-6.52325 6.25361-5.91312 8.01178-5.50772 9.77807-5.09827 11.5643-4.89757 13.3748-4.89757 15.0126-4.89757 16.2409-5.12236 17.0679-5.57195 17.9028-6.02153 18.3203-6.69597 18.3203-7.59514 18.3203-8.34178 18.0313-8.89972 17.4533-9.26504 16.8833-9.62631 15.7513-9.91133 14.0493-10.116L12.572-10.3087C8.84689-10.7663 6.23363-11.6294 4.73637-12.8938 3.23511-14.1663 2.48843-16.0891 2.48843-18.6582 2.48843-21.44 3.43578-23.4993 5.33044-24.84 7.2332-26.1888 10.1555-26.8632 14.0974-26.8632 15.6388-26.8632 17.2605-26.7428 18.9626-26.51 20.6645-26.2731 22.5151-25.9038 24.5181-25.4021Z" fill="#0078d4" fill-rule="nonzero" fill-opacity="1" transform="matrix(1.00092 0 0 1 462.75 1583.34)"/><path d="M30.3952-15.9765 30.3952 0 21.9655 0 21.9655-12.1712C21.9655-14.4714 21.9093-16.0489 21.8049-16.908 21.7086-17.763 21.5359-18.3932 21.2911-18.8027 20.9579-19.3487 20.5083-19.7701 19.9423-20.0712 19.3843-20.3803 18.7461-20.5369 18.0315-20.5369 16.2854-20.5369 14.9085-19.8625 13.905-18.5137 12.9095-17.1649 12.4118-15.2943 12.4118-12.9099L12.4118-0.000842656 4.03021-0.000842656 4.03021-36.4334 12.4118-36.4334 12.4118-22.3836C13.6722-23.913 15.017-25.041 16.442-25.7716 17.863-26.4982 19.4326-26.8635 21.1466-26.8635 24.1733-26.8635 26.4694-25.9322 28.0349-24.0696 29.6084-22.215 30.3953-19.5175 30.3953-15.977Z" fill="#0078d4" fill-rule="nonzero" fill-opacity="1" transform="matrix(1.00092 0 0 1 491.321 1583.34)"/><path d="M4.03026-26.2364 12.4118-26.2364 12.4118 0 4.03026 0ZM4.03026-36.4324 12.4118-36.4324 12.4118-29.6083 4.03026-29.6083Z" fill="#0078d4" fill-rule="nonzero" fill-opacity="1" transform="matrix(1.00092 0 0 1 525.493 1583.34)"/><path d="M25.2252-25.402 25.2252-18.5779C24.0771-19.3566 22.9331-19.9347 21.789-20.312 20.641-20.6853 19.4528-20.874 18.2244-20.874 15.8802-20.874 14.0536-20.1876 12.7491-18.8187 11.4405-17.4459 10.7902-15.5352 10.7902-13.0865 10.7902-10.6339 11.4405-8.72311 12.7491-7.35431 14.0536-5.99352 15.8802-5.31508 18.2244-5.31508 19.529-5.31508 20.7694-5.50776 21.9495-5.89312 23.1257-6.28651 24.2175-6.86455 25.2251-7.62725L25.2251-0.771009C23.9085-0.289308 22.5758 0.0679571 21.227 0.304815 19.8782 0.549679 18.5215 0.674124 17.1647 0.674124 12.4319 0.674124 8.72693-0.534161 6.05397-2.95464 3.3885-5.38323 2.05587-8.7591 2.05587-13.0864 2.05587-17.4097 3.38861-20.7856 6.05397-23.2182 8.72745-25.6468 12.4325-26.8631 17.1647-26.8631 18.5335-26.8631 19.8863-26.7387 21.227-26.4938 22.5637-26.257 23.8965-25.8917 25.2251-25.402Z" fill="#0078d4" fill-rule="nonzero" fill-opacity="1" transform="matrix(1.00092 0 0 1 541.946 1583.34)"/><path d="M16.5058-20.8732C14.6512-20.8732 13.2342-20.2028 12.2508-18.8661 11.2753-17.5254 10.7896-15.5986 10.7896-13.0857 10.7896-10.5689 11.2753-8.64205 12.2508-7.30531 13.2342-5.97659 14.6512-5.31428 16.5058-5.31428 18.3362-5.31428 19.7331-5.97662 20.6965-7.30531 21.668-8.64205 22.1577-10.5689 22.1577-13.0857 22.1577-15.5986 21.668-17.5254 20.6965-18.8661 19.7331-20.2029 18.3362-20.8732 16.5058-20.8732ZM16.5058-26.8623C21.0217-26.8623 24.5502-25.642 27.0873-23.2014 29.6243-20.7688 30.8927-17.3969 30.8927-13.0856 30.8927-8.78242 29.6242-5.41047 27.0873-2.96985 24.5503-0.537244 21.0219 0.675049 16.5058 0.675049 11.9778 0.675049 8.43324-0.537244 5.87598-2.96985 3.32695-5.41047 2.05444-8.78232 2.05444-13.0856 2.05444-17.3968 3.32695-20.7688 5.87598-23.2014 8.43303-25.642 11.9775-26.8623 16.5058-26.8623Z" fill="#0078d4" fill-rule="nonzero" fill-opacity="1" transform="matrix(1.00092 0 0 1 570.396 1583.34)"/><path d="M30.3952-15.9765 30.3952 0 21.9655 0 21.9655-12.2195C21.9655-14.4875 21.9093-16.0491 21.8049-16.9081 21.7086-17.7631 21.5359-18.3933 21.2911-18.8028 20.9579-19.3488 20.5083-19.7703 19.9423-20.0713 19.3843-20.3804 18.7461-20.537 18.0315-20.537 16.2854-20.537 14.9085-19.8626 13.905-18.5138 12.9095-17.165 12.4118-15.2944 12.4118-12.91L12.4118-0.000945418 4.03021-0.000945418 4.03021-26.2373 12.4118-26.2373 12.4118-22.3837C13.6722-23.9131 15.017-25.0411 16.442-25.7717 17.863-26.4983 19.4326-26.8636 21.1466-26.8636 24.1733-26.8636 26.4694-25.9323 28.0349-24.0697 29.6084-22.2151 30.3953-19.5176 30.3953-15.9771Z" fill="#0078d4" fill-rule="nonzero" fill-opacity="1" transform="matrix(1.00092 0 0 1 603.375 1583.34)"/><path d="M24.5182-25.402 24.5182-19.0435C22.7198-19.7901 20.9857-20.3521 19.3158-20.7294 17.6459-21.1027 16.0724-21.2914 14.5951-21.2914 12.9974-21.2914 11.8093-21.0867 11.0305-20.6813 10.2597-20.2839 9.87438-19.6737 9.87438-18.8509 9.87438-18.1765 10.1674-17.6546 10.7575-17.2934 11.3436-16.9401 12.3953-16.6752 13.9046-16.5066L15.3818-16.2979C19.673-15.7519 22.5592-14.8528 24.0364-13.6003 25.5217-12.356 26.2683-10.397 26.2683-7.72355 26.2683-4.92963 25.2327-2.83028 23.1694-1.42932 21.1142-0.0243445 18.0393 0.674135 13.9528 0.674135 12.2187 0.674135 10.4243 0.533637 8.57379 0.256661 6.73126-0.00827241 4.83261-0.417721 2.87364-0.963649L2.87364-7.33813C4.54354-6.52325 6.25361-5.91312 8.01178-5.50772 9.77807-5.09827 11.5643-4.89757 13.3748-4.89757 15.0126-4.89757 16.2409-5.12236 17.0679-5.57195 17.9028-6.02153 18.3203-6.69597 18.3203-7.59514 18.3203-8.34178 18.0313-8.89972 17.4533-9.26504 16.8833-9.62631 15.7513-9.91133 14.0493-10.116L12.572-10.3087C8.84689-10.7663 6.23363-11.6294 4.73637-12.8938 3.23511-14.1663 2.48843-16.0891 2.48843-18.6582 2.48843-21.44 3.43578-23.4993 5.33044-24.84 7.2332-26.1888 10.1555-26.8632 14.0974-26.8632 15.6388-26.8632 17.2605-26.7428 18.9626-26.51 20.6645-26.2731 22.5151-25.9038 24.5181-25.4021Z" fill="#0078d4" fill-rule="nonzero" fill-opacity="1" transform="matrix(1.00092 0 0 1 637.547 1583.34)"/></g></g></g></g></svg>