<svg width="722" height="592" xmlns="http://www.w3.org/2000/svg" xmlns:xlink="http://www.w3.org/1999/xlink" xml:space="preserve" overflow="hidden"><defs><clipPath id="clip0"><rect x="450" y="782" width="722" height="592"/></clipPath><clipPath id="clip1"><rect x="451" y="783" width="720" height="591"/></clipPath><clipPath id="clip2"><rect x="451" y="783" width="720" height="591"/></clipPath><clipPath id="clip3"><rect x="451" y="783" width="720" height="721"/></clipPath></defs><g clip-path="url(#clip0)" transform="translate(-450 -782)"><g clip-path="url(#clip1)"><g clip-path="url(#clip2)"><g clip-path="url(#clip3)"><path d="M395.373 503.321 395.381 503.321ZM317.357 380.314C311.656 380.314 306.992 384.923 306.935 390.636L305.922 502.503C305.87 508.253 310.503 512.97 316.252 513.019L380.393 513.601C383.222 513.633 385.785 512.569 387.774 510.604 389.771 508.651 390.884 506.048 390.904 503.271L391.33 456.322C391.354 453.875 393.343 451.898 395.786 451.898L395.826 451.898C405.453 451.983 406.518 450.227 406.558 446.454L407.1 386.681C407.12 384.527 406.441 383.615 405.927 383.113 403.094 380.345 394.971 380.638 389.594 380.823 387.927 380.883 386.356 380.939 384.93 380.931L384.905 380.931 317.45 380.316 317.353 380.316ZM380.494 522.514 380.313 522.514 316.173 521.936C305.505 521.843 296.911 513.084 297.007 502.421L298.024 390.553C298.116 379.954 306.779 371.392 317.358 371.392L317.539 371.392 384.878 372.007 384.902 372.007C386.24 372.015 387.719 371.962 389.286 371.914 397 371.633 406.595 371.296 412.159 376.724 414.763 379.255 416.061 382.638 416.024 386.756L415.486 446.53C415.386 457.888 406.591 460.247 400.218 460.717L399.832 503.358C399.784 508.513 397.727 513.347 394.03 516.97 390.382 520.558 385.581 522.519 380.499 522.519Z" fill="#0078d4" fill-rule="nonzero" fill-opacity="1" transform="matrix(1 0 0 1.00002 451 783)"/><path d="M224.373 501.696 224.385 501.696ZM146.366 378.689C140.664 378.689 135.996 383.298 135.943 389.015L134.931 500.882C134.903 503.651 135.971 506.274 137.928 508.267 139.889 510.252 142.488 511.373 145.261 511.393L209.397 511.972 209.494 511.972C215.199 511.972 219.864 507.363 219.916 501.646L220.342 454.697C220.366 452.25 222.355 450.273 224.798 450.273L224.838 450.273C234.477 450.366 235.53 448.602 235.562 444.829L236.104 385.043C236.124 383.577 235.554 382.191 234.509 381.118 233.465 380.061 232.078 379.47 230.612 379.458L213.938 379.306 213.877 379.306 146.462 378.691 146.365 378.691ZM209.498 520.889 209.318 520.889 145.177 520.307C140.026 520.262 135.197 518.205 131.565 514.509 127.937 510.812 125.968 505.935 126.012 500.796L127.025 388.928C127.121 378.322 135.784 369.763 146.367 369.763L146.544 369.763 213.883 370.378 213.948 370.378 230.698 370.526C234.555 370.563 238.167 372.097 240.883 374.858 243.595 377.626 245.07 381.274 245.038 385.115L244.495 444.897C244.391 456.255 235.6 458.614 229.223 459.076L228.841 501.721C228.745 512.321 220.086 520.887 209.503 520.887Z" fill="#0078d4" fill-rule="nonzero" fill-opacity="1" transform="matrix(1 0 0 1.00002 451 783)"/><path d="M534.178 380.674 534.138 380.674C531.675 380.65 529.698 378.629 529.718 376.166L530.305 311.925C530.329 309.486 532.318 307.513 534.769 307.513L534.809 307.513C537.272 307.533 539.249 309.542 539.225 312.009L538.638 376.251C538.614 378.698 536.625 380.674 534.182 380.674Z" fill="#0078d4" fill-rule="nonzero" fill-opacity="1" transform="matrix(1 0 0 1.00002 451 783)"/><path d="M356.225 380.674 356.189 380.674C353.722 380.65 351.745 378.629 351.769 376.166L352.352 312.17C352.372 309.719 354.361 307.754 356.808 307.754L356.848 307.754C359.311 307.778 361.288 309.787 361.264 312.25L360.685 376.255C360.661 378.702 358.672 380.679 356.221 380.679Z" fill="#0078d4" fill-rule="nonzero" fill-opacity="1" transform="matrix(1 0 0 1.00002 451 783)"/><path d="M185.246 379.049 185.206 379.049C182.743 379.025 180.762 377.004 180.786 374.541L181.352 311.971C181.372 309.52 183.365 307.547 185.808 307.547L185.848 307.547C188.311 307.572 190.288 309.593 190.264 312.055L189.702 374.621C189.677 377.072 187.689 379.053 185.246 379.053Z" fill="#0078d4" fill-rule="nonzero" fill-opacity="1" transform="matrix(1 0 0 1.00002 451 783)"/><path d="M254.355 108.062C228.03 108.062 204.145 124.728 195.582 150.84 194.983 152.664 193.284 153.906 191.355 153.906 149.079 154.042 114.682 188.54 114.682 230.819 114.682 273.24 149.188 307.745 191.6 307.745L528.406 307.745C570.818 307.745 605.331 273.24 605.331 230.819 605.331 207.322 594.805 185.442 576.451 170.793 558.017 156.064 534.271 150.607 511.322 155.811 509.944 156.124 508.509 155.766 507.437 154.858 499.268 147.887 489.34 143.568 478.709 142.359 476.853 142.15 475.322 140.808 474.88 138.992 470.934 122.856 459.965 109.69 444.773 102.847 429.509 95.9847 412.333 96.4669 397.648 104.205 396.523 104.796 395.202 104.88 394.008 104.438 392.823 104 391.879 103.072 391.413 101.883 382.031 77.8966 359.322 62.4032 333.568 62.4032 306.327 62.4032 281.866 80.6038 274.063 106.684 273.388 108.938 271.074 110.284 268.78 109.738 263.938 108.613 259.1 108.066 254.348 108.066ZM528.408 316.677 191.602 316.677C144.267 316.677 105.761 278.169 105.761 230.823 105.761 184.702 142.448 146.87 188.167 145.057 194.073 129.432 205.243 116.447 219.9 108.246 234.232 100.23 250.745 97.4335 266.817 100.23 276.913 72.5071 303.797 53.4785 333.577 53.4785 361.421 53.4785 386.159 69.3206 397.842 94.2233 413.954 87.2443 432.143 87.3688 448.443 94.7095 465.221 102.275 477.588 116.459 482.755 133.911 493.281 135.631 503.13 139.986 511.515 146.644 536.453 141.65 562.039 147.854 582.029 163.824 602.503 180.181 614.26 204.594 614.26 230.822 614.26 278.169 575.741 316.676 528.414 316.676Z" fill="#0078d4" fill-rule="nonzero" fill-opacity="1" transform="matrix(1 0 0 1.00002 451 783)"/><path d="M573.315 503.321 573.332 503.321ZM495.313 380.314C489.607 380.314 484.943 384.923 484.89 390.636L483.878 502.503C483.821 508.253 488.454 512.97 494.204 513.019L558.344 513.601C561.133 513.633 563.736 512.569 565.725 510.604 567.722 508.651 568.835 506.048 568.855 503.271L569.281 456.322C569.305 453.875 571.294 451.898 573.745 451.898L573.781 451.898C583.42 451.991 584.48 450.227 584.517 446.454L585.047 386.681C585.072 384.527 584.397 383.615 583.886 383.113 581.05 380.345 572.922 380.638 567.545 380.823 565.878 380.883 564.307 380.939 562.881 380.931L562.856 380.931 495.405 380.316 495.312 380.316ZM558.45 522.514 558.265 522.514 494.128 521.936C483.465 521.843 474.866 513.084 474.959 502.421L475.975 390.553C476.072 379.954 484.73 371.392 495.317 371.392L495.494 371.392 562.834 372.007 562.858 372.007C564.196 372.015 565.674 371.962 567.241 371.914 574.956 371.633 584.55 371.296 590.111 376.724 592.726 379.255 594.028 382.638 593.98 386.756L593.445 446.53C593.341 457.888 584.55 460.247 578.169 460.717L577.787 503.358C577.743 508.513 575.686 513.347 571.99 516.97 568.337 520.558 563.536 522.519 558.454 522.519Z" fill="#0078d4" fill-rule="nonzero" fill-opacity="1" transform="matrix(1 0 0 1.00002 451 783)"/><path d="M11.1209-0.658923C10.5504-0.369638 9.95575-0.148659 9.33696 0 8.71419 0.160714 8.06729 0.241077 7.39234 0.241077 5.36729 0.241077 3.76426-0.321429 2.58696-1.4464 1.40575-2.57947 0.819051-4.11431 0.819051-6.04288 0.819051-7.97145 1.40566-9.49826 2.58696-10.6232 3.76416-11.7563 5.36729-12.3267 7.39234-12.3267 8.06734-12.3267 8.71426-12.2464 9.33696-12.0857 9.95571-11.933 10.5504-11.716 11.1209-11.4267L11.1209-8.91959C10.5423-9.31333 9.96778-9.60262 9.40125-9.78744 8.84276-9.96825 8.25213-10.0607 7.63334-10.0607 6.51641-10.0607 5.64048-9.69905 4.99762-8.98384 4.3628-8.2767 4.0494-7.29637 4.0494-6.04274 4.0494-4.78912 4.3628-3.80077 4.99762-3.0856 5.64048-2.37846 6.51641-2.02494 7.63334-2.02494 8.25208-2.02494 8.84273-2.11333 9.40125-2.29815 9.96776-2.47895 10.5423-2.76824 11.1209-3.166Z" fill="#0078d4" fill-rule="nonzero" fill-opacity="1" transform="matrix(1 0 0 1.00002 523 1408.84)"/><path d="M8.13209-6.60538C7.88298-6.7219 7.63387-6.80627 7.37673-6.86253 7.12762-6.92681 6.87851-6.95895 6.62137-6.95895 5.87003-6.95895 5.29142-6.71788 4.88565-6.23575 4.48788-5.7536 4.29102-5.06657 4.29102-4.1786L4.29102-3.08571e-05 1.39816-3.08571e-05 1.39816-9.08036 4.29102-9.08036 4.29102-7.58575C4.66467-8.18441 5.09459-8.61833 5.57673-8.88751 6.05887-9.16474 6.63739-9.30536 7.31244-9.30536 7.41691-9.30536 7.52539-9.29733 7.63387-9.28929 7.75039-9.27724 7.91512-9.26117 8.13209-9.24108Z" fill="#0078d4" fill-rule="nonzero" fill-opacity="1" transform="matrix(1 0 0 1.00002 535.19 1408.84)"/><path d="M10.4626-4.56429 10.4626-3.74464 3.66439-3.74464C3.73671-3.05758 3.98582-2.54327 4.40367-2.20178 4.82956-1.85624 5.42019-1.68749 6.17158-1.68749 6.7823-1.68749 7.40906-1.77589 8.05191-1.9607 8.69477-2.14151 9.35367-2.41874 10.0287-2.79642L10.0287-0.546418C9.34167-0.289275 8.65466-0.0964183 7.97158 0.0321531 7.28453 0.168758 6.59751 0.241077 5.91444 0.241077 4.26307 0.241077 2.98137-0.176781 2.07334-1.01255 1.16129-1.84826 0.707297-3.02145 0.707297-4.53222 0.707297-6.01079 1.14926-7.17194 2.04125-8.01969 2.94125-8.87549 4.17873-9.3054 5.75378-9.3054 7.17609-9.3054 8.31718-8.87147 9.17697-8.00364 10.0328-7.14382 10.4627-5.99875 10.4627-4.56431ZM7.47339-5.52857C7.47339-6.075 7.31268-6.51295 6.99125-6.84638 6.66982-7.18789 6.25197-7.36066 5.73763-7.36066 5.16709-7.36066 4.70906-7.19995 4.35543-6.87852 4.0099-6.56512 3.79695-6.11513 3.71258-5.52852Z" fill="#0078d4" fill-rule="nonzero" fill-opacity="1" transform="matrix(1 0 0 1.00002 543.379 1408.84)"/><path d="M5.46429-4.08219C4.85357-4.08219 4.39149-3.97773 4.08209-3.77683 3.78075-3.57192 3.63209-3.27058 3.63209-2.87683 3.63209-2.49915 3.75263-2.20585 4.00174-1.9929 4.24683-1.78799 4.58834-1.68754 5.03031-1.68754 5.57674-1.68754 6.03477-1.88441 6.41251-2.28217 6.78617-2.67592 6.97501-3.17012 6.97501-3.76075L6.97501-4.08217ZM9.9-5.17505 9.9-0.000102857 6.97495-0.000102857 6.97495-1.3501C6.57718-0.791619 6.13923-0.385817 5.65714-0.128674 5.175 0.116414 4.58434 0.240974 3.88923 0.240974 2.94504 0.240974 2.17759-0.0322354 1.59099-0.578674 1.00037-1.13314 0.707061-1.84834 0.707061-2.71615 0.707061-3.78494 1.06867-4.5684 1.79992-5.06253 2.5392-5.56476 3.68827-5.81789 5.2553-5.81789L6.97497-5.81789 6.97497-6.04289C6.97497-6.50092 6.79015-6.8344 6.42854-7.03932 6.06291-7.25226 5.50042-7.36075 4.74107-7.36075 4.1183-7.36075 3.5397-7.29646 3.00535-7.16789 2.46696-7.04735 1.96876-6.86655 1.51073-6.62146L1.51073-8.83927C2.12948-8.98793 2.75222-9.10043 3.37502-9.17676 4.00582-9.26114 4.63266-9.30533 5.25535-9.30533 6.89469-9.30533 8.0759-8.97587 8.80711-8.32498 9.53434-7.68212 9.89997-6.62948 9.89997-5.17498Z" fill="#0078d4" fill-rule="nonzero" fill-opacity="1" transform="matrix(1 0 0 1.00002 554.645 1408.84)"/><path d="M4.56429-11.6517 4.56429-9.08023 7.55352-9.08023 7.55352-7.00704 4.56429-7.00704 4.56429-3.1499C4.56429-2.73204 4.64464-2.44678 4.80536-2.29812 4.97411-2.14544 5.31162-2.07312 5.81787-2.07312L7.29644-2.07312 7.29644 7.2e-05 4.82149 7.2e-05C3.67237 7.2e-05 2.86083-0.232961 2.37863-0.707071 1.89649-1.18921 1.65542-2.00081 1.65542-3.14993L1.65542-7.00707 0.225093-7.00707 0.225093-9.08026 1.65542-9.08026 1.65542-11.6517Z" fill="#0078d4" fill-rule="nonzero" fill-opacity="1" transform="matrix(1 0 0 1.00002 565.854 1408.84)"/><path d="M10.4626-4.56429 10.4626-3.74464 3.66439-3.74464C3.73671-3.05758 3.98582-2.54327 4.40367-2.20178 4.82956-1.85624 5.42019-1.68749 6.17158-1.68749 6.7823-1.68749 7.40906-1.77589 8.05191-1.9607 8.69477-2.14151 9.35367-2.41874 10.0287-2.79642L10.0287-0.546418C9.34167-0.289275 8.65466-0.0964183 7.97158 0.0321531 7.28453 0.168758 6.59751 0.241077 5.91444 0.241077 4.26307 0.241077 2.98137-0.176781 2.07334-1.01255 1.16129-1.84826 0.707297-3.02145 0.707297-4.53222 0.707297-6.01079 1.14926-7.17194 2.04125-8.01969 2.94125-8.87549 4.17873-9.3054 5.75378-9.3054 7.17609-9.3054 8.31718-8.87147 9.17697-8.00364 10.0328-7.14382 10.4627-5.99875 10.4627-4.56431ZM7.47339-5.52857C7.47339-6.075 7.31268-6.51295 6.99125-6.84638 6.66982-7.18789 6.25197-7.36066 5.73763-7.36066 5.16709-7.36066 4.70906-7.19995 4.35543-6.87852 4.0099-6.56512 3.79695-6.11513 3.71258-5.52852Z" fill="#0078d4" fill-rule="nonzero" fill-opacity="1" transform="matrix(1 0 0 1.00002 573.794 1408.84)"/><path d="M7.56967-7.74638 7.56967-12.616 10.4947-12.616 10.4947 0.000411429 7.56967 0.000411429 7.56967-1.31739C7.1719-0.778999 6.73395-0.385251 6.25186-0.12816 5.76972 0.116928 5.21126 0.241488 4.58043 0.241488 3.46351 0.241488 2.54335-0.200479 1.81615-1.09247 1.09695-1.98041 0.739337-3.12554 0.739337-4.5318 0.739337-5.93405 1.09693-7.07916 1.81615-7.97114 2.54338-8.85909 3.46351-9.3051 4.58043-9.3051 5.19918-9.3051 5.75362-9.17652 6.23582-8.91938 6.72599-8.67027 7.17198-8.28055 7.56977-7.74619ZM5.65714-1.88033C6.27589-1.88033 6.75-2.10533 7.07143-2.55533 7.40089-3.00533 7.56965-3.66423 7.56965-4.53214 7.56965-5.40005 7.4009-6.05895 7.07143-6.50895 6.75-6.95895 6.27589-7.18395 5.65714-7.18395 5.04643-7.18395 4.57231-6.95895 4.24286-6.50895 3.92143-6.05895 3.76071-5.40005 3.76071-4.53214 3.76071-3.66423 3.92143-3.00533 4.24286-2.55533 4.57232-2.10533 5.04643-1.88033 5.65714-1.88033Z" fill="#0078d4" fill-rule="nonzero" fill-opacity="1" transform="matrix(1 0 0 1.00002 585.056 1408.84)"/><path d="M6.21967-1.88033C6.83842-1.88033 7.31253-2.10533 7.63395-2.55533 7.96342-3.00533 8.13217-3.66423 8.13217-4.53214 8.13217-5.40005 7.96343-6.05895 7.63395-6.50895 7.31253-6.95895 6.83842-7.18395 6.21967-7.18395 5.5969-7.18395 5.11879-6.95092 4.78934-6.49288 4.45585-6.04288 4.29112-5.38799 4.29112-4.53222 4.29112-3.67239 4.45585-3.01343 4.78934-2.5554 5.1188-2.1054 5.59693-1.8804 6.21967-1.8804ZM4.2911-7.74638C4.6969-8.28075 5.14288-8.67049 5.62505-8.91957 6.10719-9.17671 6.66165-9.30528 7.29648-9.30528 8.42153-9.30528 9.34159-8.8593 10.0608-7.97133 10.7759-7.07936 11.1376-5.93424 11.1376-4.53199 11.1376-3.12573 10.776-1.98062 10.0608-1.09265 9.34157-0.200685 8.42143 0.241303 7.29648 0.241303 6.66166 0.241303 6.10725 0.116753 5.62505-0.128345 5.14291-0.385488 4.69693-0.779235 4.2911-1.31758L4.2911 0.000226286 1.39824 0.000226286 1.39824-12.6162 4.2911-12.6162Z" fill="#0078d4" fill-rule="nonzero" fill-opacity="1" transform="matrix(1 0 0 1.00002 602.73 1408.84)"/><path d="M0.208923-9.08033 3.10178-9.08033 5.54464-2.92495 7.61783-9.08033 10.5267-9.08033 6.70168 0.85176C6.31596 1.86828 5.86596 2.57544 5.35168 2.97319 4.84543 3.37899 4.17849 3.5839 3.34277 3.5839L1.6553 3.5839 1.6553 1.67138 2.57137 1.67138C3.06154 1.67138 3.42315 1.59102 3.64818 1.4303 3.87318 1.27762 4.04193 1.00039 4.16246 0.594586L4.24282 0.35351Z" fill="#0078d4" fill-rule="nonzero" fill-opacity="1" transform="matrix(1 0 0 1.00002 614.619 1408.84)"/><path d="M1.52681-12.1022 5.49648-12.1022 8.24472-5.62536 11.0251-12.1022 14.9947-12.1022 14.9947 0 12.0376 0 12.0376-8.85538 9.25725-2.33033 7.26439-2.33033 4.48406-8.85538 4.48406 0 1.52691 0Z" fill="#0078d4" fill-rule="nonzero" fill-opacity="1" transform="matrix(1 0 0 1.00002 631.229 1408.84)"/><path d="M1.30176-3.53571 1.30176-9.08033 4.21066-9.08033 4.21066-8.16427C4.21066-7.68212 4.20263-7.06339 4.19459-6.31603L4.19459-4.83745C4.19459-4.1062 4.21066-3.58383 4.24281-3.26251 4.28298-2.94108 4.35531-2.70402 4.45173-2.55536 4.56825-2.36251 4.72494-2.20982 4.9178-2.10536 5.11065-2.00893 5.32762-1.96072 5.57672-1.96072 6.18743-1.96072 6.66155-2.18975 7.00705-2.6518 7.34857-3.12189 7.52134-3.76873 7.52134-4.59642L7.52134-9.08037 10.4302-9.08037 10.4302-4.11429e-05 7.52134-4.11429e-05 7.52134-1.31785C7.07937-0.779451 6.6133-0.385704 6.1231-0.128613 5.64095 0.116475 5.10256 0.241035 4.51595 0.241035 3.46331 0.241035 2.66771-0.0803932 2.12134-0.72325 1.57496-1.36611 1.30169-2.30231 1.30169-3.53578Z" fill="#0078d4" fill-rule="nonzero" fill-opacity="1" transform="matrix(1 0 0 1.00002 647.754 1408.84)"/><path d="M10.5264-5.52857 10.5264 0 7.60135 0 7.60135-4.21077C7.60135-5.00228 7.58528-5.54873 7.55313-5.8501 7.52099-6.14742 7.45671-6.36841 7.36028-6.50903 7.25179-6.70188 7.10313-6.84652 6.91028-6.94296 6.71742-7.04742 6.49242-7.10367 6.23528-7.10367 5.6326-7.10367 5.15847-6.86662 4.80495-6.39653 4.45941-5.93448 4.29066-5.29164 4.29066-4.46796L4.29066-5.14286e-05 1.3978-5.14286e-05 1.3978-12.6165 4.29066-12.6165 4.29066-7.74684C4.72861-8.28121 5.19468-8.67095 5.6889-8.92003 6.17908-9.17717 6.72148-9.30574 7.31209-9.30574 8.36072-9.30574 9.16033-8.97628 9.70671-8.32539 10.2531-7.68253 10.5264-6.75044 10.5264-5.52891Z" fill="#0078d4" fill-rule="nonzero" fill-opacity="1" transform="matrix(1 0 0 1.00002 659.579 1408.84)"/><path d="M5.46429-4.08219C4.85357-4.08219 4.39149-3.97773 4.08209-3.77683 3.78075-3.57192 3.63209-3.27058 3.63209-2.87683 3.63209-2.49915 3.75263-2.20585 4.00174-1.9929 4.24683-1.78799 4.58834-1.68754 5.03031-1.68754 5.57674-1.68754 6.03477-1.88441 6.41251-2.28217 6.78617-2.67592 6.97501-3.17012 6.97501-3.76075L6.97501-4.08217ZM9.9-5.17505 9.9-0.000102857 6.97495-0.000102857 6.97495-1.3501C6.57718-0.791619 6.13923-0.385817 5.65714-0.128674 5.175 0.116414 4.58434 0.240974 3.88923 0.240974 2.94504 0.240974 2.17759-0.0322354 1.59099-0.578674 1.00037-1.13314 0.707061-1.84834 0.707061-2.71615 0.707061-3.78494 1.06867-4.5684 1.79992-5.06253 2.5392-5.56476 3.68827-5.81789 5.2553-5.81789L6.97497-5.81789 6.97497-6.04289C6.97497-6.50092 6.79015-6.8344 6.42854-7.03932 6.06291-7.25226 5.50042-7.36075 4.74107-7.36075 4.1183-7.36075 3.5397-7.29646 3.00535-7.16789 2.46696-7.04735 1.96876-6.86655 1.51073-6.62146L1.51073-8.83927C2.12948-8.98793 2.75222-9.10043 3.37502-9.17676 4.00582-9.26114 4.63266-9.30533 5.25535-9.30533 6.89469-9.30533 8.0759-8.97587 8.80711-8.32498 9.53434-7.68212 9.89997-6.62948 9.89997-5.17498Z" fill="#0078d4" fill-rule="nonzero" fill-opacity="1" transform="matrix(1 0 0 1.00002 671.404 1408.84)"/><path d="M9.80352-7.56967C10.1772-8.13619 10.6151-8.5661 11.1213-8.85538 11.6236-9.1527 12.174-9.30538 12.7767-9.30538 13.8253-9.30538 14.6249-8.97592 15.1713-8.32503 15.7178-7.68217 15.991-6.75008 15.991-5.52855L15.991 2.05714e-05 13.0659 2.05714e-05 13.0659-4.74108C13.074-4.80536 13.082-4.87367 13.082-4.95L13.082-5.27143C13.082-5.91429 12.9856-6.38033 12.7927-6.66967 12.6079-6.95895 12.3025-7.1036 11.8766-7.1036 11.3302-7.1036 10.9043-6.8786 10.607-6.4286 10.3056-5.9786 10.1489-5.3197 10.1409-4.45179L10.1409-3.08571e-05 7.21586-3.08571e-05 7.21586-4.74113C7.21586-5.73756 7.12746-6.38047 6.95871-6.6697 6.78594-6.95899 6.48059-7.10363 6.04265-7.10363 5.48416-7.10363 5.05024-6.8706 4.74089-6.41256 4.43955-5.96256 4.29089-5.31168 4.29089-4.46794L4.29089-3.08571e-05 1.38198-3.08571e-05 1.38198-9.08036 4.29089-9.08036 4.29089-7.74641C4.65249-8.26069 5.06634-8.64641 5.52836-8.90355 5.98639-9.16873 6.49667-9.30533 7.05517-9.30533 7.67392-9.30533 8.22836-9.14864 8.71056-8.83927 9.1927-8.53793 9.5543-8.11606 9.80341-7.5696Z" fill="#0078d4" fill-rule="nonzero" fill-opacity="1" transform="matrix(1 0 0 1.00002 682.613 1408.84)"/><path d="M9.80352-7.56967C10.1772-8.13619 10.6151-8.5661 11.1213-8.85538 11.6236-9.1527 12.174-9.30538 12.7767-9.30538 13.8253-9.30538 14.6249-8.97592 15.1713-8.32503 15.7178-7.68217 15.991-6.75008 15.991-5.52855L15.991 2.05714e-05 13.0659 2.05714e-05 13.0659-4.74108C13.074-4.80536 13.082-4.87367 13.082-4.95L13.082-5.27143C13.082-5.91429 12.9856-6.38033 12.7927-6.66967 12.6079-6.95895 12.3025-7.1036 11.8766-7.1036 11.3302-7.1036 10.9043-6.8786 10.607-6.4286 10.3056-5.9786 10.1489-5.3197 10.1409-4.45179L10.1409-3.08571e-05 7.21586-3.08571e-05 7.21586-4.74113C7.21586-5.73756 7.12746-6.38047 6.95871-6.6697 6.78594-6.95899 6.48059-7.10363 6.04265-7.10363 5.48416-7.10363 5.05024-6.8706 4.74089-6.41256 4.43955-5.96256 4.29089-5.31168 4.29089-4.46794L4.29089-3.08571e-05 1.38198-3.08571e-05 1.38198-9.08036 4.29089-9.08036 4.29089-7.74641C4.65249-8.26069 5.06634-8.64641 5.52836-8.90355 5.98639-9.16873 6.49667-9.30533 7.05517-9.30533 7.67392-9.30533 8.22836-9.14864 8.71056-8.83927 9.1927-8.53793 9.5543-8.11606 9.80341-7.5696Z" fill="#0078d4" fill-rule="nonzero" fill-opacity="1" transform="matrix(1 0 0 1.00002 699.918 1408.84)"/><path d="M5.46429-4.08219C4.85357-4.08219 4.39149-3.97773 4.08209-3.77683 3.78075-3.57192 3.63209-3.27058 3.63209-2.87683 3.63209-2.49915 3.75263-2.20585 4.00174-1.9929 4.24683-1.78799 4.58834-1.68754 5.03031-1.68754 5.57674-1.68754 6.03477-1.88441 6.41251-2.28217 6.78617-2.67592 6.97501-3.17012 6.97501-3.76075L6.97501-4.08217ZM9.9-5.17505 9.9-0.000102857 6.97495-0.000102857 6.97495-1.3501C6.57718-0.791619 6.13923-0.385817 5.65714-0.128674 5.175 0.116414 4.58434 0.240974 3.88923 0.240974 2.94504 0.240974 2.17759-0.0322354 1.59099-0.578674 1.00037-1.13314 0.707061-1.84834 0.707061-2.71615 0.707061-3.78494 1.06867-4.5684 1.79992-5.06253 2.5392-5.56476 3.68827-5.81789 5.2553-5.81789L6.97497-5.81789 6.97497-6.04289C6.97497-6.50092 6.79015-6.8344 6.42854-7.03932 6.06291-7.25226 5.50042-7.36075 4.74107-7.36075 4.1183-7.36075 3.5397-7.29646 3.00535-7.16789 2.46696-7.04735 1.96876-6.86655 1.51073-6.62146L1.51073-8.83927C2.12948-8.98793 2.75222-9.10043 3.37502-9.17676 4.00582-9.26114 4.63266-9.30533 5.25535-9.30533 6.89469-9.30533 8.0759-8.97587 8.80711-8.32498 9.53434-7.68212 9.89997-6.62948 9.89997-5.17498Z" fill="#0078d4" fill-rule="nonzero" fill-opacity="1" transform="matrix(1 0 0 1.00002 717.227 1408.84)"/><path d="M7.56967-7.74638 7.56967-12.616 10.4947-12.616 10.4947 0.000411429 7.56967 0.000411429 7.56967-1.31739C7.1719-0.778999 6.73395-0.385251 6.25186-0.12816 5.76972 0.116928 5.21126 0.241488 4.58043 0.241488 3.46351 0.241488 2.54335-0.200479 1.81615-1.09247 1.09695-1.98041 0.739337-3.12554 0.739337-4.5318 0.739337-5.93405 1.09693-7.07916 1.81615-7.97114 2.54338-8.85909 3.46351-9.3051 4.58043-9.3051 5.19918-9.3051 5.75362-9.17652 6.23582-8.91938 6.72599-8.67027 7.17198-8.28055 7.56977-7.74619ZM5.65714-1.88033C6.27589-1.88033 6.75-2.10533 7.07143-2.55533 7.40089-3.00533 7.56965-3.66423 7.56965-4.53214 7.56965-5.40005 7.4009-6.05895 7.07143-6.50895 6.75-6.95895 6.27589-7.18395 5.65714-7.18395 5.04643-7.18395 4.57231-6.95895 4.24286-6.50895 3.92143-6.05895 3.76071-5.40005 3.76071-4.53214 3.76071-3.66423 3.92143-3.00533 4.24286-2.55533 4.57232-2.10533 5.04643-1.88033 5.65714-1.88033Z" fill="#0078d4" fill-rule="nonzero" fill-opacity="1" transform="matrix(1 0 0 1.00002 728.433 1408.84)"/><path d="M8.87143-2.20176 3.98571-2.20176 3.21429 0 0.0803314 0 4.56429-12.1022 8.27681-12.1022 12.7608 0 9.62681 0ZM4.77319-4.45176 8.08395-4.45176 6.42857-9.27319Z" fill="#0078d4" fill-rule="nonzero" fill-opacity="1" transform="matrix(1 0 0 1.00002 746.108 1408.84)"/><path d="M4.56429-11.6517 4.56429-9.08023 7.55352-9.08023 7.55352-7.00704 4.56429-7.00704 4.56429-3.1499C4.56429-2.73204 4.64464-2.44678 4.80536-2.29812 4.97411-2.14544 5.31162-2.07312 5.81787-2.07312L7.29644-2.07312 7.29644 7.2e-05 4.82149 7.2e-05C3.67237 7.2e-05 2.86083-0.232961 2.37863-0.707071 1.89649-1.18921 1.65542-2.00081 1.65542-3.14993L1.65542-7.00707 0.225093-7.00707 0.225093-9.08026 1.65542-9.08026 1.65542-11.6517Z" fill="#0078d4" fill-rule="nonzero" fill-opacity="1" transform="matrix(1 0 0 1.00002 758.961 1408.84)"/><path d="M1.39824-9.08033 4.2911-9.08033 4.2911 0 1.39824 0ZM1.39824-12.616 4.2911-12.616 4.2911-10.2535 1.39824-10.2535Z" fill="#0078d4" fill-rule="nonzero" fill-opacity="1" transform="matrix(1 0 0 1.00002 766.9 1408.84)"/><path d="M5.65714-7.18395C5.04643-7.18395 4.57231-6.95895 4.24286-6.50895 3.92143-6.05895 3.76071-5.40005 3.76071-4.53214 3.76071-3.66423 3.92143-3.00533 4.24286-2.55533 4.57232-2.10533 5.04643-1.88033 5.65714-1.88033 6.27589-1.88033 6.75-2.10533 7.07143-2.55533 7.40089-3.00533 7.56965-3.66423 7.56965-4.53214 7.56965-5.40005 7.4009-6.05895 7.07143-6.50895 6.75-6.95895 6.27589-7.18395 5.65714-7.18395ZM7.56967-1.31791C7.1719-0.779513 6.73395-0.385766 6.25186-0.128674 5.76972 0.116414 5.21126 0.240974 4.58043 0.240974 3.46351 0.240974 2.54335-0.200993 1.81615-1.09298 1.09695-1.98093 0.739337-3.12606 0.739337-4.53232 0.739337-5.93457 1.09693-7.07567 1.81615-7.95551 2.54338-8.84345 3.46351-9.28946 4.58043-9.28946 5.21124-9.28946 5.76967-9.16089 6.25186-8.90375 6.73401-8.65464 7.17195-8.26491 7.56967-7.73056L7.56967-9.08056 10.4947-9.08056 10.4947 3.45567 7.56967 3.45567Z" fill="#0078d4" fill-rule="nonzero" fill-opacity="1" transform="matrix(1 0 0 1.00002 772.593 1408.84)"/><path d="M7.36066-12.6165 7.36066-10.7039 5.76957-10.7039C5.35171-10.7039 5.06242-10.6276 4.90171-10.4789 4.74099-10.3383 4.66063-10.0812 4.66063-9.7075L4.66063-9.08071 7.13558-9.08071 7.13558-7.00752 4.66063-7.00752 4.66063-0.000380571 1.75173-0.000380571 1.75173-7.00752 0.321398-7.00752 0.321398-9.08071 1.75173-9.08071 1.75173-9.7075C1.75173-10.7039 2.02494-11.4352 2.57138-11.9093 3.12584-12.3794 3.98566-12.6164 5.14281-12.6164Z" fill="#0078d4" fill-rule="nonzero" fill-opacity="1" transform="matrix(1 0 0 1.00002 523 1425.45)"/><path d="M8.13209-6.60538C7.88298-6.7219 7.63387-6.80627 7.37673-6.86253 7.12762-6.92681 6.87851-6.95895 6.62137-6.95895 5.87003-6.95895 5.29142-6.71788 4.88565-6.23575 4.48788-5.7536 4.29102-5.06657 4.29102-4.1786L4.29102-3.08571e-05 1.39816-3.08571e-05 1.39816-9.08036 4.29102-9.08036 4.29102-7.58575C4.66467-8.18441 5.09459-8.61833 5.57673-8.88751 6.05887-9.16474 6.63739-9.30536 7.31244-9.30536 7.41691-9.30536 7.52539-9.29733 7.63387-9.28929 7.75039-9.27724 7.91512-9.26117 8.13209-9.24108Z" fill="#0078d4" fill-rule="nonzero" fill-opacity="1" transform="matrix(1 0 0 1.00002 530.224 1425.45)"/><path d="M5.72143-7.21605C5.07857-7.21605 4.58434-6.98301 4.24286-6.52497 3.90937-6.06291 3.74464-5.39992 3.74464-4.53211 3.74464-3.66431 3.90937-2.99327 4.24286-2.52321 4.58437-2.06115 5.07857-1.83213 5.72143-1.83213 6.35223-1.83213 6.83434-2.06115 7.16781-2.52321 7.49727-2.9933 7.66603-3.66431 7.66603-4.53211 7.66603-5.39992 7.49728-6.06293 7.16781-6.52497 6.83432-6.983 6.35218-7.21605 5.72143-7.21605ZM5.72143-9.30528C7.27231-9.30528 8.48973-8.87939 9.36967-8.03561 10.2456-7.18784 10.6875-6.01869 10.6875-4.53209 10.6875-3.04149 10.2455-1.87231 9.36967-1.02857 8.48976-0.180802 7.27231 0.241097 5.72143 0.241097 4.14648 0.241097 2.91291-0.180782 2.02495-1.02857 1.14504-1.87232 0.707143-3.04149 0.707143-4.53209 0.707143-6.01869 1.14509-7.18786 2.02495-8.03561 2.91289-8.87936 4.14638-9.30528 5.72143-9.30528Z" fill="#0078d4" fill-rule="nonzero" fill-opacity="1" transform="matrix(1 0 0 1.00002 538.417 1425.45)"/><path d="M9.80352-7.56967C10.1772-8.13619 10.6151-8.5661 11.1213-8.85538 11.6236-9.1527 12.174-9.30538 12.7767-9.30538 13.8253-9.30538 14.6249-8.97592 15.1713-8.32503 15.7178-7.68217 15.991-6.75008 15.991-5.52855L15.991 2.05714e-05 13.0659 2.05714e-05 13.0659-4.74108C13.074-4.80536 13.082-4.87367 13.082-4.95L13.082-5.27143C13.082-5.91429 12.9856-6.38033 12.7927-6.66967 12.6079-6.95895 12.3025-7.1036 11.8766-7.1036 11.3302-7.1036 10.9043-6.8786 10.607-6.4286 10.3056-5.9786 10.1489-5.3197 10.1409-4.45179L10.1409-3.08571e-05 7.21586-3.08571e-05 7.21586-4.74113C7.21586-5.73756 7.12746-6.38047 6.95871-6.6697 6.78594-6.95899 6.48059-7.10363 6.04265-7.10363 5.48416-7.10363 5.05024-6.8706 4.74089-6.41256 4.43955-5.96256 4.29089-5.31168 4.29089-4.46794L4.29089-3.08571e-05 1.38198-3.08571e-05 1.38198-9.08036 4.29089-9.08036 4.29089-7.74641C4.65249-8.26069 5.06634-8.64641 5.52836-8.90355 5.98639-9.16873 6.49667-9.30533 7.05517-9.30533 7.67392-9.30533 8.22836-9.14864 8.71056-8.83927 9.1927-8.53793 9.5543-8.11606 9.80341-7.5696Z" fill="#0078d4" fill-rule="nonzero" fill-opacity="1" transform="matrix(1 0 0 1.00002 549.827 1425.45)"/><path d="M4.56429-11.6517 4.56429-9.08023 7.55352-9.08023 7.55352-7.00704 4.56429-7.00704 4.56429-3.1499C4.56429-2.73204 4.64464-2.44678 4.80536-2.29812 4.97411-2.14544 5.31162-2.07312 5.81787-2.07312L7.29644-2.07312 7.29644 7.2e-05 4.82149 7.2e-05C3.67237 7.2e-05 2.86083-0.232961 2.37863-0.707071 1.89649-1.18921 1.65542-2.00081 1.65542-3.14993L1.65542-7.00707 0.225093-7.00707 0.225093-9.08026 1.65542-9.08026 1.65542-11.6517Z" fill="#0078d4" fill-rule="nonzero" fill-opacity="1" transform="matrix(1 0 0 1.00002 572.918 1425.45)"/><path d="M10.5264-5.52857 10.5264 0 7.60135 0 7.60135-4.21077C7.60135-5.00228 7.58528-5.54873 7.55313-5.8501 7.52099-6.14742 7.45671-6.36841 7.36028-6.50903 7.25179-6.70188 7.10313-6.84652 6.91028-6.94296 6.71742-7.04742 6.49242-7.10367 6.23528-7.10367 5.6326-7.10367 5.15847-6.86662 4.80495-6.39653 4.45941-5.93448 4.29066-5.29164 4.29066-4.46796L4.29066-5.14286e-05 1.3978-5.14286e-05 1.3978-12.6165 4.29066-12.6165 4.29066-7.74684C4.72861-8.28121 5.19468-8.67095 5.6889-8.92003 6.17908-9.17717 6.72148-9.30574 7.31209-9.30574 8.36072-9.30574 9.16033-8.97628 9.70671-8.32539 10.2531-7.68253 10.5264-6.75044 10.5264-5.52891Z" fill="#0078d4" fill-rule="nonzero" fill-opacity="1" transform="matrix(1 0 0 1.00002 580.857 1425.45)"/><path d="M10.4626-4.56429 10.4626-3.74464 3.66439-3.74464C3.73671-3.05758 3.98582-2.54327 4.40367-2.20178 4.82956-1.85624 5.42019-1.68749 6.17158-1.68749 6.7823-1.68749 7.40906-1.77589 8.05191-1.9607 8.69477-2.14151 9.35367-2.41874 10.0287-2.79642L10.0287-0.546418C9.34167-0.289275 8.65466-0.0964183 7.97158 0.0321531 7.28453 0.168758 6.59751 0.241077 5.91444 0.241077 4.26307 0.241077 2.98137-0.176781 2.07334-1.01255 1.16129-1.84826 0.707297-3.02145 0.707297-4.53222 0.707297-6.01079 1.14926-7.17194 2.04125-8.01969 2.94125-8.87549 4.17873-9.3054 5.75378-9.3054 7.17609-9.3054 8.31718-8.87147 9.17697-8.00364 10.0328-7.14382 10.4627-5.99875 10.4627-4.56431ZM7.47339-5.52857C7.47339-6.075 7.31268-6.51295 6.99125-6.84638 6.66982-7.18789 6.25197-7.36066 5.73763-7.36066 5.16709-7.36066 4.70906-7.19995 4.35543-6.87852 4.0099-6.56512 3.79695-6.11513 3.71258-5.52852Z" fill="#0078d4" fill-rule="nonzero" fill-opacity="1" transform="matrix(1 0 0 1.00002 592.682 1425.45)"/><path d="M1.52681-12.1022 5.01429-12.1022 9.41781-3.80931 9.41781-12.1022 12.3749-12.1022 12.3749 0 8.88748 0 4.48395-8.3089 4.48395 0 1.52681 0Z" fill="#0078d4" fill-rule="nonzero" fill-opacity="1" transform="matrix(1 0 0 1.00002 609.729 1425.45)"/><path d="M5.72143-7.21605C5.07857-7.21605 4.58434-6.98301 4.24286-6.52497 3.90937-6.06291 3.74464-5.39992 3.74464-4.53211 3.74464-3.66431 3.90937-2.99327 4.24286-2.52321 4.58437-2.06115 5.07857-1.83213 5.72143-1.83213 6.35223-1.83213 6.83434-2.06115 7.16781-2.52321 7.49727-2.9933 7.66603-3.66431 7.66603-4.53211 7.66603-5.39992 7.49728-6.06293 7.16781-6.52497 6.83432-6.983 6.35218-7.21605 5.72143-7.21605ZM5.72143-9.30528C7.27231-9.30528 8.48973-8.87939 9.36967-8.03561 10.2456-7.18784 10.6875-6.01869 10.6875-4.53209 10.6875-3.04149 10.2455-1.87231 9.36967-1.02857 8.48976-0.180802 7.27231 0.241097 5.72143 0.241097 4.14648 0.241097 2.91291-0.180782 2.02495-1.02857 1.14504-1.87232 0.707143-3.04149 0.707143-4.53209 0.707143-6.01869 1.14509-7.18786 2.02495-8.03561 2.91289-8.87936 4.14638-9.30528 5.72143-9.30528Z" fill="#0078d4" fill-rule="nonzero" fill-opacity="1" transform="matrix(1 0 0 1.00002 623.627 1425.45)"/><path d="M1.30176-3.53571 1.30176-9.08033 4.21066-9.08033 4.21066-8.16427C4.21066-7.68212 4.20263-7.06339 4.19459-6.31603L4.19459-4.83745C4.19459-4.1062 4.21066-3.58383 4.24281-3.26251 4.28298-2.94108 4.35531-2.70402 4.45173-2.55536 4.56825-2.36251 4.72494-2.20982 4.9178-2.10536 5.11065-2.00893 5.32762-1.96072 5.57672-1.96072 6.18743-1.96072 6.66155-2.18975 7.00705-2.6518 7.34857-3.12189 7.52134-3.76873 7.52134-4.59642L7.52134-9.08037 10.4302-9.08037 10.4302-4.11429e-05 7.52134-4.11429e-05 7.52134-1.31785C7.07937-0.779451 6.6133-0.385704 6.1231-0.128613 5.64095 0.116475 5.10256 0.241035 4.51595 0.241035 3.46331 0.241035 2.66771-0.0803932 2.12134-0.72325 1.57496-1.36611 1.30169-2.30231 1.30169-3.53578Z" fill="#0078d4" fill-rule="nonzero" fill-opacity="1" transform="matrix(1 0 0 1.00002 635.038 1425.45)"/><path d="M10.5264-5.52857 10.5264 0 7.60135 0 7.60135-4.22681C7.60135-5.00627 7.58528-5.54873 7.55313-5.85 7.52099-6.14732 7.45671-6.36831 7.36028-6.50892 7.25179-6.70178 7.10313-6.84642 6.91028-6.94286 6.71742-7.04732 6.49242-7.10357 6.23528-7.10357 5.6326-7.10357 5.15847-6.86652 4.80495-6.39643 4.45941-5.93437 4.29066-5.29154 4.29066-4.46786L4.29066 5.14286e-05 1.3978 5.14286e-05 1.3978-9.08028 4.29066-9.08028 4.29066-7.74633C4.72861-8.2807 5.19468-8.67044 5.6889-8.91951 6.17908-9.17666 6.72148-9.30523 7.31209-9.30523 8.36072-9.30523 9.16033-8.97577 9.70671-8.32488 10.2531-7.68202 10.5264-6.74993 10.5264-5.5284Z" fill="#0078d4" fill-rule="nonzero" fill-opacity="1" transform="matrix(1 0 0 1.00002 646.862 1425.45)"/><path d="M1.52681-12.1022 6.70176-12.1022C8.24462-12.1022 9.42583-11.7566 10.2535-11.0736 11.0772-10.3865 11.491-9.41019 11.491-8.14855 11.491-6.88289 11.0772-5.90657 10.2535-5.2235 9.42584-4.53644 8.24462-4.19493 6.70176-4.19493L4.64462-4.19493 4.64462-0.000308571 1.52681-0.000308571ZM4.64462-9.83613 4.64462-6.46118 6.36429-6.46118C6.975-6.46118 7.4411-6.60581 7.76253-6.89511 8.09199-7.19243 8.26075-7.61029 8.26075-8.14873 8.26075-8.69516 8.092-9.11302 7.76253-9.40236 7.4411-9.69164 6.97503-9.83629 6.36429-9.83629Z" fill="#0078d4" fill-rule="nonzero" fill-opacity="1" transform="matrix(1 0 0 1.00002 664.473 1425.45)"/><path d="M8.13209-6.60538C7.88298-6.7219 7.63387-6.80627 7.37673-6.86253 7.12762-6.92681 6.87851-6.95895 6.62137-6.95895 5.87003-6.95895 5.29142-6.71788 4.88565-6.23575 4.48788-5.7536 4.29102-5.06657 4.29102-4.1786L4.29102-3.08571e-05 1.39816-3.08571e-05 1.39816-9.08036 4.29102-9.08036 4.29102-7.58575C4.66467-8.18441 5.09459-8.61833 5.57673-8.88751 6.05887-9.16474 6.63739-9.30536 7.31244-9.30536 7.41691-9.30536 7.52539-9.29733 7.63387-9.28929 7.75039-9.27724 7.91512-9.26117 8.13209-9.24108Z" fill="#0078d4" fill-rule="nonzero" fill-opacity="1" transform="matrix(1 0 0 1.00002 676.643 1425.45)"/><path d="M5.72143-7.21605C5.07857-7.21605 4.58434-6.98301 4.24286-6.52497 3.90937-6.06291 3.74464-5.39992 3.74464-4.53211 3.74464-3.66431 3.90937-2.99327 4.24286-2.52321 4.58437-2.06115 5.07857-1.83213 5.72143-1.83213 6.35223-1.83213 6.83434-2.06115 7.16781-2.52321 7.49727-2.9933 7.66603-3.66431 7.66603-4.53211 7.66603-5.39992 7.49728-6.06293 7.16781-6.52497 6.83432-6.983 6.35218-7.21605 5.72143-7.21605ZM5.72143-9.30528C7.27231-9.30528 8.48973-8.87939 9.36967-8.03561 10.2456-7.18784 10.6875-6.01869 10.6875-4.53209 10.6875-3.04149 10.2455-1.87231 9.36967-1.02857 8.48976-0.180802 7.27231 0.241097 5.72143 0.241097 4.14648 0.241097 2.91291-0.180782 2.02495-1.02857 1.14504-1.87232 0.707143-3.04149 0.707143-4.53209 0.707143-6.01869 1.14509-7.18786 2.02495-8.03561 2.91289-8.87936 4.14638-9.30528 5.72143-9.30528Z" fill="#0078d4" fill-rule="nonzero" fill-opacity="1" transform="matrix(1 0 0 1.00002 684.835 1425.45)"/><path d="M1.39824-9.08033 4.2911-9.08033 4.2911-0.160663C4.2911 1.04873 3.99378 1.97681 3.40716 2.61967 2.82859 3.26253 1.98486 3.58395 0.883975 3.58395L-0.546357 3.58395-0.546357 1.67143-0.0481371 1.67143C0.498291 1.67143 0.871951 1.54688 1.07691 1.30178 1.28986 1.05267 1.39834 0.566517 1.39834-0.160745ZM1.39824-12.616 4.2911-12.616 4.2911-10.2535 1.39824-10.2535Z" fill="#0078d4" fill-rule="nonzero" fill-opacity="1" transform="matrix(1 0 0 1.00002 696.246 1425.45)"/><path d="M10.4626-4.56429 10.4626-3.74464 3.66439-3.74464C3.73671-3.05758 3.98582-2.54327 4.40367-2.20178 4.82956-1.85624 5.42019-1.68749 6.17158-1.68749 6.7823-1.68749 7.40906-1.77589 8.05191-1.9607 8.69477-2.14151 9.35367-2.41874 10.0287-2.79642L10.0287-0.546418C9.34167-0.289275 8.65466-0.0964183 7.97158 0.0321531 7.28453 0.168758 6.59751 0.241077 5.91444 0.241077 4.26307 0.241077 2.98137-0.176781 2.07334-1.01255 1.16129-1.84826 0.707297-3.02145 0.707297-4.53222 0.707297-6.01079 1.14926-7.17194 2.04125-8.01969 2.94125-8.87549 4.17873-9.3054 5.75378-9.3054 7.17609-9.3054 8.31718-8.87147 9.17697-8.00364 10.0328-7.14382 10.4627-5.99875 10.4627-4.56431ZM7.47339-5.52857C7.47339-6.075 7.31268-6.51295 6.99125-6.84638 6.66982-7.18789 6.25197-7.36066 5.73763-7.36066 5.16709-7.36066 4.70906-7.19995 4.35543-6.87852 4.0099-6.56512 3.79695-6.11513 3.71258-5.52852Z" fill="#0078d4" fill-rule="nonzero" fill-opacity="1" transform="matrix(1 0 0 1.00002 701.939 1425.45)"/><path d="M8.72681-8.7911 8.72681-6.42857C8.32904-6.69375 7.93127-6.89464 7.53758-7.02321 7.13981-7.15178 6.72597-7.21607 6.3001-7.21607 5.49653-7.21607 4.86977-6.97901 4.41977-6.50892 3.96977-6.03481 3.74477-5.37585 3.74477-4.53211 3.74477-3.68434 3.96977-3.02135 4.41977-2.53925 4.86977-2.06515 5.49658-1.83211 6.3001-1.83211 6.75814-1.83211 7.19207-1.90042 7.60186-2.04104 8.00767-2.17764 8.38132-2.37853 8.72691-2.63567L8.72691-0.273147C8.27691-0.100378 7.81486 0.0241714 7.34472 0.112567 6.88267 0.196942 6.4166 0.241138 5.94648 0.241138 4.30714 0.241138 3.02143-0.176719 2.08934-1.01248 1.16523-1.85623 0.707143-3.02941 0.707143-4.53215 0.707143-6.03078 1.16518-7.20006 2.08934-8.03567 3.02148-8.87942 4.30714-9.30534 5.94648-9.30534 6.41657-9.30534 6.88265-9.26115 7.34472-9.17677 7.80275-9.08838 8.26481-8.9598 8.72691-8.79106Z" fill="#0078d4" fill-rule="nonzero" fill-opacity="1" transform="matrix(1 0 0 1.00002 713.205 1425.45)"/><path d="M4.56429-11.6517 4.56429-9.08023 7.55352-9.08023 7.55352-7.00704 4.56429-7.00704 4.56429-3.1499C4.56429-2.73204 4.64464-2.44678 4.80536-2.29812 4.97411-2.14544 5.31162-2.07312 5.81787-2.07312L7.29644-2.07312 7.29644 7.2e-05 4.82149 7.2e-05C3.67237 7.2e-05 2.86083-0.232961 2.37863-0.707071 1.89649-1.18921 1.65542-2.00081 1.65542-3.14993L1.65542-7.00707 0.225093-7.00707 0.225093-9.08026 1.65542-9.08026 1.65542-11.6517Z" fill="#0078d4" fill-rule="nonzero" fill-opacity="1" transform="matrix(1 0 0 1.00002 723.049 1425.45)"/></g></g></g></g></svg>