<svg width="720" height="592" xmlns="http://www.w3.org/2000/svg" xmlns:xlink="http://www.w3.org/1999/xlink" xml:space="preserve" overflow="hidden"><defs><clipPath id="clip0"><rect x="1296" y="656" width="720" height="592"/></clipPath><clipPath id="clip1"><rect x="1296" y="657" width="720" height="591"/></clipPath><clipPath id="clip2"><rect x="1296" y="657" width="720" height="591"/></clipPath><clipPath id="clip3"><rect x="1296" y="657" width="720" height="721"/></clipPath></defs><g clip-path="url(#clip0)" transform="translate(-1296 -656)"><g clip-path="url(#clip1)"><g clip-path="url(#clip2)"><g clip-path="url(#clip3)"><path d="M549.267 452.181 555.471 476.995 530.09 476.995C527.579 464.664 519.937 454.27 509.586 447.845L566.997 429.572 566.997 308.663C591.137 275.275 604.331 234.26 602.881 191.468 599.478 90.8568 512.672 8.99897 409.376 8.99897L349.019 8.99897C317.753 8.99897 288.864 15.2909 263.15 27.7097 195.2 60.516 153 127.437 153 202.361 153 225.436 142.666 246.939 124.651 261.348L105.047 277.025 109.423 283.847C139.557 330.844 161.9 382.084 175.842 436.127L178.65 447.016C183.484 465.764 195.525 480.982 211.681 488.778 220.215 492.892 229.472 494.941 238.689 494.941 248.814 494.941 258.902 492.474 267.991 487.553L402.96 414.444C426.244 401.827 450.595 390.1 474.148 378.757 481.662 375.141 489.179 371.521 496.676 367.869 516.52 358.202 534.078 345.261 548.984 329.997L548.984 416.405 368.984 473.68 368.988 458.999 350.988 458.999 350.988 566.999 596.518 566.999 566.73 447.809ZM488.807 351.698C481.338 355.343 473.84 358.951 466.351 362.562 457.998 366.584 449.485 370.743 441.006 374.893L441.006 341.995 423.006 341.995 423.006 383.861C416.975 386.894 410.981 390.016 405.006 393.15L405.006 341.995 387.006 341.995 387.006 402.637 369.006 412.384 369.006 341.995 351.006 341.995 351.006 422.131 259.423 471.739C247.137 478.388 232.206 478.706 219.51 472.574 208.135 467.094 199.593 456.141 196.082 442.533L193.273 431.644C192.526 428.748 191.662 425.883 190.871 423.006L215.999 423.002 215.999 405.002 185.588 405.002C171.951 361.461 153.007 319.864 128.896 281.008L135.899 275.399C158.21 257.551 170.999 230.93 170.999 202.354 170.999 134.396 209.313 73.6796 270.971 43.9127 294.226 32.6827 320.488 26.9937 349.018 26.9937L350.999 26.9937 350.999 84.3242C308.503 104.603 278.999 147.855 278.999 197.992 278.999 267.473 335.518 323.992 404.999 323.992 474.48 323.992 530.999 267.473 530.999 197.992 530.999 128.511 474.48 71.9917 404.999 71.9917 392.487 71.9917 380.421 73.88 368.999 77.3033L368.999 26.9918 409.375 26.9918C503.083 26.9918 581.815 101.045 584.9 192.057 587.174 259.485 549.463 322.14 488.805 351.691ZM322.6 128.324 341.77 147.493C330.672 161.362 323.995 178.896 323.995 197.994 323.995 217.091 330.673 234.624 341.77 248.495L322.6 267.664C306.661 248.836 296.994 224.536 296.994 197.995 296.994 171.454 306.661 147.153 322.6 128.326ZM467.999 197.993C467.999 232.731 439.73 260.993 404.999 260.993 370.268 260.993 341.999 232.731 341.999 197.993 341.999 163.255 370.268 134.993 404.999 134.993 439.73 134.993 467.999 163.255 467.999 197.993ZM354.496 261.218C368.358 272.315 385.899 278.993 404.997 278.993 424.094 278.993 441.636 272.315 455.498 261.218L474.667 280.388C455.839 296.326 431.539 305.994 404.998 305.994 378.457 305.994 354.156 296.327 335.329 280.388ZM487.388 267.663 468.218 248.493C479.315 234.624 485.993 217.09 485.993 197.992 485.993 178.895 479.315 161.362 468.218 147.492L487.388 128.322C503.326 147.15 512.994 171.45 512.994 197.991 512.994 224.533 503.327 248.834 487.388 267.661ZM455.494 134.771C441.632 123.674 424.09 116.997 404.993 116.997 385.895 116.997 368.354 123.674 354.492 134.771L335.323 115.602C354.151 99.663 378.451 89.9955 404.992 89.9955 431.533 89.9955 455.834 99.6624 474.661 115.602ZM570.107 535.585 527.409 503.562C528.57 500.834 529.47 497.966 530.081 494.996L559.962 494.996ZM489.26 530.663 498.432 548.996 420.474 548.996 480.898 530.611 480.862 530.486C482.566 530.671 484.237 530.996 485.993 530.996 487.11 530.996 488.163 530.743 489.26 530.663ZM506.866 525.625C510.61 523.644 514.102 521.269 517.135 518.352L558 548.997 518.553 548.997ZM485.993 512.997C471.106 512.997 458.993 500.883 458.993 485.997 458.993 471.11 471.106 458.997 485.993 458.997 500.879 458.997 512.993 471.11 512.993 485.997 512.993 500.883 500.879 512.997 485.993 512.997ZM444.521 468.547C442.255 473.919 440.993 479.813 440.993 485.997 440.993 499.28 446.887 511.108 456.068 519.349L368.993 545.856 368.993 492.583Z" fill="#000000" fill-rule="nonzero" fill-opacity="1" transform="matrix(1 0 0 1.00002 1296 657)"/><path d="M405 153C380.186 153 360 173.186 360 198 360 222.814 380.186 243 405 243 429.814 243 450 222.814 450 198 450 173.186 429.814 153 405 153ZM405 225C390.114 225 378 212.887 378 198 378 183.113 390.114 171 405 171 419.887 171 432 183.113 432 198 432 212.887 419.887 225 405 225Z" fill="#000000" fill-rule="nonzero" fill-opacity="1" transform="matrix(1 0 0 1.00002 1296 657)"/><path d="M189 234 252 234 252 252 189 252Z" fill="#000000" fill-rule="nonzero" fill-opacity="1" transform="matrix(1 0 0 1.00002 1296 657)"/><path d="M477 477 495 477 495 495 477 495Z" fill="#000000" fill-rule="nonzero" fill-opacity="1" transform="matrix(1 0 0 1.00002 1296 657)"/><path d="M549 189 567 189 567 207 549 207Z" fill="#000000" fill-rule="nonzero" fill-opacity="1" transform="matrix(1 0 0 1.00002 1296 657)"/><path d="M525.209 118.224 540.798 109.224 549.798 124.813 534.209 133.813Z" fill="#000000" fill-rule="nonzero" fill-opacity="1" transform="matrix(1 0 0 1.00002 1296 657)"/><path d="M469.193 68.7775 478.193 53.1885 493.782 62.1885 484.782 77.7775Z" fill="#000000" fill-rule="nonzero" fill-opacity="1" transform="matrix(1 0 0 1.00002 1296 657)"/><path d="M396 36 414 36 414 54 396 54Z" fill="#000000" fill-rule="nonzero" fill-opacity="1" transform="matrix(1 0 0 1.00002 1296 657)"/><path d="M469.214 327.219 484.803 318.219 493.803 333.809 478.214 342.809Z" fill="#000000" fill-rule="nonzero" fill-opacity="1" transform="matrix(1 0 0 1.00002 1296 657)"/><path d="M525.209 277.786 534.209 262.197 549.798 271.197 540.798 286.786Z" fill="#000000" fill-rule="nonzero" fill-opacity="1" transform="matrix(1 0 0 1.00002 1296 657)"/><path d="M30.1495-1.8C28.5946-0.996429 26.9714-0.389726 25.2798 0.0160457 23.5964 0.433903 21.8446 0.642837 20.0244 0.642837 14.5601 0.642837 10.2249-0.883975 7.02226-3.93749 3.82803-6.99112 2.23303-11.1375 2.23303-16.377 2.23303-21.6166 3.82814-25.7628 7.02226-28.8166 10.2245-31.8702 14.5597-33.3969 20.0244-33.3969 21.8445-33.3969 23.5964-33.192 25.2798-32.7862 26.9713-32.3764 28.5946-31.7657 30.1495-30.9541L30.1495-24.1719C28.5745-25.2407 27.0236-26.0242 25.5049-26.5183 23.9821-27.0205 22.3789-27.2737 20.6995-27.2737 17.6781-27.2737 15.3035-26.3013 13.5798-24.3647 11.8521-22.4362 10.9923-19.7724 10.9923-16.3773 10.9923-12.9902 11.8522-10.3264 13.5798-8.3898 15.3035-6.46123 17.6781-5.49694 20.6995-5.49694 22.3789-5.49694 23.9821-5.74203 25.5049-6.23623 27.0237-6.73846 28.5745-7.52595 30.1495-8.59875Z" fill="#000000" fill-rule="nonzero" fill-opacity="1" transform="matrix(1 0 0 1.00002 1368 1368.01)"/><path d="M22.0659-17.9033C21.3668-18.2247 20.6757-18.4578 19.9928-18.6105 19.3178-18.7712 18.6347-18.8515 17.9517-18.8515 15.9266-18.8515 14.3677-18.2006 13.2748-16.9069 12.19-15.6092 11.6517-13.7489 11.6517-11.3301L11.6517 0.000637714 3.77671 0.000637714 3.77671-24.6048 11.6517-24.6048 11.6517-20.5709C12.6561-22.178 13.8133-23.3512 15.1231-24.0906 16.4409-24.8298 18.0159-25.1995 19.8481-25.1995 20.1053-25.1995 20.3865-25.1874 20.6999-25.1673 21.0093-25.1432 21.4553-25.095 22.0339-25.0227Z" fill="#000000" fill-rule="nonzero" fill-opacity="1" transform="matrix(1 0 0 1.00002 1401.03 1368.01)"/><path d="M28.3495-12.3747 28.3495-10.1247 9.94731-10.1247C10.1402-8.28051 10.8031-6.89842 11.9402-5.97837 13.0853-5.05426 14.6884-4.59617 16.7456-4.59617 18.3929-4.59617 20.0884-4.83725 21.8241-5.31938 23.5598-5.80956 25.3438-6.55686 27.1759-7.55334L27.1759-1.49443C25.3196-0.787289 23.4634-0.256958 21.5991 0.0966652 19.7348 0.45827 17.8745 0.643094 16.0223 0.643094 11.5625 0.643094 8.09908-0.485969 5.62443-2.748 3.15751-5.01806 1.92795-8.19624 1.92795-12.2783 1.92795-16.2961 3.13735-19.4503 5.56005-21.7444 7.99087-24.0466 11.3297-25.1998 15.5726-25.1998 19.4377-25.1998 22.5355-24.0306 24.8618-21.6962 27.1841-19.3699 28.3493-16.2642 28.3493-12.3748ZM20.2655-14.9783C20.2655-16.4769 19.8236-17.6823 18.9477-18.5943 18.0799-19.5144 16.9428-19.9765 15.5406-19.9765 14.0057-19.9765 12.7643-19.5466 11.812-18.6908 10.8678-17.831 10.2772-16.5934 10.0441-14.9783Z" fill="#000000" fill-rule="nonzero" fill-opacity="1" transform="matrix(1 0 0 1.00002 1423.22 1368.01)"/><path d="M14.8022-11.0736C13.1628-11.0736 11.9294-10.7923 11.1057-10.2379 10.278-9.6794 9.86822-8.85981 9.86822-7.77898 9.86822-6.78255 10.1977-5.99904 10.8646-5.43261 11.5276-4.87412 12.4557-4.59689 13.645-4.59689 15.1235-4.59689 16.365-5.12724 17.3735-6.18799 18.3901-7.24865 18.9004-8.57458 18.9004-10.1737L18.9004-11.0737ZM26.8241-14.0468 26.8241-0.000617143 18.9009-0.000617143 18.9009-3.64886C17.8403-2.15825 16.6509-1.06941 15.333-0.386331 14.0151 0.296743 12.4121 0.64224 10.5276 0.64224 7.97626 0.64224 5.90307-0.101067 4.30797-1.59171 2.72088-3.07831 1.92939-5.00688 1.92939-7.37743 1.92939-10.2703 2.91779-12.3837 4.90258-13.7257 6.89544-15.0757 10.0133-15.7507 14.2562-15.7507L18.9008-15.7507 18.9008-16.3775C18.9008-17.619 18.4066-18.5311 17.4223-19.1096 16.4459-19.6882 14.9151-19.9775 12.8258-19.9775 11.1423-19.9775 9.5794-19.8047 8.13291-19.4632 6.68654-19.1297 5.33643-18.6275 4.08291-17.9524L4.08291-23.947C5.7744-24.3649 7.46599-24.6743 9.16149-24.8792 10.865-25.0921 12.5606-25.2006 14.2561-25.2006 18.6998-25.2006 21.9061-24.3207 23.8669-22.5649 25.8357-20.8171 26.824-17.9765 26.824-14.0471Z" fill="#000000" fill-rule="nonzero" fill-opacity="1" transform="matrix(1 0 0 1.00002 1453.74 1368.01)"/><path d="M12.3747-31.5967 12.3747-24.6056 20.4747-24.6056 20.4747-18.9805 12.3747-18.9805 12.3747-8.54979C12.3747-7.40067 12.5997-6.62523 13.0497-6.21946 13.4997-5.82169 14.3997-5.62483 15.7497-5.62483L19.7997-5.62483 19.7997 0.000226286 13.0497 0.000226286C9.93996 0.000226286 7.7381-0.646653 6.44436-1.94439 5.14661-3.23813 4.49974-5.43989 4.49974-8.54977L4.49974-18.9805 0.59436-18.9805 0.59436-24.6056 4.49974-24.6056 4.49974-31.5967Z" fill="#000000" fill-rule="nonzero" fill-opacity="1" transform="matrix(1 0 0 1.00002 1484.1 1368.01)"/><path d="M28.3495-12.3747 28.3495-10.1247 9.94731-10.1247C10.1402-8.28051 10.8031-6.89842 11.9402-5.97837 13.0853-5.05426 14.6884-4.59617 16.7456-4.59617 18.3929-4.59617 20.0884-4.83725 21.8241-5.31938 23.5598-5.80956 25.3438-6.55686 27.1759-7.55334L27.1759-1.49443C25.3196-0.787289 23.4634-0.256958 21.5991 0.0966652 19.7348 0.45827 17.8745 0.643094 16.0223 0.643094 11.5625 0.643094 8.09908-0.485969 5.62443-2.748 3.15751-5.01806 1.92795-8.19624 1.92795-12.2783 1.92795-16.2961 3.13735-19.4503 5.56005-21.7444 7.99087-24.0466 11.3297-25.1998 15.5726-25.1998 19.4377-25.1998 22.5355-24.0306 24.8618-21.6962 27.1841-19.3699 28.3493-16.2642 28.3493-12.3748ZM20.2655-14.9783C20.2655-16.4769 19.8236-17.6823 18.9477-18.5943 18.0799-19.5144 16.9428-19.9765 15.5406-19.9765 14.0057-19.9765 12.7643-19.5466 11.812-18.6908 10.8678-17.831 10.2772-16.5934 10.0441-14.9783Z" fill="#000000" fill-rule="nonzero" fill-opacity="1" transform="matrix(1 0 0 1.00002 1505.62 1368.01)"/><path d="M20.5231-21.0055 20.5231-34.1835 28.4302-34.1835 28.4302 0 20.5231 0 20.5231-3.55176C19.4383-2.10538 18.245-1.04462 16.9391-0.369566 15.6293 0.305434 14.1186 0.642939 12.407 0.642939 9.37358 0.642939 6.88248-0.562443 4.93385-2.97311 2.99325-5.38387 2.02495-8.48563 2.02495-12.2785 2.02495-16.0713 2.99326-19.1731 4.93385-21.5839 6.88248-23.9946 9.37358-25.1999 12.407-25.1999 14.1106-25.1999 15.6133-24.8544 16.9231-24.1713 18.2409-23.4963 19.4383-22.4396 20.5231-21.0053ZM15.332-5.07909C17.0235-5.07909 18.3092-5.69382 19.1891-6.92733 20.0771-8.15678 20.5231-9.94073 20.5231-12.2791 20.5231-14.6255 20.0771-16.4134 19.1891-17.647 18.3092-18.8764 17.0235-19.4952 15.332-19.4952 13.6606-19.4952 12.3789-18.8765 11.4909-17.647 10.611-16.4135 10.1731-14.6256 10.1731-12.2791 10.1731-9.94073 10.611-8.15678 11.4909-6.92733 12.3788-5.69386 13.6606-5.07909 15.332-5.07909Z" fill="#000000" fill-rule="nonzero" fill-opacity="1" transform="matrix(1 0 0 1.00002 1536.14 1368.01)"/><path d="M16.8747-5.07857C18.5542-5.07857 19.8399-5.69331 20.7319-6.92681 21.6198-8.15626 22.0658-9.94022 22.0658-12.2786 22.0658-14.6249 21.6199-16.4129 20.7319-17.6465 19.8399-18.8759 18.5542-19.4947 16.8747-19.4947 15.1913-19.4947 13.9016-18.872 13.0016-17.6304 12.1016-16.397 11.6516-14.613 11.6516-12.2787 11.6516-9.95236 12.1016-8.1684 13.0016-6.92691 13.9016-5.69345 15.1913-5.07867 16.8747-5.07867ZM11.6516-21.005C12.7324-22.4393 13.9337-23.4961 15.2516-24.171 16.5694-24.8541 18.0841-25.1996 19.7998-25.1996 22.8292-25.1996 25.3203-23.9942 27.273-21.5835 29.2216-19.1728 30.198-16.071 30.198-12.2782 30.198-8.4853 29.2217-5.38354 27.273-2.97278 25.3203-0.562011 22.8292 0.643269 19.7998 0.643269 18.0841 0.643269 16.5695 0.29773 15.2516-0.385303 13.9336-1.06834 12.7324-2.12503 11.6516-3.55135L11.6516 0.000411429 3.77661 0.000411429 3.77661-34.1831 11.6516-34.1831Z" fill="#000000" fill-rule="nonzero" fill-opacity="1" transform="matrix(1 0 0 1.00002 1584.01 1368.01)"/><path d="M0.546429-24.6055 8.42138-24.6055 15.0268-7.90766 20.6518-24.6055 28.5268-24.6055 18.1773 2.33074C17.1367 5.07096 15.9193 6.98338 14.529 8.06822 13.1468 9.16107 11.3188 9.70755 9.0487 9.70755L4.50046 9.70755 4.50046 4.54865 6.95937 4.54865C8.29733 4.54865 9.26563 4.33168 9.86827 3.90579 10.479 3.48794 10.9531 2.72458 11.2986 1.6236L11.5075 0.9486Z" fill="#000000" fill-rule="nonzero" fill-opacity="1" transform="matrix(1 0 0 1.00002 1616.22 1368.01)"/><path d="M4.13033-32.8022 26.9677-32.8022 26.9677-26.4057 12.5842-26.4057 12.5842-20.2985 26.1006-20.2985 26.1006-13.9021 12.5842-13.9021 12.5842-6.39669 27.4501-6.39669 27.4501-0.000205714 4.13033-0.000205714Z" fill="#000000" fill-rule="nonzero" fill-opacity="1" transform="matrix(1 0 0 1.00002 1661.22 1368.01)"/><path d="M3.51967-9.57857 3.51967-24.605 11.4268-24.605 11.4268-22.1461C11.4268-20.8161 11.4148-19.1447 11.3947-17.1318 11.3826-15.1149 11.3786-13.7729 11.3786-13.0978 11.3786-11.113 11.4268-9.69069 11.5232-8.82288 11.6277-7.95502 11.8125-7.32024 12.0697-6.9264 12.3911-6.41211 12.8089-6.01435 13.3233-5.73717 13.8456-5.45591 14.4483-5.31931 15.1233-5.31931 16.7626-5.31931 18.0483-5.9461 18.9804-7.19964 19.9206-8.46129 20.3947-10.213 20.3947-12.455L20.3947-24.6045 28.2536-24.6045 28.2536 0.000977143 20.3947 0.000977143 20.3947-3.55078C19.2055-2.12446 17.9438-1.06771 16.6179-0.384737 15.3001 0.298296 13.8416 0.643834 12.2465 0.643834 9.39384 0.643834 7.22417-0.228045 5.73757-1.97583 4.259-3.71957 3.51977-6.2549 3.51977-9.57759Z" fill="#000000" fill-rule="nonzero" fill-opacity="1" transform="matrix(1 0 0 1.00002 1691.96 1368.01)"/><path d="M23.6571-23.8341 23.6571-17.4215C22.5965-18.1608 21.5237-18.6992 20.4429-19.0447 19.3701-19.3983 18.2571-19.5751 17.1-19.5751 14.9023-19.5751 13.1866-18.9322 11.9571-17.6465 10.7357-16.3688 10.1251-14.5808 10.1251-12.2786 10.1251-9.98436 10.7358-8.1964 11.9571-6.91068 13.1866-5.62497 14.9023-4.98211 17.1-4.98211 18.3295-4.98211 19.4986-5.16291 20.6035-5.52854 21.7044-5.9022 22.725-6.44863 23.6571-7.16788L23.6571-0.723261C22.4357-0.273261 21.1862 0.0642343 19.9125 0.289245 18.6469 0.522278 17.3773 0.642816 16.1036 0.642816 11.6679 0.642816 8.19648-0.498281 5.68934-2.78037 3.18219-5.06246 1.92867-8.22861 1.92867-12.2786 1.92867-16.3366 3.1823-19.5027 5.68934-21.7769 8.19648-24.059 11.6679-25.2 16.1036-25.2 17.3893-25.2 18.659-25.0875 19.9125-24.8625 21.166-24.6376 22.4116-24.292 23.6571-23.834Z" fill="#000000" fill-rule="nonzero" fill-opacity="1" transform="matrix(1 0 0 1.00002 1724 1368.01)"/><path d="M14.8022-11.0736C13.1628-11.0736 11.9294-10.7923 11.1057-10.2379 10.278-9.6794 9.86822-8.85981 9.86822-7.77898 9.86822-6.78255 10.1977-5.99904 10.8646-5.43261 11.5276-4.87412 12.4557-4.59689 13.645-4.59689 15.1235-4.59689 16.365-5.12724 17.3735-6.18799 18.3901-7.24865 18.9004-8.57458 18.9004-10.1737L18.9004-11.0737ZM26.8241-14.0468 26.8241-0.000617143 18.9009-0.000617143 18.9009-3.64886C17.8403-2.15825 16.6509-1.06941 15.333-0.386331 14.0151 0.296743 12.4121 0.64224 10.5276 0.64224 7.97626 0.64224 5.90307-0.101067 4.30797-1.59171 2.72088-3.07831 1.92939-5.00688 1.92939-7.37743 1.92939-10.2703 2.91779-12.3837 4.90258-13.7257 6.89544-15.0757 10.0133-15.7507 14.2562-15.7507L18.9008-15.7507 18.9008-16.3775C18.9008-17.619 18.4066-18.5311 17.4223-19.1096 16.4459-19.6882 14.9151-19.9775 12.8258-19.9775 11.1423-19.9775 9.5794-19.8047 8.13291-19.4632 6.68654-19.1297 5.33643-18.6275 4.08291-17.9524L4.08291-23.947C5.7744-24.3649 7.46599-24.6743 9.16149-24.8792 10.865-25.0921 12.5606-25.2006 14.2561-25.2006 18.6998-25.2006 21.9061-24.3207 23.8669-22.5649 25.8357-20.8171 26.824-17.9765 26.824-14.0471Z" fill="#000000" fill-rule="nonzero" fill-opacity="1" transform="matrix(1 0 0 1.00002 1750.68 1368.01)"/><path d="M3.77681-34.1835 11.6518-34.1835 11.6518 0 3.77681 0Z" fill="#000000" fill-rule="nonzero" fill-opacity="1" transform="matrix(1 0 0 1.00002 1781.04 1368.01)"/><path d="M0.546429-24.6055 8.42138-24.6055 15.0268-7.90766 20.6518-24.6055 28.5268-24.6055 18.1773 2.33074C17.1367 5.07096 15.9193 6.98338 14.529 8.06822 13.1468 9.16107 11.3188 9.70755 9.0487 9.70755L4.50046 9.70755 4.50046 4.54865 6.95937 4.54865C8.29733 4.54865 9.26563 4.33168 9.86827 3.90579 10.479 3.48794 10.9531 2.72458 11.2986 1.6236L11.5075 0.9486Z" fill="#000000" fill-rule="nonzero" fill-opacity="1" transform="matrix(1 0 0 1.00002 1796.47 1368.01)"/><path d="M11.6517-3.55176 11.6517 9.35373 3.77671 9.35373 3.77671-24.6056 11.6517-24.6056 11.6517-21.0056C12.7325-22.4399 13.9339-23.4967 15.2517-24.1716 16.5695-24.8547 18.0842-25.2002 19.7999-25.2002 22.8293-25.2002 25.3204-23.9948 27.2731-21.5842 29.2217-19.1734 30.1981-16.0716 30.1981-12.2788 30.1981-8.48592 29.2218-5.38416 27.2731-2.97339 25.3204-0.562629 22.8293 0.642651 19.7999 0.642651 18.0842 0.642651 16.5696 0.297113 15.2517-0.38592 13.9337-1.06895 12.7325-2.12565 11.6517-3.55197ZM16.8748-19.4946C15.1914-19.4946 13.9017-18.8718 13.0017-17.6303 12.1017-16.3969 11.6517-14.6129 11.6517-12.2786 11.6517-9.95225 12.1017-8.1683 13.0017-6.92681 13.9017-5.69335 15.1914-5.07857 16.8748-5.07857 18.5543-5.07857 19.84-5.69331 20.732-6.92681 21.6199-8.15626 22.0659-9.94022 22.0659-12.2786 22.0659-14.6249 21.62-16.4129 20.732-17.6465 19.84-18.8759 18.5543-19.4947 16.8748-19.4947Z" fill="#000000" fill-rule="nonzero" fill-opacity="1" transform="matrix(1 0 0 1.00002 1825.8 1368.01)"/></g></g></g></g></svg>