<svg width="721" height="614" xmlns="http://www.w3.org/2000/svg" xmlns:xlink="http://www.w3.org/1999/xlink" xml:space="preserve" overflow="hidden"><defs><clipPath id="clip0"><rect x="-673" y="376" width="721" height="614"/></clipPath><clipPath id="clip1"><rect x="-673" y="376" width="720" height="614"/></clipPath><clipPath id="clip2"><rect x="-673" y="376" width="720" height="614"/></clipPath><clipPath id="clip3"><rect x="-673" y="376" width="720" height="720"/></clipPath></defs><g clip-path="url(#clip0)" transform="translate(673 -376)"><g clip-path="url(#clip1)"><g clip-path="url(#clip2)"><g clip-path="url(#clip3)"><path d="M529.373 150.424C472.158 150.424 411.339 165.955 411.339 194.737L411.339 380.727C411.339 409.505 472.15 425.031 529.373 425.031 586.591 425.031 647.406 409.505 647.406 380.727L647.406 194.737C647.406 165.959 586.595 150.424 529.373 150.424ZM529.373 161.937C590.34 161.937 635.897 179.254 635.897 194.741 635.897 210.231 590.344 227.553 529.373 227.553 468.401 227.553 422.849 210.232 422.849 194.741 422.849 179.25 468.401 161.937 529.373 161.937ZM529.373 413.521C468.406 413.521 422.849 396.203 422.849 380.725L422.849 338.656C443.153 354.605 487.22 363.046 529.373 363.046 571.525 363.046 615.589 354.604 635.897 338.656L635.897 380.728C635.897 396.211 590.34 413.52 529.373 413.52ZM529.373 351.538C468.406 351.538 422.849 334.21 422.849 318.718L422.849 276.674C443.153 292.622 487.22 301.063 529.373 301.063 571.525 301.063 615.589 292.622 635.897 276.674L635.897 318.718C635.897 334.208 590.34 351.538 529.373 351.538ZM529.373 289.548C468.406 289.548 422.849 272.219 422.849 256.727L422.849 214.667C443.153 230.615 487.22 239.056 529.373 239.056 571.525 239.056 615.589 230.618 635.897 214.671L635.897 256.731C635.897 272.226 590.34 289.548 529.373 289.548Z" fill="#000000" fill-rule="nonzero" fill-opacity="1" transform="matrix(1.00092 0 0 1 -673 376)"/><path d="M71.934 150.589 169.338 150.589 169.338 53.1931 71.934 53.1931ZM83.4424 64.7016 157.829 64.7016 157.829 139.089 83.4424 139.089Z" fill="#000000" fill-rule="nonzero" fill-opacity="1" transform="matrix(1.00092 0 0 1 -673 376)"/><path d="M71.934 336.435 169.338 336.435 169.338 239.036 71.934 239.036ZM83.4424 250.544 157.829 250.544 157.829 324.923 83.4424 324.923Z" fill="#000000" fill-rule="nonzero" fill-opacity="1" transform="matrix(1.00092 0 0 1 -673 376)"/><path d="M71.934 522.292 169.338 522.292 169.338 424.876 71.934 424.876ZM83.4424 436.385 157.829 436.385 157.829 510.783 83.4424 510.779Z" fill="#000000" fill-rule="nonzero" fill-opacity="1" transform="matrix(1.00092 0 0 1 -673 376)"/><path d="M230.733 289.555 354.111 289.555 354.111 301.063 230.733 301.063Z" fill="#000000" fill-rule="nonzero" fill-opacity="1" transform="matrix(1.00092 0 0 1 -673 376)"/><path d="M350.586 211.085 227.219 115.833 234.252 106.725 357.619 201.977Z" fill="#000000" fill-rule="nonzero" fill-opacity="1" transform="matrix(1.00092 0 0 1 -673 376)"/><path d="M234.258 492.193 227.221 483.077 350.609 387.84 357.646 396.957Z" fill="#000000" fill-rule="nonzero" fill-opacity="1" transform="matrix(1.00092 0 0 1 -673 376)"/><path d="M19.2845-1.15608C18.289-0.642268 17.2493-0.256907 16.1695 0 15.0977 0.264933 13.9738 0.401412 12.7977 0.401412 9.30538 0.401412 6.53962-0.570015 4.49639-2.52096 2.44915-4.47982 1.42953-7.12926 1.42953-10.4691 1.42953-13.8169 2.44914-16.4662 4.49639-18.4171 6.53962-20.376 9.30538-21.3555 12.7977-21.3555 13.9738-21.3555 15.0978-21.2191 16.1695-20.9541 17.2494-20.6972 18.289-20.3119 19.2845-19.798L19.2845-15.4627C18.2769-16.1371 17.2854-16.6348 16.314-16.9559 15.3386-17.2771 14.311-17.4376 13.2311-17.4376 11.3043-17.4376 9.78693-16.8154 8.68706-15.5751 7.58318-14.3427 7.03319-12.6407 7.03319-10.469 7.03319-8.30531 7.58314-6.60335 8.68706-5.3629 9.78693-4.13056 11.3043-3.51635 13.2311-3.51635 14.311-3.51635 15.3386-3.66889 16.314-3.98199 17.2854-4.30312 18.277-4.80489 19.2845-5.49137Z" fill="#000000" fill-rule="nonzero" fill-opacity="1" transform="matrix(1.00092 0 0 1 -601 1037.79)"/><path d="M14.1135-11.4488C13.6639-11.6495 13.2183-11.8021 12.7807-11.8984 12.3512-12.0028 11.9177-12.059 11.4802-12.059 10.1836-12.059 9.18803-11.6415 8.49366-10.8065 7.79519-9.97957 7.45-8.79943 7.45-7.25799L7.45-0.00035967 2.42428-0.00035967 2.42428-15.7354 7.45-15.7354 7.45-13.1503C8.09227-14.1779 8.83093-14.9246 9.66577-15.3982 10.5087-15.8799 11.5163-16.1208 12.6844-16.1208 12.853-16.1208 13.0377-16.1087 13.2304-16.0887 13.4311-16.0766 13.7201-16.0485 14.0974-16.0084Z" fill="#000000" fill-rule="nonzero" fill-opacity="1" transform="matrix(1.00092 0 0 1 -579.862 1037.79)"/><path d="M18.1284-7.91593 18.1284-6.47088 6.35897-6.47088C6.48742-5.29075 6.91292-4.4076 7.6435-3.82155 8.37007-3.23146 9.39366-2.93842 10.7104-2.93842 11.77-2.93842 12.8499-3.09096 13.9538-3.40406 15.0657-3.7252 16.2057-4.19887 17.3738-4.83308L17.3738-0.963443C16.1857-0.513856 14.9974-0.17667 13.8092 0.0481341 12.621 0.280954 11.4328 0.401382 10.2445 0.401382 7.39451 0.401382 5.17863-0.321165 3.59701-1.7663 2.0235-3.21135 1.23665-5.23855 1.23665-7.85181 1.23665-10.4209 2.01139-12.436 3.56484-13.9052 5.1143-15.3824 7.24581-16.1209 9.95546-16.1209 12.4281-16.1209 14.4072-15.3703 15.8964-13.873 17.3816-12.3838 18.1283-10.3967 18.1283-7.91594ZM12.9582-9.58582C12.9582-10.5372 12.6772-11.3039 12.1232-11.882 11.5653-12.468 10.8387-12.7651 9.93953-12.7651 8.96409-12.7651 8.17325-12.4921 7.56314-11.9462 6.95304-11.4002 6.57164-10.6135 6.42309-9.58582Z" fill="#000000" fill-rule="nonzero" fill-opacity="1" transform="matrix(1.00092 0 0 1 -565.659 1037.79)"/><path d="M9.4735-7.08098C8.42183-7.08098 7.63097-6.90435 7.09711-6.55111 6.57125-6.19787 6.31034-5.67201 6.31034-4.97761 6.31034-4.33534 6.52309-3.82954 6.95261-3.46823 7.37811-3.11498 7.96819-2.93836 8.7189-2.93836 9.67025-2.93836 10.4691-3.27555 11.1113-3.94994 11.7616-4.63235 12.0908-5.48337 12.0908-6.50298L12.0908-7.08102ZM17.1487-8.97572 17.1487 0 12.0908 0 12.0908-2.3282C11.4164-1.37282 10.6537-0.678338 9.81067-0.240876 8.96368 0.184624 7.93607 0.401392 6.72778 0.401392 5.09807 0.401392 3.77736-0.0682654 2.76175-1.0116 1.74215-1.96296 1.23634-3.19932 1.23634-4.72072 1.23634-6.55925 1.86656-7.90801 3.13108-8.76701 4.40359-9.63407 6.39863-10.0676 9.12021-10.0676L12.0907-10.0676 12.0907-10.469C12.0907-11.2598 11.7736-11.8378 11.1433-12.2031 10.5091-12.5764 9.52963-12.7651 8.20492-12.7651 7.12108-12.7651 6.1176-12.6567 5.18626-12.444 4.26299-12.2272 3.40795-11.9061 2.61719-11.4806L2.61719-15.3181C3.68499-15.575 4.76072-15.7717 5.84456-15.9122 6.93641-16.0487 8.02827-16.121 9.12012-16.121 11.9541-16.121 14.0014-15.559 15.2538-14.435 16.5143-13.3191 17.1486-11.5006 17.1486-8.97576Z" fill="#000000" fill-rule="nonzero" fill-opacity="1" transform="matrix(1.00092 0 0 1 -546.128 1037.79)"/><path d="M7.91593-20.1991 7.91593-15.7353 13.1023-15.7353 13.1023-12.1386 7.91593-12.1386 7.91593-5.45897C7.91593-4.72839 8.06043-4.23866 8.34946-3.98175 8.63849-3.72485 9.2085-3.59639 10.0676-3.59639L12.6527-3.59639 12.6527 0.000308289 8.34946 0.000308289C6.35843 0.000308289 4.94544-0.40914 4.11049-1.23603 3.28357-2.07098 2.87415-3.47595 2.87415-5.45897L2.87415-12.1386 0.38534-12.1386 0.38534-15.7353 2.87415-15.7353 2.87415-20.1991Z" fill="#000000" fill-rule="nonzero" fill-opacity="1" transform="matrix(1.00092 0 0 1 -526.694 1037.79)"/><path d="M18.1284-7.91593 18.1284-6.47088 6.35897-6.47088C6.48742-5.29075 6.91292-4.4076 7.6435-3.82155 8.37007-3.23146 9.39366-2.93842 10.7104-2.93842 11.77-2.93842 12.8499-3.09096 13.9538-3.40406 15.0657-3.7252 16.2057-4.19887 17.3738-4.83308L17.3738-0.963443C16.1857-0.513856 14.9974-0.17667 13.8092 0.0481341 12.621 0.280954 11.4328 0.401382 10.2445 0.401382 7.39451 0.401382 5.17863-0.321165 3.59701-1.7663 2.0235-3.21135 1.23665-5.23855 1.23665-7.85181 1.23665-10.4209 2.01139-12.436 3.56484-13.9052 5.1143-15.3824 7.24581-16.1209 9.95546-16.1209 12.4281-16.1209 14.4072-15.3703 15.8964-13.873 17.3816-12.3838 18.1283-10.3967 18.1283-7.91594ZM12.9582-9.58582C12.9582-10.5372 12.6772-11.3039 12.1232-11.882 11.5653-12.468 10.8387-12.7651 9.93953-12.7651 8.96409-12.7651 8.17325-12.4921 7.56314-11.9462 6.95304-11.4002 6.57164-10.6135 6.42309-9.58582Z" fill="#000000" fill-rule="nonzero" fill-opacity="1" transform="matrix(1.00092 0 0 1 -512.925 1037.79)"/><path d="M13.1187-13.4393 13.1187-21.8691 18.1766-21.8691 18.1766-0.000102763 13.1187-0.000102763 13.1187-2.28021C12.4323-1.34892 11.6737-0.66652 10.8386-0.240979 10.0036 0.184562 9.03224 0.401289 7.93237 0.401289 5.99354 0.401289 4.4039-0.369433 3.16356-1.91088 1.9192-3.45232 1.30098-5.43133 1.30098-7.8518 1.30098-10.2804 1.91916-12.2674 3.16356-13.8089 4.4039-15.3503 5.99354-16.121 7.93237-16.121 9.02423-16.121 9.98763-15.9003 10.8226-15.4627 11.6655-15.0211 12.4323-14.3468 13.1187-13.4395ZM9.81098-3.2433C10.8788-3.2433 11.6976-3.63268 12.2676-4.41541 12.8336-5.2062 13.1186-6.35023 13.1186-7.8516 13.1186-9.34885 12.8336-10.4889 12.2676-11.2716 11.6976-12.0624 10.8787-12.4598 9.81098-12.4598 8.73916-12.4598 7.92035-12.0624 7.35433-11.2716 6.78431-10.4889 6.50333-9.34885 6.50333-7.8516 6.50333-6.35033 6.78432-5.20628 7.35433-4.41541 7.92033-3.63265 8.73926-3.2433 9.81098-3.2433Z" fill="#000000" fill-rule="nonzero" fill-opacity="1" transform="matrix(1.00092 0 0 1 -493.394 1037.79)"/><path d="M10.7901-3.2434C11.8699-3.2434 12.6929-3.63278 13.2628-4.41552 13.8288-5.20631 14.1138-6.35033 14.1138-7.8517 14.1138-9.34896 13.8288-10.489 13.2628-11.2718 12.6928-12.0625 11.8698-12.4599 10.7901-12.4599 9.70626-12.4599 8.87933-12.0625 8.30129-11.2718 7.73127-10.4769 7.45029-9.33693 7.45029-7.8517 7.45029-6.36246 7.73128-5.22241 8.30129-4.43165 8.87933-3.63684 9.70626-3.2435 10.7901-3.2435ZM7.45031-13.4394C8.14476-14.3466 8.91149-15.0211 9.74644-15.4626 10.5894-15.9002 11.5608-16.1209 12.6527-16.1209 14.5995-16.1209 16.1932-15.3502 17.4375-13.8088 18.6779-12.2673 19.3001-10.2803 19.3001-7.85172 19.3001-5.43114 18.6779-3.45224 17.4375-1.91079 16.1932-0.36935 14.5995 0.401371 12.6527 0.401371 11.5608 0.401371 10.5894 0.184603 9.74644-0.240897 8.91149-0.678441 8.14478-1.3568 7.45031-2.28012L7.45031-2.05526e-05 2.42459-2.05526e-05 2.42459-21.869 7.45031-21.869Z" fill="#000000" fill-rule="nonzero" fill-opacity="1" transform="matrix(1.00092 0 0 1 -462.75 1037.79)"/><path d="M0.353247-15.7351 5.37897-15.7351 9.61794-5.05696 13.2146-15.7351 18.2404-15.7351 11.625 1.49417C10.9586 3.23631 10.184 4.45662 9.2968 5.1551 8.40565 5.86159 7.24155 6.21479 5.79649 6.21479L2.87412 6.21479 2.87412 2.90706 4.44763 2.90706C5.30265 2.90706 5.92485 2.76656 6.31021 2.48958 6.70359 2.22063 7.00868 1.73893 7.22543 1.04453L7.36994 0.610997Z" fill="#000000" fill-rule="nonzero" fill-opacity="1" transform="matrix(1.00092 0 0 1 -442.134 1037.79)"/><path d="M17.2446-20.3121 17.2446-15.8805C16.0886-16.3943 14.9565-16.7796 13.8566-17.0365 12.7648-17.3015 11.7291-17.438 10.7577-17.438 9.4732-17.438 8.51781-17.2533 7.89969-16.892 7.27749-16.5388 6.9684-15.9848 6.9684-15.2382 6.9684-14.6802 7.17713-14.2426 7.59462-13.9216 8.01209-13.6085 8.76673-13.3435 9.85859-13.1187L12.1708-12.6531C14.503-12.1915 16.1568-11.481 17.1322-10.5176 18.1157-9.5622 18.6095-8.20942 18.6095-6.45526 18.6095-4.14309 17.923-2.41698 16.5542-1.28505 15.1814-0.161029 13.09 0.400878 10.276 0.400878 8.93526 0.400878 7.59852 0.272424 6.26189 0.0155172 4.92114-0.229346 3.5844-0.598655 2.24776-1.09237L2.24776-5.6685C3.5845-4.94996 4.88106-4.40801 6.13343-4.0468 7.38591-3.69355 8.59008-3.51694 9.74617-3.51694 10.9343-3.51694 11.8376-3.70962 12.4597-4.09498 13.0899-4.48836 13.4071-5.05838 13.4071-5.79694 13.4071-6.44723 13.1903-6.95302 12.7648-7.30632 12.3353-7.65956 11.4843-7.9807 10.2118-8.26972L8.12444-8.71931C6.025-9.16889 4.48756-9.8834 3.51614-10.871 2.55274-11.8544 2.07109-13.1831 2.07109-14.853 2.07109-16.9403 2.74547-18.5461 4.09429-19.67 5.4431-20.7939 7.37787-21.356 9.90676-21.356 11.0628-21.356 12.243-21.2676 13.4553-21.099 14.6756-20.9264 15.9361-20.6655 17.2446-20.3123Z" fill="#000000" fill-rule="nonzero" fill-opacity="1" transform="matrix(1.00092 0 0 1 -413.334 1037.79)"/><path d="M14.1135-11.4488C13.6639-11.6495 13.2183-11.8021 12.7807-11.8984 12.3512-12.0028 11.9177-12.059 11.4802-12.059 10.1836-12.059 9.18803-11.6415 8.49366-10.8065 7.79519-9.97957 7.45-8.79943 7.45-7.25799L7.45-0.00035967 2.42428-0.00035967 2.42428-15.7354 7.45-15.7354 7.45-13.1503C8.09227-14.1779 8.83093-14.9246 9.66577-15.3982 10.5087-15.8799 11.5163-16.1208 12.6844-16.1208 12.853-16.1208 13.0377-16.1087 13.2304-16.0887 13.4311-16.0766 13.7201-16.0485 14.0974-16.0084Z" fill="#000000" fill-rule="nonzero" fill-opacity="1" transform="matrix(1.00092 0 0 1 -392.594 1037.79)"/><path d="M2.42459-15.7351 7.45031-15.7351 7.45031 0 2.42459 0ZM2.42459-21.8688 7.45031-21.8688 7.45031-17.7582 2.42459-17.7582Z" fill="#000000" fill-rule="nonzero" fill-opacity="1" transform="matrix(1.00092 0 0 1 -378.391 1037.79)"/><path d="M18.2404-9.58582 18.2404 0 13.1825 0 13.1825-7.33789C13.1825-8.69466 13.1504-9.63402 13.0862-10.1478 13.022-10.6616 12.9136-11.039 12.7651-11.2879 12.5724-11.609 12.3034-11.8579 11.9622-12.0426 11.629-12.2232 11.2477-12.3155 10.8222-12.3155 9.77049-12.3155 8.94756-11.9061 8.34948-11.0952 7.74735-10.2924 7.45031-9.17241 7.45031-7.73938L7.45031-0.000102763 2.42459-0.000102763 2.42459-15.7352 7.45031-15.7352 7.45031-13.439C8.20899-14.3462 9.01179-15.0206 9.85886-15.4622 10.7139-15.8998 11.6572-16.1205 12.6848-16.1205 14.5032-16.1205 15.8842-15.5585 16.8274-14.4346 17.7667-13.3187 18.2404-11.705 18.2404-9.58543Z" fill="#000000" fill-rule="nonzero" fill-opacity="1" transform="matrix(1.00092 0 0 1 -368.519 1037.79)"/><path d="M2.42459-15.7351 7.45031-15.7351 7.45031 0 2.42459 0ZM2.42459-21.8688 7.45031-21.8688 7.45031-17.7582 2.42459-17.7582Z" fill="#000000" fill-rule="nonzero" fill-opacity="1" transform="matrix(1.00092 0 0 1 -348.016 1037.79)"/><path d="M0.433536-15.7351 5.45926-15.7351 9.39312-4.86479 13.2949-15.7351 18.3367-15.7351 12.1388 0 6.61534 0Z" fill="#000000" fill-rule="nonzero" fill-opacity="1" transform="matrix(1.00092 0 0 1 -338.144 1037.79)"/><path d="M9.4735-7.08098C8.42183-7.08098 7.63097-6.90435 7.09711-6.55111 6.57125-6.19787 6.31034-5.67201 6.31034-4.97761 6.31034-4.33534 6.52309-3.82954 6.95261-3.46823 7.37811-3.11498 7.96819-2.93836 8.7189-2.93836 9.67025-2.93836 10.4691-3.27555 11.1113-3.94994 11.7616-4.63235 12.0908-5.48337 12.0908-6.50298L12.0908-7.08102ZM17.1487-8.97572 17.1487 0 12.0908 0 12.0908-2.3282C11.4164-1.37282 10.6537-0.678338 9.81067-0.240876 8.96368 0.184624 7.93607 0.401392 6.72778 0.401392 5.09807 0.401392 3.77736-0.0682654 2.76175-1.0116 1.74215-1.96296 1.23634-3.19932 1.23634-4.72072 1.23634-6.55925 1.86656-7.90801 3.13108-8.76701 4.40359-9.63407 6.39863-10.0676 9.12021-10.0676L12.0907-10.0676 12.0907-10.469C12.0907-11.2598 11.7736-11.8378 11.1433-12.2031 10.5091-12.5764 9.52963-12.7651 8.20492-12.7651 7.12108-12.7651 6.1176-12.6567 5.18626-12.444 4.26299-12.2272 3.40795-11.9061 2.61719-11.4806L2.61719-15.3181C3.68499-15.575 4.76072-15.7717 5.84456-15.9122 6.93641-16.0487 8.02827-16.121 9.12012-16.121 11.9541-16.121 14.0014-15.559 15.2538-14.435 16.5143-13.3191 17.1486-11.5006 17.1486-8.97576Z" fill="#000000" fill-rule="nonzero" fill-opacity="1" transform="matrix(1.00092 0 0 1 -319.372 1037.79)"/><path d="M14.7074-15.2377 14.7074-11.4161C13.6356-11.8657 12.596-12.2029 11.5925-12.4277 10.5849-12.6525 9.63762-12.7649 8.75046-12.7649 7.79509-12.7649 7.08458-12.6445 6.61495-12.4116 6.15332-12.1748 5.92451-11.8055 5.92451-11.3038 5.92451-10.9064 6.10113-10.6013 6.45437-10.3885 6.80762-10.1718 7.43784-10.0112 8.34911-9.90683L9.23224-9.77838C11.8093-9.4452 13.5434-8.90329 14.4346-8.15668 15.3217-7.40603 15.7673-6.23388 15.7673-4.64024 15.7673-2.95832 15.1451-1.69382 13.9048-0.850856 12.6724-0.0159077 10.8299 0.401618 8.38126 0.401618 7.32958 0.401618 6.24975 0.321334 5.13786 0.160762 4.03398 0.000195249 2.89793-0.244668 1.73384-0.577846L1.73384-4.39939C2.72935-3.90565 3.74891-3.53635 4.80069-3.29151 5.86038-3.05467 6.93621-2.93826 8.02806-2.93826 9.01153-2.93826 9.75016-3.07073 10.2438-3.33967 10.7336-3.61665 10.9824-4.02208 10.9824-4.55998 10.9824-5.00957 10.8098-5.33873 10.4686-5.55549 10.1234-5.78029 9.44502-5.94888 8.4294-6.06931L7.54628-6.18171C5.30636-6.45869 3.74087-6.97652 2.84169-7.73919 1.94252-8.49786 1.49293-9.64996 1.49293-11.1914 1.49293-12.8613 2.05893-14.0976 3.19489-14.9005 4.33895-15.7114 6.09311-16.1208 8.46148-16.1208 9.38073-16.1208 10.3481-16.0446 11.3677-15.896 12.3954-15.7555 13.5072-15.5348 14.7075-15.2377Z" fill="#000000" fill-rule="nonzero" fill-opacity="1" transform="matrix(1.00092 0 0 1 -299.934 1037.79)"/><path d="M15.3661-3.82155 6.92026-3.82155 5.5715 0 0.144382 0 7.91582-20.9698 14.3545-20.9698 22.126 0 16.6989 0ZM8.26912-7.70722 14.0013-7.70722 11.1433-16.0567Z" fill="#000000" fill-rule="nonzero" fill-opacity="1" transform="matrix(1.00092 0 0 1 -272.765 1037.79)"/><path d="M13.1187-2.66546C12.4323-1.75424 11.6737-1.07983 10.8386-0.642268 10.0037-0.21275 9.03224 2.28179e-16 7.93237 2.28179e-16 6.01358 2.28179e-16 4.43206-0.75467 3.17959-2.26397 1.92711-3.78137 1.30098-5.70817 1.30098-8.04438 1.30098-10.3967 1.92719-12.3235 3.17959-13.8248 4.43206-15.3342 6.01358-16.0888 7.93237-16.0888 9.03224-16.0888 10.0037-15.868 10.8386-15.4304 11.6736-15.0009 12.4323-14.3266 13.1187-13.4072L13.1187-15.7354 18.1766-15.7354 18.1766-1.5891C18.1766 0.935779 17.3778 2.86659 15.7842 4.20734 14.1865 5.54408 11.8703 6.2144 8.83165 6.2144 7.8562 6.2144 6.90885 6.13813 5.98964 5.98961 5.06637 5.83707 4.14309 5.60826 3.21185 5.29916L3.21185 1.38133C4.09899 1.8831 4.96201 2.25642 5.79696 2.50535 6.63993 2.75021 7.4909 2.87466 8.35 2.87466 9.99585 2.87466 11.2 2.51338 11.9627 1.79883 12.7335 1.08029 13.1188-0.0477128 13.1188-1.58916ZM9.81098-12.46C8.77133-12.46 7.95642-12.0746 7.37036-11.3039 6.79232-10.5412 6.5033-9.45737 6.5033-8.04438 6.5033-6.60734 6.78027-5.51549 7.33825-4.76881 7.90424-4.03021 8.72719-3.66093 9.81093-3.66093 10.8586-3.66093 11.6735-4.03826 12.2515-4.80098 12.8296-5.5717 13.1186-6.65153 13.1186-8.04438 13.1186-9.45737 12.8296-10.5412 12.2515-11.3039 11.6735-12.0746 10.8586-12.46 9.81093-12.46Z" fill="#000000" fill-rule="nonzero" fill-opacity="1" transform="matrix(1.00092 0 0 1 -250.478 1037.79)"/><path d="M14.1135-11.4488C13.6639-11.6495 13.2183-11.8021 12.7807-11.8984 12.3512-12.0028 11.9177-12.059 11.4802-12.059 10.1836-12.059 9.18803-11.6415 8.49366-10.8065 7.79519-9.97957 7.45-8.79943 7.45-7.25799L7.45-0.00035967 2.42428-0.00035967 2.42428-15.7354 7.45-15.7354 7.45-13.1503C8.09227-14.1779 8.83093-14.9246 9.66577-15.3982 10.5087-15.8799 11.5163-16.1208 12.6844-16.1208 12.853-16.1208 13.0377-16.1087 13.2304-16.0887 13.4311-16.0766 13.7201-16.0485 14.0974-16.0084Z" fill="#000000" fill-rule="nonzero" fill-opacity="1" transform="matrix(1.00092 0 0 1 -229.863 1037.79)"/><path d="M9.4735-7.08098C8.42183-7.08098 7.63097-6.90435 7.09711-6.55111 6.57125-6.19787 6.31034-5.67201 6.31034-4.97761 6.31034-4.33534 6.52309-3.82954 6.95261-3.46823 7.37811-3.11498 7.96819-2.93836 8.7189-2.93836 9.67025-2.93836 10.4691-3.27555 11.1113-3.94994 11.7616-4.63235 12.0908-5.48337 12.0908-6.50298L12.0908-7.08102ZM17.1487-8.97572 17.1487 0 12.0908 0 12.0908-2.3282C11.4164-1.37282 10.6537-0.678338 9.81067-0.240876 8.96368 0.184624 7.93607 0.401392 6.72778 0.401392 5.09807 0.401392 3.77736-0.0682654 2.76175-1.0116 1.74215-1.96296 1.23634-3.19932 1.23634-4.72072 1.23634-6.55925 1.86656-7.90801 3.13108-8.76701 4.40359-9.63407 6.39863-10.0676 9.12021-10.0676L12.0907-10.0676 12.0907-10.469C12.0907-11.2598 11.7736-11.8378 11.1433-12.2031 10.5091-12.5764 9.52963-12.7651 8.20492-12.7651 7.12108-12.7651 6.1176-12.6567 5.18626-12.444 4.26299-12.2272 3.40795-11.9061 2.61719-11.4806L2.61719-15.3181C3.68499-15.575 4.76072-15.7717 5.84456-15.9122 6.93641-16.0487 8.02827-16.121 9.12012-16.121 11.9541-16.121 14.0014-15.559 15.2538-14.435 16.5143-13.3191 17.1486-11.5006 17.1486-8.97576Z" fill="#000000" fill-rule="nonzero" fill-opacity="1" transform="matrix(1.00092 0 0 1 -215.659 1037.79)"/><path d="M12.7652-21.869 12.7652-18.5612 9.98742-18.5612C9.28093-18.5612 8.78314-18.4328 8.49417-18.1759 8.21318-17.919 8.0767-17.4694 8.0767-16.8271L8.0767-15.7353 12.3799-15.7353 12.3799-12.1386 8.0767-12.1386 8.0767-0.000205526 3.05098-0.000205526 3.05098-12.1386 0.546133-12.1386 0.546133-15.7353 3.05098-15.7353 3.05098-16.8271C3.05098-18.5372 3.52465-19.8056 4.48-20.6325 5.43136-21.4554 6.9126-21.8689 8.92768-21.8689Z" fill="#000000" fill-rule="nonzero" fill-opacity="1" transform="matrix(1.00092 0 0 1 -601 1066.57)"/><path d="M14.1135-11.4488C13.6639-11.6495 13.2183-11.8021 12.7807-11.8984 12.3512-12.0028 11.9177-12.059 11.4802-12.059 10.1836-12.059 9.18803-11.6415 8.49366-10.8065 7.79519-9.97957 7.45-8.79943 7.45-7.25799L7.45-0.00035967 2.42428-0.00035967 2.42428-15.7354 7.45-15.7354 7.45-13.1503C8.09227-14.1779 8.83093-14.9246 9.66577-15.3982 10.5087-15.8799 11.5163-16.1208 12.6844-16.1208 12.853-16.1208 13.0377-16.1087 13.2304-16.0887 13.4311-16.0766 13.7201-16.0485 14.0974-16.0084Z" fill="#000000" fill-rule="nonzero" fill-opacity="1" transform="matrix(1.00092 0 0 1 -588.468 1066.57)"/><path d="M9.90696-12.5247C8.79106-12.5247 7.93997-12.1233 7.35392-11.3205 6.76383-10.5176 6.47079-9.3616 6.47079-7.85221 6.47079-6.34283 6.76383-5.18675 7.35392-4.38397 7.93998-3.58916 8.79095-3.19582 9.90696-3.19582 10.9988-3.19582 11.8338-3.58921 12.4118-4.38397 12.9979-5.1868 13.2949-6.34283 13.2949-7.85221 13.2949-9.3616 12.9979-10.5177 12.4118-11.3205 11.8338-12.1233 10.9988-12.5247 9.90696-12.5247ZM9.90696-16.1214C12.6125-16.1214 14.728-15.3869 16.2494-13.9217 17.7668-12.4645 18.5295-10.4414 18.5295-7.85232 18.5295-5.27122 17.7668-3.24803 16.2494-1.78294 14.728-0.325758 12.6125 0.400775 9.90696 0.400775 7.18539 0.400775 5.06189-0.325789 3.53247-1.78294 1.99905-3.24813 1.23634-5.27122 1.23634-7.85232 1.23634-10.4414 1.99904-12.4646 3.53247-13.9217 5.06189-15.3869 7.18539-16.1214 9.90696-16.1214Z" fill="#000000" fill-rule="nonzero" fill-opacity="1" transform="matrix(1.00092 0 0 1 -574.265 1066.57)"/><path d="M17.0042-13.1187C17.6344-14.0901 18.3891-14.8368 19.2681-15.3506 20.1432-15.8644 21.1067-16.1213 22.1583-16.1213 23.9647-16.1213 25.3416-15.5593 26.2849-14.4354 27.2363-13.3195 27.7139-11.7058 27.7139-9.58624L27.7139-0.000411052 22.656-0.000411052 22.656-8.20541 22.656-8.57472C22.6641-8.7112 22.6721-8.90388 22.6721-9.15276 22.6721-10.2647 22.5035-11.0675 22.1743-11.5613 21.8532-12.0631 21.3273-12.316 20.6008-12.316 19.6454-12.316 18.9069-11.9186 18.385-11.1278 17.8592-10.3451 17.5902-9.20905 17.5822-7.72382L17.5822-0.000575472 12.5243-0.000575472 12.5243-8.20557C12.5243-9.94771 12.3718-11.0677 12.0747-11.5614 11.7737-12.0632 11.2398-12.3161 10.4691-12.3161 9.50566-12.3161 8.75899-11.9187 8.23716-11.1279 7.7113-10.3452 7.45039-9.21715 7.45039-7.73994L7.45039-0.000657682 2.3925-0.000657682 2.3925-15.7357 7.45039-15.7357 7.45039-13.4396C8.06857-14.3267 8.7751-14.997 9.56987-15.4466 10.3727-15.8962 11.2558-16.121 12.2192-16.121 13.3111-16.121 14.2745-15.8561 15.1094-15.3342 15.9444-14.8084 16.5746-14.0697 17.0041-13.1185Z" fill="#000000" fill-rule="nonzero" fill-opacity="1" transform="matrix(1.00092 0 0 1 -554.481 1066.57)"/><path d="M7.91593-20.1991 7.91593-15.7353 13.1023-15.7353 13.1023-12.1386 7.91593-12.1386 7.91593-5.45897C7.91593-4.72839 8.06043-4.23866 8.34946-3.98175 8.63849-3.72485 9.2085-3.59639 10.0676-3.59639L12.6527-3.59639 12.6527 0.000308289 8.34946 0.000308289C6.35843 0.000308289 4.94544-0.40914 4.11049-1.23603 3.28357-2.07098 2.87415-3.47595 2.87415-5.45897L2.87415-12.1386 0.38534-12.1386 0.38534-15.7353 2.87415-15.7353 2.87415-20.1991Z" fill="#000000" fill-rule="nonzero" fill-opacity="1" transform="matrix(1.00092 0 0 1 -514.443 1066.57)"/><path d="M18.2404-9.58582 18.2404 0 13.1825 0 13.1825-7.30582C13.1825-8.68675 13.1504-9.63402 13.0862-10.1478 13.022-10.6616 12.9136-11.039 12.7651-11.2879 12.5724-11.609 12.3034-11.8579 11.9622-12.0426 11.629-12.2232 11.2477-12.3155 10.8222-12.3155 9.77049-12.3155 8.94756-11.9061 8.34948-11.0952 7.74735-10.2924 7.45031-9.17241 7.45031-7.73938L7.45031-0.000102763 2.42459-0.000102763 2.42459-21.8691 7.45031-21.8691 7.45031-13.4393C8.20899-14.3465 9.01179-15.021 9.85886-15.4625 10.7139-15.9001 11.6572-16.1208 12.6848-16.1208 14.5032-16.1208 15.8842-15.5589 16.8274-14.4349 17.7667-13.319 18.2404-11.7053 18.2404-9.58574Z" fill="#000000" fill-rule="nonzero" fill-opacity="1" transform="matrix(1.00092 0 0 1 -500.678 1066.57)"/><path d="M18.1284-7.91593 18.1284-6.47088 6.35897-6.47088C6.48742-5.29075 6.91292-4.4076 7.6435-3.82155 8.37007-3.23146 9.39366-2.93842 10.7104-2.93842 11.77-2.93842 12.8499-3.09096 13.9538-3.40406 15.0657-3.7252 16.2057-4.19887 17.3738-4.83308L17.3738-0.963443C16.1857-0.513856 14.9974-0.17667 13.8092 0.0481341 12.621 0.280954 11.4328 0.401382 10.2445 0.401382 7.39451 0.401382 5.17863-0.321165 3.59701-1.7663 2.0235-3.21135 1.23665-5.23855 1.23665-7.85181 1.23665-10.4209 2.01139-12.436 3.56484-13.9052 5.1143-15.3824 7.24581-16.1209 9.95546-16.1209 12.4281-16.1209 14.4072-15.3703 15.8964-13.873 17.3816-12.3838 18.1283-10.3967 18.1283-7.91594ZM12.9582-9.58582C12.9582-10.5372 12.6772-11.3039 12.1232-11.882 11.5653-12.468 10.8387-12.7651 9.93953-12.7651 8.96409-12.7651 8.17325-12.4921 7.56314-11.9462 6.95304-11.4002 6.57164-10.6135 6.42309-9.58582Z" fill="#000000" fill-rule="nonzero" fill-opacity="1" transform="matrix(1.00092 0 0 1 -480.175 1066.57)"/><path d="M2.64933-20.9698 8.68665-20.9698 16.3136-6.58299 16.3136-20.9698 21.4357-20.9698 21.4357 0 15.3984 0 7.77144-14.3868 7.77144 0 2.64933 0Z" fill="#000000" fill-rule="nonzero" fill-opacity="1" transform="matrix(1.00092 0 0 1 -450.616 1066.57)"/><path d="M9.90696-12.5247C8.79106-12.5247 7.93997-12.1233 7.35392-11.3205 6.76383-10.5176 6.47079-9.3616 6.47079-7.85221 6.47079-6.34283 6.76383-5.18675 7.35392-4.38397 7.93998-3.58916 8.79095-3.19582 9.90696-3.19582 10.9988-3.19582 11.8338-3.58921 12.4118-4.38397 12.9979-5.1868 13.2949-6.34283 13.2949-7.85221 13.2949-9.3616 12.9979-10.5177 12.4118-11.3205 11.8338-12.1233 10.9988-12.5247 9.90696-12.5247ZM9.90696-16.1214C12.6125-16.1214 14.728-15.3869 16.2494-13.9217 17.7668-12.4645 18.5295-10.4414 18.5295-7.85232 18.5295-5.27122 17.7668-3.24803 16.2494-1.78294 14.728-0.325758 12.6125 0.400775 9.90696 0.400775 7.18539 0.400775 5.06189-0.325789 3.53247-1.78294 1.99905-3.24813 1.23634-5.27122 1.23634-7.85232 1.23634-10.4414 1.99904-12.4646 3.53247-13.9217 5.06189-15.3869 7.18539-16.1214 9.90696-16.1214Z" fill="#000000" fill-rule="nonzero" fill-opacity="1" transform="matrix(1.00092 0 0 1 -426.513 1066.57)"/><path d="M2.24794-6.13371 2.24794-15.7357 7.30582-15.7357 7.30582-14.1622C7.30582-13.3031 7.29779-12.2354 7.28977-10.9508 7.27772-9.66629 7.27371-8.80729 7.27371-8.38175 7.27371-7.10523 7.30582-6.19002 7.37005-5.63603 7.44231-5.07806 7.55471-4.67665 7.70724-4.43175 7.91999-4.09857 8.19296-3.84167 8.52613-3.66103 8.85529-3.48842 9.23665-3.40412 9.66618-3.40412 10.7139-3.40412 11.5368-3.80554 12.1389-4.6084 12.737-5.41124 13.038-6.52719 13.038-7.96423L13.038-15.7357 18.0638-15.7357 18.0638-0.000616577 13.038-0.000616577 13.038-2.28072C12.2753-1.35746 11.4726-0.679057 10.6295-0.241493 9.78249 0.184007 8.84716 0.400775 7.81954 0.400775 6.00916 0.400775 4.62823-0.153178 3.67696-1.26912 2.72158-2.38102 2.24794-4.00282 2.24794-6.13433Z" fill="#000000" fill-rule="nonzero" fill-opacity="1" transform="matrix(1.00092 0 0 1 -406.725 1066.57)"/><path d="M18.2404-9.58582 18.2404 0 13.1825 0 13.1825-7.33789C13.1825-8.69466 13.1504-9.63402 13.0862-10.1478 13.022-10.6616 12.9136-11.039 12.7651-11.2879 12.5724-11.609 12.3034-11.8579 11.9622-12.0426 11.629-12.2232 11.2477-12.3155 10.8222-12.3155 9.77049-12.3155 8.94756-11.9061 8.34948-11.0952 7.74735-10.2924 7.45031-9.17241 7.45031-7.73938L7.45031-0.000102763 2.42459-0.000102763 2.42459-15.7352 7.45031-15.7352 7.45031-13.439C8.20899-14.3462 9.01179-15.0206 9.85886-15.4622 10.7139-15.8998 11.6572-16.1205 12.6848-16.1205 14.5032-16.1205 15.8842-15.5585 16.8274-14.4346 17.7667-13.3187 18.2404-11.705 18.2404-9.58543Z" fill="#000000" fill-rule="nonzero" fill-opacity="1" transform="matrix(1.00092 0 0 1 -386.221 1066.57)"/><path d="M2.64933-20.9698 11.6251-20.9698C14.2905-20.9698 16.3336-20.3757 17.7588-19.1875 19.1918-18.0073 19.9104-16.3213 19.9104-14.1296 19.9104-11.9339 19.1919-10.2439 17.7588-9.05567 16.3337-7.86753 14.2905-7.27335 11.6251-7.27335L8.04438-7.27335 8.04438 0.000308289 2.64933 0.000308289ZM8.04438-17.052 8.04438-11.1913 11.047-11.1913C12.0947-11.1913 12.9016-11.4482 13.4716-11.962 14.0496-12.4758 14.3387-13.1983 14.3387-14.1297 14.3387-15.069 14.0496-15.7916 13.4716-16.2974 12.9016-16.7991 12.0948-17.052 11.047-17.052Z" fill="#000000" fill-rule="nonzero" fill-opacity="1" transform="matrix(1.00092 0 0 1 -355.694 1066.57)"/><path d="M14.1135-11.4488C13.6639-11.6495 13.2183-11.8021 12.7807-11.8984 12.3512-12.0028 11.9177-12.059 11.4802-12.059 10.1836-12.059 9.18803-11.6415 8.49366-10.8065 7.79519-9.97957 7.45-8.79943 7.45-7.25799L7.45-0.00035967 2.42428-0.00035967 2.42428-15.7354 7.45-15.7354 7.45-13.1503C8.09227-14.1779 8.83093-14.9246 9.66577-15.3982 10.5087-15.8799 11.5163-16.1208 12.6844-16.1208 12.853-16.1208 13.0377-16.1087 13.2304-16.0887 13.4311-16.0766 13.7201-16.0485 14.0974-16.0084Z" fill="#000000" fill-rule="nonzero" fill-opacity="1" transform="matrix(1.00092 0 0 1 -334.584 1066.57)"/><path d="M9.90696-12.5247C8.79106-12.5247 7.93997-12.1233 7.35392-11.3205 6.76383-10.5176 6.47079-9.3616 6.47079-7.85221 6.47079-6.34283 6.76383-5.18675 7.35392-4.38397 7.93998-3.58916 8.79095-3.19582 9.90696-3.19582 10.9988-3.19582 11.8338-3.58921 12.4118-4.38397 12.9979-5.1868 13.2949-6.34283 13.2949-7.85221 13.2949-9.3616 12.9979-10.5177 12.4118-11.3205 11.8338-12.1233 10.9988-12.5247 9.90696-12.5247ZM9.90696-16.1214C12.6125-16.1214 14.728-15.3869 16.2494-13.9217 17.7668-12.4645 18.5295-10.4414 18.5295-7.85232 18.5295-5.27122 17.7668-3.24803 16.2494-1.78294 14.728-0.325758 12.6125 0.400775 9.90696 0.400775 7.18539 0.400775 5.06189-0.325789 3.53247-1.78294 1.99905-3.24813 1.23634-5.27122 1.23634-7.85232 1.23634-10.4414 1.99904-12.4646 3.53247-13.9217 5.06189-15.3869 7.18539-16.1214 9.90696-16.1214Z" fill="#000000" fill-rule="nonzero" fill-opacity="1" transform="matrix(1.00092 0 0 1 -320.385 1066.57)"/><path d="M2.42459-15.7351 7.45031-15.7351 7.45031-0.288764C7.45031 1.8187 6.94051 3.42838 5.9249 4.54428 4.91734 5.65617 3.45222 6.21417 1.52541 6.21417L-0.963402 6.21417-0.963402 2.90644-0.0802784 2.90644C0.87108 2.90644 1.52539 2.68967 1.87859 2.26417 2.23986 1.83466 2.42452 0.983646 2.42452-0.288866ZM2.42459-21.8688 7.45031-21.8688 7.45031-17.7582 2.42459-17.7582Z" fill="#000000" fill-rule="nonzero" fill-opacity="1" transform="matrix(1.00092 0 0 1 -300.597 1066.57)"/><path d="M18.1284-7.91593 18.1284-6.47088 6.35897-6.47088C6.48742-5.29075 6.91292-4.4076 7.6435-3.82155 8.37007-3.23146 9.39366-2.93842 10.7104-2.93842 11.77-2.93842 12.8499-3.09096 13.9538-3.40406 15.0657-3.7252 16.2057-4.19887 17.3738-4.83308L17.3738-0.963443C16.1857-0.513856 14.9974-0.17667 13.8092 0.0481341 12.621 0.280954 11.4328 0.401382 10.2445 0.401382 7.39451 0.401382 5.17863-0.321165 3.59701-1.7663 2.0235-3.21135 1.23665-5.23855 1.23665-7.85181 1.23665-10.4209 2.01139-12.436 3.56484-13.9052 5.1143-15.3824 7.24581-16.1209 9.95546-16.1209 12.4281-16.1209 14.4072-15.3703 15.8964-13.873 17.3816-12.3838 18.1283-10.3967 18.1283-7.91594ZM12.9582-9.58582C12.9582-10.5372 12.6772-11.3039 12.1232-11.882 11.5653-12.468 10.8387-12.7651 9.93953-12.7651 8.96409-12.7651 8.17325-12.4921 7.56314-11.9462 6.95304-11.4002 6.57164-10.6135 6.42309-9.58582Z" fill="#000000" fill-rule="nonzero" fill-opacity="1" transform="matrix(1.00092 0 0 1 -290.725 1066.57)"/><path d="M15.1257-15.2377 15.1257-11.1432C14.4513-11.6129 13.7649-11.9621 13.0704-12.1869 12.384-12.4116 11.6735-12.524 10.9349-12.524 9.52992-12.524 8.43406-12.1106 7.6433-11.2877 6.86053-10.4728 6.47118-9.32883 6.47118-7.85152 6.47118-6.38231 6.86056-5.23826 7.6433-4.41533 8.43409-3.60045 9.52992-3.19502 10.9349-3.19502 11.7136-3.19502 12.4603-3.30742 13.1668-3.53221 13.8733-3.76503 14.5236-4.11427 15.1257-4.57587L15.1257-0.465351C14.3429-0.176331 13.544 0.0364192 12.7332 0.176917 11.9304 0.32544 11.1156 0.40171 10.2926 0.40171 7.45462 0.40171 5.23474-0.324854 3.62907-1.782 2.03142-3.23517 1.23665-5.25826 1.23665-7.85138 1.23665-10.4525 2.03146-12.4797 3.62907-13.9369 5.23474-15.3901 7.45462-16.1206 10.2926-16.1206 11.1155-16.1206 11.9305-16.0443 12.7332-15.8958 13.5361-15.7553 14.3309-15.5345 15.1257-15.2375Z" fill="#000000" fill-rule="nonzero" fill-opacity="1" transform="matrix(1.00092 0 0 1 -271.19 1066.57)"/><path d="M7.91593-20.1991 7.91593-15.7353 13.1023-15.7353 13.1023-12.1386 7.91593-12.1386 7.91593-5.45897C7.91593-4.72839 8.06043-4.23866 8.34946-3.98175 8.63849-3.72485 9.2085-3.59639 10.0676-3.59639L12.6527-3.59639 12.6527 0.000308289 8.34946 0.000308289C6.35843 0.000308289 4.94544-0.40914 4.11049-1.23603 3.28357-2.07098 2.87415-3.47595 2.87415-5.45897L2.87415-12.1386 0.38534-12.1386 0.38534-15.7353 2.87415-15.7353 2.87415-20.1991Z" fill="#000000" fill-rule="nonzero" fill-opacity="1" transform="matrix(1.00092 0 0 1 -254.122 1066.57)"/></g></g></g></g></svg>