<svg width="720" height="612" xmlns="http://www.w3.org/2000/svg" xmlns:xlink="http://www.w3.org/1999/xlink" xml:space="preserve" overflow="hidden"><defs><clipPath id="clip0"><rect x="1280" y="62" width="720" height="612"/></clipPath><clipPath id="clip1"><rect x="1280" y="63" width="720" height="611"/></clipPath><clipPath id="clip2"><rect x="1280" y="63" width="720" height="611"/></clipPath><clipPath id="clip3"><rect x="1280" y="63" width="720" height="721"/></clipPath></defs><g clip-path="url(#clip0)" transform="translate(-1280 -62)"><g clip-path="url(#clip1)"><g clip-path="url(#clip2)"><g clip-path="url(#clip3)"><path d="M383.071 379.502 330.377 379.502C313.502 379.502 299.769 393.267 299.769 410.19L299.769 435.719 413.755 435.719 413.755 410.19C413.755 393.267 399.99 379.502 383.067 379.502Z" fill="#000000" fill-rule="nonzero" fill-opacity="1" transform="matrix(1 0 0 1.0005 1280 63)"/><path d="M384.552 334.769C384.552 350.113 372.112 362.557 356.764 362.557 341.42 362.557 328.98 350.113 328.98 334.769 328.98 319.425 341.42 306.985 356.764 306.985 372.112 306.985 384.552 319.425 384.552 334.769" fill="#000000" fill-rule="nonzero" fill-opacity="1" transform="matrix(1 0 0 1.0005 1280 63)"/><path d="M588.878 92.9211 131.122 92.9211C117.228 92.9211 105.878 104.271 105.878 118.165L105.878 457.831C105.878 471.809 117.228 483.075 131.122 483.075L588.878 483.075C602.852 483.075 614.118 471.809 614.118 457.831L614.118 118.165C614.118 104.271 602.852 92.9211 588.878 92.9211ZM148.063 308.242C148.063 312.987 144.334 316.712 139.593 316.712 134.933 316.712 131.124 312.987 131.124 308.242L131.124 267.755C131.124 263.094 134.936 259.285 139.593 259.285 144.338 259.285 148.063 263.098 148.063 267.755ZM545.925 429.459C545.925 443.181 534.743 454.362 521.022 454.362L198.966 454.366C185.245 454.366 174.063 443.185 174.063 429.463L174.059 146.627C174.059 132.821 185.241 121.64 198.962 121.64L521.018 121.64C534.739 121.64 545.921 132.821 545.921 146.627ZM582.262 297.062C577.517 297.062 573.198 292.743 573.198 287.997 573.198 283.341 577.517 278.937 582.262 278.937 586.923 278.937 591.242 283.341 591.242 287.997 591.242 292.743 586.923 297.062 582.262 297.062Z" fill="#000000" fill-rule="nonzero" fill-opacity="1" transform="matrix(1 0 0 1.0005 1280 63)"/><path d="M472.659 164.839 240.902 164.839C230.652 164.839 222.351 173.14 222.351 183.389L222.351 244.039C222.351 254.204 230.652 262.505 240.902 262.505L472.659 262.505C482.825 262.505 491.125 254.204 491.125 244.039L491.125 183.389C491.129 173.14 482.824 164.839 472.664 164.839ZM474.182 244.039C474.182 244.887 473.503 245.566 472.659 245.566L240.902 245.566C240.054 245.566 239.291 244.887 239.291 244.039L239.291 183.389C239.291 182.541 240.054 181.782 240.902 181.782L472.659 181.782C473.507 181.782 474.182 182.541 474.182 183.389Z" fill="#000000" fill-rule="nonzero" fill-opacity="1" transform="matrix(1 0 0 1.0005 1280 63)"/><path d="M271.563 204.645C266.565 204.645 262.415 208.711 262.415 213.705 262.415 218.787 266.481 222.769 271.563 222.769 276.73 222.769 280.797 218.787 280.797 213.705 280.797 208.711 276.646 204.645 271.563 204.645Z" fill="#000000" fill-rule="nonzero" fill-opacity="1" transform="matrix(1 0 0 1.0005 1280 63)"/><path d="M328.433 204.645C323.351 204.645 319.2 208.711 319.2 213.705 319.2 218.787 323.266 222.769 328.433 222.769 333.516 222.769 337.582 218.787 337.582 213.705 337.582 208.711 333.431 204.645 328.433 204.645Z" fill="#000000" fill-rule="nonzero" fill-opacity="1" transform="matrix(1 0 0 1.0005 1280 63)"/><path d="M385.128 204.645C380.045 204.645 375.979 208.711 375.979 213.705 375.979 218.787 379.961 222.769 385.128 222.769 390.295 222.769 394.361 218.787 394.361 213.705 394.357 208.711 390.207 204.645 385.128 204.645Z" fill="#000000" fill-rule="nonzero" fill-opacity="1" transform="matrix(1 0 0 1.0005 1280 63)"/><path d="M441.915 204.645C436.833 204.645 432.767 208.711 432.767 213.705 432.767 218.787 436.749 222.769 441.915 222.769 447.082 222.769 451.149 218.787 451.149 213.705 451.149 208.711 446.998 204.645 441.915 204.645Z" fill="#000000" fill-rule="nonzero" fill-opacity="1" transform="matrix(1 0 0 1.0005 1280 63)"/><path d="M28.3659-1.70352C26.9074-0.940125 25.3847-0.369566 23.8017 0.0161486 22.2146 0.401863 20.5593 0.59472 18.8356 0.59472 13.6928 0.59472 9.61467-0.839623 6.60487-3.71242 3.6035-6.58121 2.10487-10.4825 2.10487-15.4124 2.10487-20.3384 3.6035-24.2396 6.60487-27.1124 9.61426-29.9932 13.6923-31.4356 18.8356-31.4356 20.5593-31.4356 22.2147-31.2428 23.8017-30.857 25.3847-30.4713 26.9074-29.8968 28.3659-29.1374L28.3659-22.7409C26.8954-23.7454 25.445-24.4846 24.0106-24.9587 22.5722-25.4288 21.0614-25.6658 19.4785-25.6658 16.6379-25.6658 14.4039-24.7538 12.7767-22.9338 11.1455-21.1097 10.3339-18.6025 10.3339-15.4123 10.3339-12.2181 11.1455-9.71095 12.7767-7.89089 14.4039-6.07886 16.6379-5.17485 19.4785-5.17485 21.0615-5.17485 22.5722-5.40387 24.0106-5.86592 25.4449-6.33601 26.8954-7.07532 28.3659-8.08373Z" fill="#000000" fill-rule="nonzero" fill-opacity="1" transform="matrix(1 0 0 1.0005 1352 766.41)"/><path d="M20.7648-16.8593C20.1099-17.1566 19.463-17.3776 18.8202-17.5182 18.1854-17.6669 17.5425-17.7432 16.8916-17.7432 14.9951-17.7432 13.5327-17.1325 12.5041-15.9111 11.4756-14.6898 10.9613-12.942 10.9613-10.6718L10.9613-0.000380571 3.55238-0.000380571 3.55238-23.1597 10.9613-23.1597 10.9613-19.3508C11.9135-20.8696 13.0064-21.9785 14.2399-22.6776 15.4693-23.3727 16.9479-23.7222 18.6756-23.7222 18.9207-23.7222 19.1899-23.7102 19.4791-23.6901 19.7684-23.666 20.1863-23.6178 20.7328-23.5454Z" fill="#000000" fill-rule="nonzero" fill-opacity="1" transform="matrix(1 0 0 1.0005 1383.08 766.41)"/><path d="M26.6791-11.6352 26.6791-9.52982 9.37029-9.52982C9.55109-7.7941 10.1779-6.49234 11.2506-5.62443 12.3194-4.75658 13.822-4.32267 15.7506-4.32267 17.3135-4.32267 18.9086-4.5517 20.5399-5.01375 22.1792-5.47178 23.8586-6.17491 25.5862-7.11913L25.5862-1.39771C23.8264-0.742793 22.0706-0.248585 20.3148 0.0808663 18.5671 0.422383 16.8193 0.595152 15.0755 0.595152 10.8849 0.595152 7.62634-0.465511 5.30403-2.58704 2.97771-4.71649 1.81656-7.70583 1.81656-11.555 1.81656-15.3358 2.95766-18.309 5.23975-20.4746 7.52194-22.6363 10.6598-23.721 14.6576-23.721 18.2978-23.721 21.2147-22.6201 23.4004-20.4264 25.5861-18.2407 26.679-15.3076 26.679-11.6353ZM19.0613-14.0941C19.0613-15.5084 18.6474-16.6415 17.8238-17.5012 17.0082-18.3691 15.9435-18.803 14.6256-18.803 13.1872-18.803 12.022-18.3932 11.122-17.5816 10.2301-16.778 9.67567-15.6128 9.45062-14.0941Z" fill="#000000" fill-rule="nonzero" fill-opacity="1" transform="matrix(1 0 0 1.0005 1403.97 766.41)"/><path d="M13.9341-10.4143C12.3912-10.4143 11.226-10.1491 10.4466-9.62679 9.67515-9.1125 9.28944-8.34108 9.28944-7.31251 9.28944-6.38036 9.59881-5.64509 10.2216-5.11075 10.8524-4.5844 11.7242-4.32325 12.8413-4.32325 14.2315-4.32325 15.4006-4.82147 16.3448-5.81787 17.297-6.8143 17.7751-8.06787 17.7751-9.57853L17.7751-10.4142ZM25.2483-13.2108 25.2483 0.000205714 17.7752 0.000205714 17.7752-3.43913C16.7868-2.02485 15.6738-0.996274 14.4323-0.353417 13.1868 0.277385 11.676 0.594802 9.90021 0.594802 7.49757 0.594802 5.54883-0.100286 4.05021-1.49443 2.5596-2.89668 1.81625-4.71273 1.81625-6.94267 1.81625-9.66273 2.74839-11.6556 4.61273-12.9212 6.48504-14.1949 9.42213-14.8338 13.4199-14.8338L17.7753-14.8338 17.7753-15.4123C17.7753-16.5775 17.3132-17.4374 16.3931-17.9838 15.469-18.5302 14.0305-18.8034 12.0699-18.8034 10.4828-18.8034 9.00823-18.6427 7.65021-18.3213 6.28817-17.9998 5.0185-17.5217 3.8413-16.8909L3.8413-22.532C5.42438-22.9178 7.01537-23.2111 8.61449-23.416 10.2216-23.6169 11.8208-23.7213 13.4199-23.7213 17.5984-23.7213 20.6119-22.8937 22.4681-21.2464 24.3204-19.595 25.2484-16.9152 25.2484-13.2107Z" fill="#000000" fill-rule="nonzero" fill-opacity="1" transform="matrix(1 0 0 1.0005 1432.69 766.41)"/><path d="M11.6352-29.7319 11.6352-23.1587 19.2692-23.1587 19.2692-17.8712 11.6352-17.8712 11.6352-8.03551C11.6352-6.96271 11.8481-6.23551 12.2781-5.84979 12.7039-5.47211 13.5557-5.28729 14.8334-5.28729L18.6263-5.28729 18.6263 0.000185143 12.2781 0.000185143C9.35301 0.000185143 7.27982-0.610529 6.05839-1.83191 4.84498-3.05333 4.24234-5.1185 4.24234-8.03543L4.24234-17.8711 0.562011-17.8711 0.562011-23.1586 4.24234-23.1586 4.24234-29.7318Z" fill="#000000" fill-rule="nonzero" fill-opacity="1" transform="matrix(1 0 0 1.0005 1461.27 766.41)"/><path d="M26.6791-11.6352 26.6791-9.52982 9.37029-9.52982C9.55109-7.7941 10.1779-6.49234 11.2506-5.62443 12.3194-4.75658 13.822-4.32267 15.7506-4.32267 17.3135-4.32267 18.9086-4.5517 20.5399-5.01375 22.1792-5.47178 23.8586-6.17491 25.5862-7.11913L25.5862-1.39771C23.8264-0.742793 22.0706-0.248585 20.3148 0.0808663 18.5671 0.422383 16.8193 0.595152 15.0755 0.595152 10.8849 0.595152 7.62634-0.465511 5.30403-2.58704 2.97771-4.71649 1.81656-7.70583 1.81656-11.555 1.81656-15.3358 2.95766-18.309 5.23975-20.4746 7.52194-22.6363 10.6598-23.721 14.6576-23.721 18.2978-23.721 21.2147-22.6201 23.4004-20.4264 25.5861-18.2407 26.679-15.3076 26.679-11.6353ZM19.0613-14.0941C19.0613-15.5084 18.6474-16.6415 17.8238-17.5012 17.0082-18.3691 15.9435-18.803 14.6256-18.803 13.1872-18.803 12.022-18.3932 11.122-17.5816 10.2301-16.778 9.67567-15.6128 9.45062-14.0941Z" fill="#000000" fill-rule="nonzero" fill-opacity="1" transform="matrix(1 0 0 1.0005 1481.52 766.41)"/><path d="M19.3176-19.7681 19.3176-32.1747 26.7587-32.1747 26.7587 0 19.3176 0 19.3176-3.34286C18.289-1.98082 17.156-0.984343 15.9265-0.353623 14.7051 0.277179 13.2908 0.594597 11.6836 0.594597 8.83101 0.594597 6.48453-0.534466 4.64431-2.7965 2.81222-5.06656 1.89607-7.9876 1.89607-11.5554 1.89607-15.1232 2.81213-18.0402 4.64431-20.3143 6.48453-22.5844 8.8309-23.7214 11.6836-23.7214 13.2788-23.7214 14.693-23.4 15.9265-22.7572 17.156-22.1143 18.289-21.1178 19.3176-19.7679ZM14.4319-4.7736C16.015-4.7736 17.2284-5.35217 18.064-6.50931 18.8996-7.66646 19.3176-9.34591 19.3176-11.5557 19.3176-13.7615 18.8997-15.4449 18.064-16.6021 17.2282-17.7592 16.0149-18.3378 14.4319-18.3378 12.8569-18.3378 11.6516-17.7592 10.8158-16.6021 9.98816-15.4449 9.57837-13.7615 9.57837-11.5557 9.57837-9.34591 9.98819-7.66646 10.8158-6.50931 11.6516-5.35217 12.8569-4.7736 14.4319-4.7736Z" fill="#000000" fill-rule="nonzero" fill-opacity="1" transform="matrix(1 0 0 1.0005 1510.24 766.41)"/><path d="M15.8791-4.77319C17.4622-4.77319 18.6756-5.35176 19.5112-6.5089 20.3468-7.66605 20.7648-9.3455 20.7648-11.5553 20.7648-13.7611 20.3469-15.4445 19.5112-16.6017 18.6754-17.7588 17.4621-18.3374 15.8791-18.3374 14.292-18.3374 13.0746-17.7508 12.2308-16.5856 11.3831-15.4285 10.9612-13.749 10.9612-11.5553 10.9612-9.36957 11.3831-7.69011 12.2308-6.52495 13.0746-5.35577 14.292-4.77319 15.8791-4.77319ZM10.9613-19.7677C11.9778-21.1177 13.1068-22.1141 14.3524-22.7569 15.5939-23.3998 17.0203-23.7212 18.6273-23.7212 21.488-23.7212 23.8345-22.5841 25.6667-20.3141 27.4988-18.04 28.4149-15.123 28.4149-11.5552 28.4149-7.98737 27.4988-5.06633 25.6667-2.79627 23.8346-0.53424 21.4881 0.594823 18.6273 0.594823 17.0202 0.594823 15.5939 0.277416 14.3524-0.353397 13.1069-0.996254 11.9778-1.99273 10.9613-3.34263L10.9613 0.000226286 3.55238 0.000226286 3.55238-32.1745 10.9613-32.1745Z" fill="#000000" fill-rule="nonzero" fill-opacity="1" transform="matrix(1 0 0 1.0005 1555.31 766.41)"/><path d="M0.514286-23.1593 7.92319-23.1593 14.1429-7.44171 19.4303-23.1593 26.8392-23.1593 17.0999 2.18571C16.1236 4.76517 14.9825 6.57319 13.6767 7.60176 12.379 8.63033 10.6593 9.14462 8.51781 9.14462L4.24286 9.14462 4.24286 4.27495 6.55714 4.27495C7.81077 4.27495 8.71879 4.07406 9.28924 3.68031 9.86781 3.28254 10.3098 2.56339 10.6232 1.52669L10.8321 0.883831Z" fill="#000000" fill-rule="nonzero" fill-opacity="1" transform="matrix(1 0 0 1.0005 1585.62 766.41)"/><path d="M0.208923-30.8736 8.21244-30.8736 16.3928-8.08457 24.5731-30.8736 32.5606-30.8736 21.1342 0 11.6359 0Z" fill="#000000" fill-rule="nonzero" fill-opacity="1" transform="matrix(1 0 0 1.0005 1627.98 766.41)"/><path d="M26.6791-11.6352 26.6791-9.52982 9.37029-9.52982C9.55109-7.7941 10.1779-6.49234 11.2506-5.62443 12.3194-4.75658 13.822-4.32267 15.7506-4.32267 17.3135-4.32267 18.9086-4.5517 20.5399-5.01375 22.1792-5.47178 23.8586-6.17491 25.5862-7.11913L25.5862-1.39771C23.8264-0.742793 22.0706-0.248585 20.3148 0.0808663 18.5671 0.422383 16.8193 0.595152 15.0755 0.595152 10.8849 0.595152 7.62634-0.465511 5.30403-2.58704 2.97771-4.71649 1.81656-7.70583 1.81656-11.555 1.81656-15.3358 2.95766-18.309 5.23975-20.4746 7.52194-22.6363 10.6598-23.721 14.6576-23.721 18.2978-23.721 21.2147-22.6201 23.4004-20.4264 25.5861-18.2407 26.679-15.3076 26.679-11.6353ZM19.0613-14.0941C19.0613-15.5084 18.6474-16.6415 17.8238-17.5012 17.0082-18.3691 15.9435-18.803 14.6256-18.803 13.1872-18.803 12.022-18.3932 11.122-17.5816 10.2301-16.778 9.67567-15.6128 9.45062-14.0941Z" fill="#000000" fill-rule="nonzero" fill-opacity="1" transform="matrix(1 0 0 1.0005 1660.76 766.41)"/><path d="M22.2747-22.4352 22.2747-16.3923C21.2663-17.0874 20.2538-17.5977 19.2373-17.9192 18.2288-18.2486 17.1801-18.4174 16.0873-18.4174 14.0181-18.4174 12.4069-17.8107 11.2498-16.6013 10.1007-15.4 9.53013-13.7165 9.53013-11.555 9.53013-9.38929 10.1007-7.70182 11.2498-6.49243 12.4069-5.29105 14.0181-4.69243 16.0873-4.69243 17.2444-4.69243 18.3413-4.86117 19.3819-5.20671 20.4185-5.54823 21.3828-6.05849 22.2747-6.73352L22.2747-0.674619C21.1176-0.256762 19.9364 0.0566331 18.739 0.2736 17.5498 0.486545 16.3524 0.595029 15.1551 0.595029 10.9765 0.595029 7.70595-0.47376 5.35155-2.61926 2.99304-4.76074 1.81584-7.73805 1.81584-11.555 1.81584-15.38 2.99304-18.3612 5.35155-20.5067 7.70606-22.6482 10.9766-23.721 15.1551-23.721 16.3645-23.721 17.5577-23.6125 18.739-23.3996 19.9162-23.1826 21.0935-22.8612 22.2747-22.4353Z" fill="#000000" fill-rule="nonzero" fill-opacity="1" transform="matrix(1 0 0 1.0005 1689.48 766.41)"/><path d="M11.6352-29.7319 11.6352-23.1587 19.2692-23.1587 19.2692-17.8712 11.6352-17.8712 11.6352-8.03551C11.6352-6.96271 11.8481-6.23551 12.2781-5.84979 12.7039-5.47211 13.5557-5.28729 14.8334-5.28729L18.6263-5.28729 18.6263 0.000185143 12.2781 0.000185143C9.35301 0.000185143 7.27982-0.610529 6.05839-1.83191 4.84498-3.05333 4.24234-5.1185 4.24234-8.03543L4.24234-17.8711 0.562011-17.8711 0.562011-23.1586 4.24234-23.1586 4.24234-29.7318Z" fill="#000000" fill-rule="nonzero" fill-opacity="1" transform="matrix(1 0 0 1.0005 1714.58 766.41)"/><path d="M14.5769-18.4176C12.9376-18.4176 11.6841-17.827 10.8163-16.6497 9.95643-15.4685 9.53054-13.7729 9.53054-11.5551 9.53054-9.33727 9.95643-7.63766 10.8163-6.46046 11.6841-5.27925 12.9377-4.69255 14.5769-4.69255 16.1921-4.69255 17.4255-5.27915 18.2734-6.46046 19.1292-7.63766 19.5591-9.33727 19.5591-11.5551 19.5591-13.7729 19.1292-15.4685 18.2734-16.6497 17.4256-17.8269 16.1922-18.4176 14.5769-18.4176ZM14.5769-23.7211C18.5626-23.7211 21.6724-22.6443 23.9144-20.4908 26.1524-18.3372 27.2733-15.356 27.2733-11.5551 27.2733-7.75018 26.1524-4.77288 23.9144-2.61936 21.6724-0.473863 18.5626 0.594926 14.5769 0.594926 10.5792 0.594926 7.44922-0.473863 5.1912-2.61936 2.9412-4.77298 1.81625-7.75018 1.81625-11.5551 1.81625-15.356 2.9413-18.3373 5.1912-20.4908 7.44922-22.6444 10.5792-23.7211 14.5769-23.7211Z" fill="#000000" fill-rule="nonzero" fill-opacity="1" transform="matrix(1 0 0 1.0005 1734.83 766.41)"/><path d="M20.7648-16.8593C20.1099-17.1566 19.463-17.3776 18.8202-17.5182 18.1854-17.6669 17.5425-17.7432 16.8916-17.7432 14.9951-17.7432 13.5327-17.1325 12.5041-15.9111 11.4756-14.6898 10.9613-12.942 10.9613-10.6718L10.9613-0.000380571 3.55238-0.000380571 3.55238-23.1597 10.9613-23.1597 10.9613-19.3508C11.9135-20.8696 13.0064-21.9785 14.2399-22.6776 15.4693-23.3727 16.9479-23.7222 18.6756-23.7222 18.9207-23.7222 19.1899-23.7102 19.4791-23.6901 19.7684-23.666 20.1863-23.6178 20.7328-23.5454Z" fill="#000000" fill-rule="nonzero" fill-opacity="1" transform="matrix(1 0 0 1.0005 1763.93 766.41)"/><path d="M21.6483-22.4352 21.6483-16.8102C20.0613-17.4731 18.5305-17.9713 17.0519-18.3048 15.5813-18.6342 14.1952-18.803 12.8893-18.803 11.4751-18.803 10.4224-18.6262 9.73934-18.2726 9.06434-17.9191 8.72683-17.3767 8.72683-16.6494 8.72683-16.0468 8.98398-15.5888 9.49826-15.2673 10.0125-14.9539 10.9366-14.7248 12.2786-14.5762L13.5804-14.3833C17.3732-13.9012 19.9206-13.1056 21.2304-12.0047 22.5482-10.9119 23.2072-9.1842 23.2072-6.8298 23.2072-4.35485 22.2951-2.49457 20.4751-1.25299 18.651-0.0195223 15.9349 0.595255 12.3268 0.595255 10.792 0.595255 9.20903 0.470705 7.56969 0.225607 5.93848-0.00742629 4.26304-0.369031 2.53936-0.851205L2.53936-6.47626C4.01793-5.75706 5.52859-5.21461 7.07145-4.85307 8.62233-4.4995 10.2054-4.32272 11.8125-4.32272 13.2589-4.32272 14.3438-4.51959 15.0751-4.91735 15.8023-5.32316 16.1679-5.9178 16.1679-6.70131 16.1679-7.36425 15.9148-7.85845 15.4126-8.17988 14.9063-8.50131 13.9059-8.75042 12.4072-8.93524L11.1054-9.09596C7.80278-9.51381 5.4885-10.2772 4.16257-11.3942 2.84476-12.5071 2.18576-14.1987 2.18576-16.4728 2.18576-18.9236 3.02549-20.7477 4.70894-21.9371 6.3884-23.1263 8.97186-23.721 12.4553-23.721 13.8133-23.721 15.2437-23.6125 16.7464-23.3996 18.245-23.1947 19.8804-22.8732 21.6482-22.4353Z" fill="#000000" fill-rule="nonzero" fill-opacity="1" transform="matrix(1 0 0 1.0005 1784.82 766.41)"/><path d="M3.88923-30.8736 11.8446-30.8736 11.8446-6.01097 25.827-6.01097 25.827-0.000205714 3.88965-0.000205714Z" fill="#000000" fill-rule="nonzero" fill-opacity="1" transform="matrix(1 0 0 1.0005 1810.02 766.41)"/><path d="M13.9341-10.4143C12.3912-10.4143 11.226-10.1491 10.4466-9.62679 9.67515-9.1125 9.28944-8.34108 9.28944-7.31251 9.28944-6.38036 9.59881-5.64509 10.2216-5.11075 10.8524-4.5844 11.7242-4.32325 12.8413-4.32325 14.2315-4.32325 15.4006-4.82147 16.3448-5.81787 17.297-6.8143 17.7751-8.06787 17.7751-9.57853L17.7751-10.4142ZM25.2483-13.2108 25.2483 0.000205714 17.7752 0.000205714 17.7752-3.43913C16.7868-2.02485 15.6738-0.996274 14.4323-0.353417 13.1868 0.277385 11.676 0.594802 9.90021 0.594802 7.49757 0.594802 5.54883-0.100286 4.05021-1.49443 2.5596-2.89668 1.81625-4.71273 1.81625-6.94267 1.81625-9.66273 2.74839-11.6556 4.61273-12.9212 6.48504-14.1949 9.42213-14.8338 13.4199-14.8338L17.7753-14.8338 17.7753-15.4123C17.7753-16.5775 17.3132-17.4374 16.3931-17.9838 15.469-18.5302 14.0305-18.8034 12.0699-18.8034 10.4828-18.8034 9.00823-18.6427 7.65021-18.3213 6.28817-17.9998 5.0185-17.5217 3.8413-16.8909L3.8413-22.532C5.42438-22.9178 7.01537-23.2111 8.61449-23.416 10.2216-23.6169 11.8208-23.7213 13.4199-23.7213 17.5984-23.7213 20.6119-22.8937 22.4681-21.2464 24.3204-19.595 25.2484-16.9152 25.2484-13.2107Z" fill="#000000" fill-rule="nonzero" fill-opacity="1" transform="matrix(1 0 0 1.0005 1837.01 766.41)"/><path d="M15.8791-4.77319C17.4622-4.77319 18.6756-5.35176 19.5112-6.5089 20.3468-7.66605 20.7648-9.3455 20.7648-11.5553 20.7648-13.7611 20.3469-15.4445 19.5112-16.6017 18.6754-17.7588 17.4621-18.3374 15.8791-18.3374 14.292-18.3374 13.0746-17.7508 12.2308-16.5856 11.3831-15.4285 10.9612-13.749 10.9612-11.5553 10.9612-9.36957 11.3831-7.69011 12.2308-6.52495 13.0746-5.35577 14.292-4.77319 15.8791-4.77319ZM10.9613-19.7677C11.9778-21.1177 13.1068-22.1141 14.3524-22.7569 15.5939-23.3998 17.0203-23.7212 18.6273-23.7212 21.488-23.7212 23.8345-22.5841 25.6667-20.3141 27.4988-18.04 28.4149-15.123 28.4149-11.5552 28.4149-7.98737 27.4988-5.06633 25.6667-2.79627 23.8346-0.53424 21.4881 0.594823 18.6273 0.594823 17.0202 0.594823 15.5939 0.277416 14.3524-0.353397 13.1069-0.996254 11.9778-1.99273 10.9613-3.34263L10.9613 0.000226286 3.55238 0.000226286 3.55238-32.1745 10.9613-32.1745Z" fill="#000000" fill-rule="nonzero" fill-opacity="1" transform="matrix(1 0 0 1.0005 1865.59 766.41)"/><path d="M18.8033-32.1747 18.8033-27.3211 14.7051-27.3211C13.6524-27.3211 12.9211-27.1283 12.5033-26.7425 12.0935-26.3649 11.8926-25.706 11.8926-24.7657L11.8926-23.1586 18.2247-23.1586 18.2247-17.8711 11.8926-17.8711 11.8926 0.000308571 4.4837 0.000308571 4.4837-17.8711 0.803366-17.8711 0.803366-23.1586 4.4837-23.1586 4.4837-24.7657C4.4837-27.2929 5.18281-29.1572 6.58908-30.3586 8.00337-31.568 10.1811-32.1746 13.1302-32.1746Z" fill="#000000" fill-rule="nonzero" fill-opacity="1" transform="matrix(1 0 0 1.0005 1352 808.783)"/><path d="M11.6352-29.7319 11.6352-23.1587 19.2692-23.1587 19.2692-17.8712 11.6352-17.8712 11.6352-8.03551C11.6352-6.96271 11.8481-6.23551 12.2781-5.84979 12.7039-5.47211 13.5557-5.28729 14.8334-5.28729L18.6263-5.28729 18.6263 0.000185143 12.2781 0.000185143C9.35301 0.000185143 7.27982-0.610529 6.05839-1.83191 4.84498-3.05333 4.24234-5.1185 4.24234-8.03543L4.24234-17.8711 0.562011-17.8711 0.562011-23.1586 4.24234-23.1586 4.24234-29.7318Z" fill="#000000" fill-rule="nonzero" fill-opacity="1" transform="matrix(1 0 0 1.0005 1479.29 808.783)"/><path d="M26.8395-14.0945 26.8395 0 19.3984 0 19.3984-10.7517C19.3984-12.7767 19.3502-14.1668 19.2538-14.9302 19.1654-15.6896 19.0168-16.248 18.8038-16.6017 18.5145-17.0838 18.1168-17.4575 17.6146-17.7267 17.1204-17.9919 16.5579-18.1285 15.9271-18.1285 14.3842-18.1285 13.1668-17.5339 12.2789-16.3445 11.3989-15.1553 10.9611-13.5039 10.9611-11.3945L10.9611-2.05714e-05 3.55215-2.05714e-05 3.55215-32.1748 10.9611-32.1748 10.9611-19.7681C12.074-21.1181 13.2593-22.1145 14.5128-22.7574 15.7663-23.4002 17.1525-23.7217 18.6753-23.7217 21.3432-23.7217 23.3682-22.902 24.7503-21.2628 26.1405-19.6234 26.8395-17.2328 26.8395-14.0948Z" fill="#000000" fill-rule="nonzero" fill-opacity="1" transform="matrix(1 0 0 1.0005 1499.53 808.783)"/><path d="M3.88923-30.8736 12.7767-30.8736 24.0108-9.6912 24.0108-30.8736 31.5482-30.8736 31.5482 0 22.6608 0 11.4432-21.1824 11.4432 0 3.88954 0Z" fill="#000000" fill-rule="nonzero" fill-opacity="1" transform="matrix(1 0 0 1.0005 1573.15 808.783)"/><path d="M3.88923-30.8736 17.1002-30.8736C21.0297-30.8736 24.0471-29.9977 26.1484-28.2539 28.2458-26.5062 29.2984-24.0191 29.2984-20.7968 29.2984-17.5584 28.2458-15.0673 26.1484-13.3236 24.0471-11.5759 21.0297-10.7039 17.1002-10.7039L11.8448-10.7039 11.8448-0.000617143 3.88944-0.000617143ZM11.8446-25.1039 11.8446-16.4736 16.2481-16.4736C17.791-16.4736 18.9802-16.8473 19.816-17.5987 20.6598-18.358 21.0857-19.4227 21.0857-20.7969 21.0857-22.1791 20.6598-23.2397 19.816-23.9791 18.9803-24.7264 17.791-25.1041 16.2481-25.1041Z" fill="#000000" fill-rule="nonzero" fill-opacity="1" transform="matrix(1 0 0 1.0005 1712.74 808.783)"/><path d="M3.55176-23.1593 10.9607-23.1593 10.9607-0.418629C10.9607 2.68714 10.2133 5.05368 8.72671 6.68489 7.2361 8.32423 5.07847 9.1438 2.2499 9.1438L-1.39834 9.1438-1.39834 4.27413-0.128674 4.27413C1.28561 4.27413 2.2499 3.95672 2.76418 3.32591 3.2865 2.69108 3.55168 1.44557 3.55168-0.418711ZM3.55176-32.1754 10.9607-32.1754 10.9607-26.1325 3.55176-26.1325Z" fill="#000000" fill-rule="nonzero" fill-opacity="1" transform="matrix(1 0 0 1.0005 1793.77 808.783)"/><path d="M11.6352-29.7319 11.6352-23.1587 19.2692-23.1587 19.2692-17.8712 11.6352-17.8712 11.6352-8.03551C11.6352-6.96271 11.8481-6.23551 12.2781-5.84979 12.7039-5.47211 13.5557-5.28729 14.8334-5.28729L18.6263-5.28729 18.6263 0.000185143 12.2781 0.000185143C9.35301 0.000185143 7.27982-0.610529 6.05839-1.83191 4.84498-3.05333 4.24234-5.1185 4.24234-8.03543L4.24234-17.8711 0.562011-17.8711 0.562011-23.1586 4.24234-23.1586 4.24234-29.7318Z" fill="#000000" fill-rule="nonzero" fill-opacity="1" transform="matrix(1 0 0 1.0005 1862.12 808.783)"/></g></g></g></g></svg>